<?xml version="1.0" encoding="utf-8"?>
<!-- Generator: Adobe Illustrator 27.3.1, SVG Export Plug-In . SVG Version: 6.00 Build 0)  -->
<svg version="1.1" id="Layer_1" xmlns="http://www.w3.org/2000/svg" xmlns:xlink="http://www.w3.org/1999/xlink" x="0px" y="0px"
	 viewBox="0 0 225 50" style="enable-background:new 0 0 225 50;" xml:space="preserve">
<style type="text/css">
	.st0{display:none;}
	.st1{display:inline;}
	.st2{clip-path:url(#SVGID_00000070832810272073343330000000960696089221845919_);fill:#636569;}
	.st3{clip-path:url(#SVGID_00000013151734209177280320000015948859502540006816_);fill:#636569;}
	.st4{clip-path:url(#SVGID_00000129917118530355973720000002621457976849869210_);fill:#636569;}
	.st5{clip-path:url(#SVGID_00000176756004864605215890000011243852345178062774_);fill:#636569;}
	.st6{clip-path:url(#SVGID_00000043421680631000564040000008872041494073624475_);fill:#636569;}
	.st7{clip-path:url(#SVGID_00000022556426294259953310000018321652059061006250_);fill:#98989A;}
	.st8{clip-path:url(#SVGID_00000147185438450009575620000004071739347586453909_);fill:#98989A;}
	.st9{clip-path:url(#SVGID_00000108304409198712044190000011903178459052812721_);fill:#9C182F;}
	.st10{clip-path:url(#SVGID_00000163065911115293753370000012611741608440885640_);fill:#98989A;}
	.st11{clip-path:url(#SVGID_00000101104891919790127950000004786585665621420448_);fill:#98989A;}
	.st12{clip-path:url(#SVGID_00000070096649386078052270000003973878802014558862_);fill:#636569;}
	.st13{clip-path:url(#SVGID_00000013871484820437739820000003875358451877988778_);fill:#636569;}
	.st14{clip-path:url(#SVGID_00000065068102524893518090000011320891675638576534_);fill:#636569;}
	.st15{clip-path:url(#SVGID_00000036216058742000441540000014184811977758701993_);fill:#636569;}
	.st16{clip-path:url(#SVGID_00000118385372981818583070000000528962525130216097_);fill:#636569;}
	.st17{clip-path:url(#SVGID_00000133520161423298768290000013491536546487604127_);fill:#636569;}
	.st18{clip-path:url(#SVGID_00000139994525096658089860000004349258734219034268_);fill:#98989A;}
	.st19{clip-path:url(#SVGID_00000145047812177665085730000016346002616880978358_);fill:#98989A;}
	.st20{clip-path:url(#SVGID_00000094581016111911804400000017991575378805243831_);fill:#9C182F;}
	.st21{clip-path:url(#SVGID_00000137126323099691205010000006031999205780307391_);fill:#98989A;}
	.st22{clip-path:url(#SVGID_00000175294405088703135340000008203761442802477957_);fill:#98989A;}
	.st23{clip-path:url(#SVGID_00000030467859451697467380000016419449211052420282_);fill:#636569;}
</style>
<g id="PEawPt_00000003063715429792006110000006410840060429969828_">
	
		<image style="overflow:visible;" width="2223" height="539" id="PEawPt_00000039855607265649940090000008731204658680966825_" xlink:href="E47C7755FAB3B818.jpg"  transform="matrix(0.1061 0 0 0.1061 -6.6558 -3.4062)">
	</image>
</g>
<g class="st0">
	<g class="st1">
		<g>
			<defs>
				<rect id="SVGID_1_" x="-11.4" width="247.9" height="50"/>
			</defs>
			<clipPath id="SVGID_00000113344037978585965430000000048070384827694767_">
				<use xlink:href="#SVGID_1_"  style="overflow:visible;"/>
			</clipPath>
			<path style="clip-path:url(#SVGID_00000113344037978585965430000000048070384827694767_);fill:#636569;" d="M-11.4,0h6.2v11.3
				h6.4l1.1,5.5h-7.5v23.5c0,2.9,0.8,3.4,4.7,3.4h1.7l1.1,5.5h-4.8c-6.4,0-9-1.3-9-8.2V0z"/>
		</g>
	</g>
	<g class="st1">
		<g>
			<defs>
				<rect id="SVGID_00000106867609260331368290000005526039148458598591_" x="-11.4" width="247.9" height="50"/>
			</defs>
			<clipPath id="SVGID_00000168815100616651944660000000883544100850065833_">
				<use xlink:href="#SVGID_00000106867609260331368290000005526039148458598591_"  style="overflow:visible;"/>
			</clipPath>
			<path style="clip-path:url(#SVGID_00000168815100616651944660000000883544100850065833_);fill:#636569;" d="M30.1,30.3
				c-2.3,1.7-6.8,1.7-10.9,2.4c-4,0.7-7.3,2.1-7.3,6.5c0,4,3.4,5.4,7,5.4c7.9,0,11.2-5,11.2-8.2C30.1,36.5,30.1,30.3,30.1,30.3z
				 M30.5,49.1v-4.7c-3.4,3.9-7.7,5.6-12.8,5.6c-6.6,0-12.1-3-12.1-10.3c0-8.2,6.1-10,12.3-11.2c6.6-1.2,12.3-0.8,12.3-5.4
				c0-5.2-4.3-6.1-8.1-6.1c-5.1,0-8.9,1.5-9.1,6.9H7c0.3-9.1,7.3-12.2,15.5-12.2c6.5,0,13.7,1.5,13.7,10V49h-5.7
				C30.5,49,30.5,49.1,30.5,49.1z"/>
		</g>
	</g>
	<g class="st1">
		<g>
			<defs>
				<rect id="SVGID_00000018212740826898305850000014104776216391203507_" x="-11.4" width="247.9" height="50"/>
			</defs>
			<clipPath id="SVGID_00000036948489438973759490000015537448710628200842_">
				<use xlink:href="#SVGID_00000018212740826898305850000014104776216391203507_"  style="overflow:visible;"/>
			</clipPath>
			
				<rect x="42.2" style="clip-path:url(#SVGID_00000036948489438973759490000015537448710628200842_);fill:#636569;" width="6.2" height="49.2"/>
		</g>
	</g>
	<g class="st1">
		<g>
			<defs>
				<rect id="SVGID_00000114074186291150877400000013925628168578525828_" x="-11.4" width="247.9" height="50"/>
			</defs>
			<clipPath id="SVGID_00000060004351770924697010000012062777691298579369_">
				<use xlink:href="#SVGID_00000114074186291150877400000013925628168578525828_"  style="overflow:visible;"/>
			</clipPath>
			<path style="clip-path:url(#SVGID_00000060004351770924697010000012062777691298579369_);fill:#636569;" d="M81.6,27.5
				c-0.3-5.7-4.6-10.3-10.5-10.3c-6.3,0-10,4.7-10.5,10.3H81.6z M87.4,37.6C85.8,45.6,80,50,71.9,50c-11.6,0-17.1-8-17.5-19.2
				c0-10.9,7.2-18.9,17.1-18.9c12.9,0,16.9,12.1,16.5,20.9H60.7c-0.2,6.3,3.4,12,11.4,12c5,0,8.5-2.4,9.5-7.1H87.4z"/>
		</g>
	</g>
	<g class="st1">
		<g>
			<defs>
				<rect id="SVGID_00000060745372841058957540000012230423529425098413_" x="-11.4" width="247.9" height="50"/>
			</defs>
			<clipPath id="SVGID_00000139270753270400630860000003263541226872708515_">
				<use xlink:href="#SVGID_00000060745372841058957540000012230423529425098413_"  style="overflow:visible;"/>
			</clipPath>
			<path style="clip-path:url(#SVGID_00000139270753270400630860000003263541226872708515_);fill:#636569;" d="M93.5,11.3h5.8v6h0.1
				c2.6-4.7,6.9-6.9,12.3-6.9c10,0,13,5.7,13,13.8v24.8h-6.2V23.5c0-4.6-3-7.6-7.6-7.6c-7.5,0-11.2,5.1-11.2,11.8v21.4h-6.2V11.3z"
				/>
		</g>
	</g>
	<g class="st1">
		<g>
			<defs>
				<rect id="SVGID_00000018203612218883858050000010618939598357024396_" x="-11.4" width="247.9" height="50"/>
			</defs>
			<clipPath id="SVGID_00000173162808797255092840000006861162353380084661_">
				<use xlink:href="#SVGID_00000018203612218883858050000010618939598357024396_"  style="overflow:visible;"/>
			</clipPath>
			
				<rect x="150" y="43.7" style="clip-path:url(#SVGID_00000173162808797255092840000006861162353380084661_);fill:#98989A;" width="8.7" height="5.5"/>
		</g>
	</g>
	<g class="st1">
		<g>
			<defs>
				<rect id="SVGID_00000046326052583262639770000006514238662907446929_" x="-11.4" width="247.9" height="50"/>
			</defs>
			<clipPath id="SVGID_00000106119732953350931190000002263728892673924023_">
				<use xlink:href="#SVGID_00000046326052583262639770000006514238662907446929_"  style="overflow:visible;"/>
			</clipPath>
			
				<rect x="175.3" y="43.7" style="clip-path:url(#SVGID_00000106119732953350931190000002263728892673924023_);fill:#98989A;" width="8.7" height="5.5"/>
		</g>
	</g>
	<g class="st1">
		<g>
			<defs>
				<rect id="SVGID_00000029037803852595659260000015073138886084509602_" x="-11.4" width="247.9" height="50"/>
			</defs>
			<clipPath id="SVGID_00000042733001958809802850000006690629014549533100_">
				<use xlink:href="#SVGID_00000029037803852595659260000015073138886084509602_"  style="overflow:visible;"/>
			</clipPath>
			<path style="clip-path:url(#SVGID_00000042733001958809802850000006690629014549533100_);fill:#9C182F;" d="M158.7,40.8h-8.7
				V27.1c0-9.4,7.6-17,17-17s17,7.6,17,17v13.7h-8.8V27.1c0-4.6-3.8-8.4-8.4-8.4s-8.4,3.8-8.4,8.4v13.7
				C158.6,40.8,158.7,40.8,158.7,40.8z"/>
		</g>
	</g>
	<g class="st1">
		<g>
			<defs>
				<rect id="SVGID_00000093878316293361647000000004203336387927007149_" x="-11.4" width="247.9" height="50"/>
			</defs>
			<clipPath id="SVGID_00000080204363271478542140000004402005327410657166_">
				<use xlink:href="#SVGID_00000093878316293361647000000004203336387927007149_"  style="overflow:visible;"/>
			</clipPath>
			<path style="clip-path:url(#SVGID_00000080204363271478542140000004402005327410657166_);fill:#98989A;" d="M218.1,29.2
				c-0.1-7.5-4.9-14.6-13.2-14.6c-8,0-12.7,7.4-13.2,14.6H218.1z M191.6,31.5c-0.1,8.5,4.4,16.2,13.2,16.2c6.8,0,11.6-4.1,12.9-10.7
				h2.6c-1.4,8.5-7,13-15.6,13c-10.5,0-16.1-8.2-15.9-18.2c-0.1-9.9,5.1-19.6,15.9-19.6c11.3,0,16.4,9,15.9,19.2
				C220.7,31.5,191.6,31.5,191.6,31.5z"/>
		</g>
	</g>
	<g class="st1">
		<g>
			<defs>
				<rect id="SVGID_00000143592030295807227590000002532894256717191837_" x="-11.4" width="247.9" height="50"/>
			</defs>
			<clipPath id="SVGID_00000000208195038206360460000000351685552722576304_">
				<use xlink:href="#SVGID_00000143592030295807227590000002532894256717191837_"  style="overflow:visible;"/>
			</clipPath>
			<path style="clip-path:url(#SVGID_00000000208195038206360460000000351685552722576304_);fill:#98989A;" d="M225.4,11.6V0h2.7
				v11.5h7l1.1,2.4h-8.1v26.3c0,6.1,2.1,6.6,6.9,6.5l1.1,2.4c-5.7,0.4-11.2-0.4-10.9-9V14L225.4,11.6L225.4,11.6z"/>
		</g>
	</g>
	<g class="st1">
		<g>
			<defs>
				<rect id="SVGID_00000159437945486571004510000000078669921259845766_" x="-11.4" width="247.9" height="50"/>
			</defs>
			<clipPath id="SVGID_00000160912388714711789160000005696552543825875368_">
				<use xlink:href="#SVGID_00000159437945486571004510000000078669921259845766_"  style="overflow:visible;"/>
			</clipPath>
			<path style="clip-path:url(#SVGID_00000160912388714711789160000005696552543825875368_);fill:#636569;" d="M130.5,0h6.2v11.3
				h6.4l1.1,5.5h-7.5v23.5c0,2.9,0.8,3.4,4.7,3.4h1.7l1.1,5.5h-4.8c-6.4,0-9-1.3-9-8.2L130.5,0L130.5,0z"/>
		</g>
	</g>
</g>
<g>
	<g>
		<g>
			<defs>
				<rect id="SVGID_00000029019414342717403400000006430613976417724559_" y="3.1" width="225" height="45.4"/>
			</defs>
			<clipPath id="SVGID_00000113312342953487047240000004126996756928189836_">
				<use xlink:href="#SVGID_00000029019414342717403400000006430613976417724559_"  style="overflow:visible;"/>
			</clipPath>
			<path style="clip-path:url(#SVGID_00000113312342953487047240000004126996756928189836_);fill:#636569;" d="M0,3.1h5.6v10.3h5.8
				l1,5H5.6v21.4c0,2.6,0.7,3.1,4.3,3.1h1.6l1,5H8.1c-5.8,0-8.1-1.2-8.1-7.5V3.1z"/>
		</g>
	</g>
	<g>
		<g>
			<defs>
				<rect id="SVGID_00000115480775370068107770000008089638037881454242_" y="3.1" width="225" height="45.4"/>
			</defs>
			<clipPath id="SVGID_00000106114943270142967450000003325065129934688653_">
				<use xlink:href="#SVGID_00000115480775370068107770000008089638037881454242_"  style="overflow:visible;"/>
			</clipPath>
			<path style="clip-path:url(#SVGID_00000106114943270142967450000003325065129934688653_);fill:#636569;" d="M37.7,30.7
				c-2.1,1.6-6.2,1.6-9.9,2.2c-3.6,0.6-6.7,1.9-6.7,5.9c0,3.6,3.1,4.9,6.4,4.9c7.2,0,10.2-4.5,10.2-7.5
				C37.7,36.2,37.7,30.7,37.7,30.7z M38.1,47.7v-4.3c-3.1,3.5-7,5.1-11.6,5.1c-6,0-11-2.7-11-9.3c0-7.5,5.5-9.1,11.2-10.2
				c6-1.1,11.2-0.7,11.2-4.9c0-4.7-3.9-5.5-7.4-5.5c-4.6,0-8,1.4-8.2,6.3h-5.5c0.3-8.2,6.7-11.1,14.1-11.1c5.9,0,12.5,1.4,12.5,9.1
				v24.8L38.1,47.7C38.1,47.6,38.1,47.7,38.1,47.7z"/>
		</g>
	</g>
	<g>
		<g>
			<defs>
				<rect id="SVGID_00000072238303688450935240000013127514846676855435_" y="3.1" width="225" height="45.4"/>
			</defs>
			<clipPath id="SVGID_00000080188940444439425160000006009694992811047585_">
				<use xlink:href="#SVGID_00000072238303688450935240000013127514846676855435_"  style="overflow:visible;"/>
			</clipPath>
			
				<rect x="48.7" y="3.1" style="clip-path:url(#SVGID_00000080188940444439425160000006009694992811047585_);fill:#636569;" width="5.6" height="44.6"/>
		</g>
	</g>
	<g>
		<g>
			<defs>
				<rect id="SVGID_00000033346714363845128370000017633062734029424270_" y="3.1" width="225" height="45.4"/>
			</defs>
			<clipPath id="SVGID_00000169554026300700658590000001904286703890959038_">
				<use xlink:href="#SVGID_00000033346714363845128370000017633062734029424270_"  style="overflow:visible;"/>
			</clipPath>
			<path style="clip-path:url(#SVGID_00000169554026300700658590000001904286703890959038_);fill:#636569;" d="M84.5,28.1
				c-0.3-5.2-4.2-9.3-9.5-9.3c-5.7,0-9.1,4.3-9.5,9.3H84.5z M89.8,37.2c-1.5,7.3-6.7,11.3-14.1,11.3c-10.5,0-15.5-7.3-15.9-17.5
				c0-9.9,6.6-17.2,15.5-17.2c11.7,0,15.3,11,15,19H65.4c-0.2,5.7,3.1,10.9,10.4,10.9c4.5,0,7.7-2.2,8.6-6.5H89.8z"/>
		</g>
	</g>
	<g>
		<g>
			<defs>
				<rect id="SVGID_00000129192879527315066690000009517045028207133860_" y="3.1" width="225" height="45.4"/>
			</defs>
			<clipPath id="SVGID_00000030448107430730345060000004464205325899434888_">
				<use xlink:href="#SVGID_00000129192879527315066690000009517045028207133860_"  style="overflow:visible;"/>
			</clipPath>
			<path style="clip-path:url(#SVGID_00000030448107430730345060000004464205325899434888_);fill:#636569;" d="M95.2,13.4h5.3v5.5
				h0.1c2.4-4.3,6.3-6.3,11.2-6.3c9.1,0,11.8,5.2,11.8,12.6v22.6H118V24.5c0-4.2-2.7-6.9-6.9-6.9c-6.8,0-10.2,4.6-10.2,10.7v19.4
				h-5.6V13.4z"/>
		</g>
	</g>
	<g>
		<g>
			<defs>
				<rect id="SVGID_00000123401231455864865450000014045233236641977729_" y="3.1" width="225" height="45.4"/>
			</defs>
			<clipPath id="SVGID_00000152254463225137257880000016884564386329996474_">
				<use xlink:href="#SVGID_00000123401231455864865450000014045233236641977729_"  style="overflow:visible;"/>
			</clipPath>
			
				<rect x="146.5" y="42.8" style="clip-path:url(#SVGID_00000152254463225137257880000016884564386329996474_);fill:#98989A;" width="7.9" height="5"/>
		</g>
	</g>
	<g>
		<g>
			<defs>
				<rect id="SVGID_00000124150713559856099180000004751855006771823522_" y="3.1" width="225" height="45.4"/>
			</defs>
			<clipPath id="SVGID_00000135691892398360588430000006958485385458622127_">
				<use xlink:href="#SVGID_00000124150713559856099180000004751855006771823522_"  style="overflow:visible;"/>
			</clipPath>
			
				<rect x="169.5" y="42.8" style="clip-path:url(#SVGID_00000135691892398360588430000006958485385458622127_);fill:#98989A;" width="7.9" height="5"/>
		</g>
	</g>
	<g>
		<g>
			<defs>
				<rect id="SVGID_00000155132083340151054820000013498455996331817371_" y="3.1" width="225" height="45.4"/>
			</defs>
			<clipPath id="SVGID_00000152972877008189074230000008441896263044274323_">
				<use xlink:href="#SVGID_00000155132083340151054820000013498455996331817371_"  style="overflow:visible;"/>
			</clipPath>
			<path style="clip-path:url(#SVGID_00000152972877008189074230000008441896263044274323_);fill:#9C182F;" d="M154.5,40.2h-7.9
				V27.7c0-8.5,6.9-15.4,15.4-15.4s15.4,6.9,15.4,15.4v12.5h-7.9V27.7c0-4.2-3.4-7.6-7.6-7.6s-7.6,3.4-7.6,7.6L154.5,40.2
				C154.4,40.2,154.5,40.2,154.5,40.2z"/>
		</g>
	</g>
	<g>
		<g>
			<defs>
				<rect id="SVGID_00000147193888200991939090000010773031544409422216_" y="3.1" width="225" height="45.4"/>
			</defs>
			<clipPath id="SVGID_00000077294996028344798750000010961574058805237166_">
				<use xlink:href="#SVGID_00000147193888200991939090000010773031544409422216_"  style="overflow:visible;"/>
			</clipPath>
			<path style="clip-path:url(#SVGID_00000077294996028344798750000010961574058805237166_);fill:#98989A;" d="M208.4,29.6
				c-0.1-6.8-4.4-13.2-12-13.2c-7.3,0-11.6,6.7-12,13.2H208.4z M184.3,31.7c-0.1,7.7,4,14.7,12,14.7c6.2,0,10.5-3.7,11.7-9.7h2.4
				c-1.3,7.7-6.4,11.8-14.1,11.8c-9.5,0-14.6-7.5-14.4-16.5c-0.1-9,4.6-17.7,14.4-17.7c10.3,0,14.9,8.1,14.4,17.5
				C210.8,31.7,184.3,31.7,184.3,31.7z"/>
		</g>
	</g>
	<g>
		<g>
			<defs>
				<rect id="SVGID_00000127045225244325914800000006129291906973102776_" y="3.1" width="225" height="45.4"/>
			</defs>
			<clipPath id="SVGID_00000170978396540830151040000017500412610635833755_">
				<use xlink:href="#SVGID_00000127045225244325914800000006129291906973102776_"  style="overflow:visible;"/>
			</clipPath>
			<path style="clip-path:url(#SVGID_00000170978396540830151040000017500412610635833755_);fill:#98989A;" d="M215,13.6V3.1h2.5
				v10.4h6.4l1,2.2h-7.4v23.8c0,5.5,1.9,6,6.3,5.9l1,2.2c-5.2,0.4-10.2-0.4-9.9-8.1V15.8L215,13.6L215,13.6z"/>
		</g>
	</g>
	<g>
		<g>
			<defs>
				<rect id="SVGID_00000153700077367219035530000018269491492246161339_" y="3.1" width="225" height="45.4"/>
			</defs>
			<clipPath id="SVGID_00000151523851330035284500000009733591051813163924_">
				<use xlink:href="#SVGID_00000153700077367219035530000018269491492246161339_"  style="overflow:visible;"/>
			</clipPath>
			<path style="clip-path:url(#SVGID_00000151523851330035284500000009733591051813163924_);fill:#636569;" d="M128.9,3.1h5.6v10.3
				h5.8l1,5h-6.8v21.4c0,2.6,0.7,3.1,4.3,3.1h1.6l1,5H137c-5.8,0-8.1-1.2-8.1-7.5L128.9,3.1L128.9,3.1z"/>
		</g>
	</g>
</g>
</svg>
