<?xml version="1.0" encoding="utf-8"?>
<!-- Generator: Adobe Illustrator 25.4.1, SVG Export Plug-In . SVG Version: 6.00 Build 0)  -->
<svg version="1.1" id="Layer_1" xmlns="http://www.w3.org/2000/svg" xmlns:xlink="http://www.w3.org/1999/xlink" x="0px" y="0px"
	 viewBox="0 0 155.6 29.4" style="enable-background:new 0 0 155.6 29.4;" xml:space="preserve">
<style type="text/css">
	.st0{fill:#253B56;}
</style>
<g id="wdw">
	<path class="st0" d="M150.7,19.2c0-1.4,1.1-2.4,2.4-2.4c1.3,0,2.4,1,2.4,2.4c0,1.4-1.1,2.4-2.4,2.4
		C151.8,21.6,150.7,20.6,150.7,19.2z M153.2,21.2c1.1,0,1.9-0.8,1.9-2c0-1.1-0.9-2-1.9-2c-1.1,0-1.9,0.9-1.9,2
		C151.2,20.4,152.1,21.2,153.2,21.2z M152.7,20.6h-0.4v-2.8h1c0.6,0,1,0.2,1,0.8c0,0.5-0.3,0.7-0.7,0.8l0.8,1.2h-0.5l-0.7-1.2h-0.5
		L152.7,20.6L152.7,20.6z M153.1,19.1c0.4,0,0.7,0,0.7-0.4c0-0.3-0.3-0.4-0.6-0.4h-0.6v0.9H153.1z"/>
	<g>
		<path class="st0" d="M123.6,7.3h-3.9v0.4c0.7,0.1,1.4,0.1,1.4,0.9c0,0.4-0.2,1.1-0.3,1.5l-2.5,7l-2.6-7c-0.3-0.8-0.5-1.3-0.5-1.6
			c0-0.7,0.9-0.8,1.5-0.8V7.3h-5.3v0.4c1,0,1.3,0.1,2,1.9l0.7,1.7l-2.1,5.8l-2.8-7.8c-0.1-0.3-0.2-0.6-0.2-0.9
			c0-0.5,0.4-0.7,1.3-0.7V7.3h-4.8v0.4c1.1,0.1,1.4,0.7,2,2.4c0.7,2.1,2.8,7.9,3.8,11.1h0.3l3-8.7c0.8,2.2,2.5,6.6,3.2,8.7h0.3
			c1.2-4,2.7-8.4,4.1-12.2c0.3-0.8,0.6-1.1,1.6-1.3C123.6,7.7,123.6,7.3,123.6,7.3z"/>
		<path class="st0" d="M125.5,11.5c-2.6,0-4.3,2.2-4.3,4.8c0,2.8,1.8,4.9,4.3,4.9c3,0,4.4-2.9,4.4-4.9
			C129.9,13.3,128.1,11.5,125.5,11.5z M125.8,20.6c-2.4,0-2.8-3.8-2.8-5.3c0-2.1,1.1-3.2,2.3-3.2c1.8,0,2.8,2.2,2.8,4.8
			C128.2,19.8,126.8,20.6,125.8,20.6z"/>
		<path class="st0" d="M131.7,19.3c0,1.2-0.3,1.2-1.4,1.4V21h4.7v-0.3c-1,0-1.7-0.1-1.7-1.5v-4.6c0-0.7,0.9-1.7,1.3-1.7
			s0.7,0.7,1.4,0.7c0.5,0,0.7-0.4,0.7-0.9c0-0.7-0.4-1.1-1.1-1.1c-0.7,0-1.4,0.4-2.3,1.9h0v-1.8l-0.1,0c-1,0.4-2,0.8-2.9,1.1V13
			c0.2,0,0.4-0.1,0.7-0.1c0.3,0,0.7,0,0.7,1.2V19.3z"/>
		<path class="st0" d="M136.5,21h4.6v-0.3c-1.1-0.1-1.5-0.2-1.5-1.4V7l-0.1,0c-1,0.3-2.1,0.6-3.1,0.9v0.3c0.2,0,0.4,0,0.7,0
			c0.8,0,0.9,0.3,0.9,1.3v9.8c0,1.1-0.4,1.4-1.5,1.5L136.5,21L136.5,21z"/>
		<path class="st0" d="M150.3,19.8c-1.3,0.1-1.3-0.3-1.3-1.2V7l-0.1,0C148,7.3,147,7.6,146,7.8v0.3c0.2,0,0.4,0,0.5,0
			c0.9,0,0.9,0.4,0.9,1.1v3.2c-0.6-0.6-1.2-0.9-2.1-0.9c-2.2,0-4.1,2.4-4.1,5.1c0,4.2,2.8,4.6,3.6,4.6c1.5,0,2.2-0.8,2.5-1.3h0v1.3
			l0.1,0.1c1-0.4,2-0.7,2.9-1.1V19.8z M147.4,18.9c-0.2,0.7-0.9,1.2-1.8,1.2c-1.3,0-2.7-1.2-2.7-4.2c0-2.8,1.3-3.8,2.4-3.8
			c0.9,0,1.9,0.7,2,2.1L147.4,18.9L147.4,18.9z"/>
	</g>
	<g>
		<path class="st0" d="M39.8,13.6c0-1-0.2-2-1.1-2.4c-1.4-0.5-2.6,0.7-3.4,1.6l0,0.1l-0.1,0c-1.2-0.3-2.2-0.5-3.1-1.4
			c-0.1-0.1-0.1-0.3-0.1-0.4c0-0.1,0-0.2,0-0.2c-0.3,0.2-0.5,0.6-0.5,1c0,0,0,0,0,0c0.1,1.4,1.7,2.1,2.8,2.5l0.1,0.1L34.3,15
			c-0.2,0.5-0.3,1-0.4,1.5c-0.2,1.2-0.4,2.3-0.4,3.4c0,1.3,0.3,2.5,1,3.4c0.3,0.3,0.7,0.7,1.3,0.5c0.2-0.1,0.3-0.1,0.3-0.2
			c-0.2-2.6-0.3-5.9,0.5-8.7l0-0.1l0.1,0c0,0,0.8,0.1,1.6-0.1C39,14.7,39.5,14.3,39.8,13.6z M38.5,12.7
			C38.5,12.7,38.5,12.7,38.5,12.7c-0.4,0.2-0.8,0.3-1.3,0.2l-0.1,0v-0.1c0-0.2,0.1-0.5,0.4-0.7c0.2-0.2,0.6-0.4,0.9-0.3
			c0.2,0,0.3,0.1,0.4,0.3l0,0l0,0C39.1,12.4,38.7,12.6,38.5,12.7z"/>
		<path class="st0" d="M46,20.2c0.6,0.4,1.1,0.7,1.8,1l0.1,0l0,0.1c0.1,0.7,0.2,1.6,0.7,2.2c0.1,0.1,0.5,0.1,1.1,0
			c0.5-0.2,0.5-0.7,0.6-1.1l0-0.1l0-0.1l0.7,0.1c0.5,0.1,1.1,0.2,1.8,0.3c3.9,0.5,9.3-0.5,11.6-4.9c2-4.1-1.6-8.1-3.9-10.1
			c-0.4-0.3-1.6-1.3-2.3-1.7c-3.9-2.5-11.6-6.2-19.6-3.9c-1,0.3-1.3,1.4-1.4,1.9c0.3,0.4,0.8,0.4,1.4,0.4c0,0,0.2,0,0.3,0
			c0.1,0,0.2-0.1,0.2-0.1c0.1,0,0.2-0.1,0.2-0.1c-0.1-0.2-0.4-0.3-0.6-0.3c-0.2,0-0.4-0.1-0.6-0.2L38,3.4l0.1-0.1
			c0.1-0.1,0.3-0.2,0.5-0.2c0.1,0,0.2,0,0.3-0.1l0,0l0,0C45.3,2.1,52,3.8,57.7,7.9c2.6,1.9,5.6,5,4.6,8.8c-1,2.8-4.2,4.1-9.8,4.1
			c-0.8,0-1.5-0.1-2.3-0.4l-0.1,0l0-0.1c0-2.4,0-5.2-0.1-6.3l0-0.1l0.1,0c1.5-0.1,4.5,0.4,6.5,1.2c0.1,0.1,0.1,0.2,0.1,0.2
			c0,0,0,0,0,0c0,0.3-0.4,0.6-0.9,1c0,0-0.3,0.3-0.3,0.3c0,0,0,0,0,0c0,0,0,0,0,0c0.1,0.1,0.6,0.3,1.1,0.3c0.8-0.1,1.5-0.7,1.8-1.5
			c0-0.2,0.1-0.3,0.1-0.4c0-0.5-0.3-0.9-0.6-1.3c-2-1.7-4.7-1.7-7.3-1.8l-0.5,0l0-0.4c0-0.9-0.1-2.2-0.2-3c-0.2-0.8-0.5-1.2-1.1-1.3
			c-0.4,0.5-0.5,1.2-0.6,2L48,10.7L47.9,12l0,0.1l-2.5,0.5c-1.1,0.3-4.1,1.3-4.1,2.8c0,0.1,0,0.1,0,0.2C41.7,17.3,44.7,19.4,46,20.2
			z M41.8,15.4c0.1-0.4,0.9-0.6,1.6-0.8l0.1,0c1.2-0.3,2.6-0.5,4.3-0.6l0.1,0l0,0.1c-0.1,1.8-0.1,4-0.1,5.3l0,0.2l-0.1,0
			c-1.7-0.5-4.1-1.6-5.7-3.7C41.7,15.7,41.8,15.5,41.8,15.4z"/>
		<path class="st0" d="M75.3,20.9c1.3-0.2,3-0.7,3.4-2.2c0.2-1.3,0-2.2-0.7-2.7c-1.1-0.7-2.5-0.8-3.8-0.9c-1.1-0.1-2.2-0.2-3.2-0.6
			l0,0l-0.1-0.2c0-0.1,0.1-0.1,0.2-0.2c1.3-0.4,2.7-0.5,4-0.6c1.2-0.1,2.4-0.2,3.4-0.4c0.2,0,0.3-0.2,0.4-0.5c0.1-0.1,0.1-0.2,0-0.3
			c-0.3-0.3-0.7-0.4-1.1-0.4l-0.1,0c-2.5-0.4-5.9-0.5-8.1,1.6c-0.3,0.3-0.3,1-0.3,1.5c0.1,0.3,0.4,0.6,0.7,0.7
			c0.8,0.2,1.6,0.2,2.5,0.3c1.7,0.1,3.4,0.2,4.7,1.2c0.1,0.1,0.1,0.3,0.1,0.5c0,0.2-0.2,0.4-0.4,0.5c-1.7,0.7-3.7,1.3-5.9,0.8
			c-0.2-0.1-0.5-0.2-0.6-0.5c-0.1-0.1-0.1-0.2,0-0.4c0.7-1,1.6-0.6,2.5-0.2c0.3,0.1,0.7,0.3,1,0.3c0.5,0.1,1.6,0,2.2-0.6
			c0,0,0,0,0-0.1c0,0,0,0,0,0c-0.1-0.2-0.6-0.4-0.8-0.4c-1.7-0.5-3.6-0.8-4.9,0.1c-0.3,0.2-0.7,1-0.4,1.6
			C71.1,20.8,73.5,21.2,75.3,20.9z"/>
		<path class="st0" d="M99,21.3L99,21.3c0.9,0.1,1.5,0.1,2.7-0.4c1.9-0.9,3.9-3,4-5.4c0-1.3-0.5-2.4-1.5-3.1c-0.3-0.2-0.6-0.1-0.9,0
			c-2.1,1.2-4.6,4.1-5.2,5.3l-0.2,0c-0.1-1.3,0.5-2.4,1.1-3.4c0.5-0.9,0.9-1.7,1-2.7c0-0.1,0-0.1,0-0.1c-0.1,0-0.5,0.3-0.8,0.6l0,0
			c-1.8,2.1-3.6,4.9-2.2,7.6l0,0l0,0c-0.9,2.4-1.8,5-1.9,7.9c0,0.6,0.5,1.2,1.2,1.6l0.1,0c0.4,0.2,0.5,0.2,0.5,0.2l0,0l0,0l0,0
			C97.3,26.5,98,23.9,99,21.3L99,21.3z M100.2,18.9c0.6-1.4,2.1-3.6,3.7-5c0.1-0.1,0.2-0.1,0.2,0c0.3,0.1,0.4,1.3,0.3,1.7v0
			c-0.2,1.7-2.3,3.1-3.3,3.3c-0.3,0.1-0.5,0.1-0.8,0.1l-0.2,0L100.2,18.9z"/>
		<path class="st0" d="M83.9,15.6c-0.7-1.1-1.5-2.3-2.5-3.3c-0.1-0.1-0.1-0.1-0.2-0.1c-0.1,0-0.3,0.2-0.4,0.3
			c-0.7,1.5-1.1,3.1-1.3,5.4l0,0.3c-0.1,1-0.2,2.1,0.8,2.6c0.3,0.1,0.6,0,0.7-0.2c0.4-1.3,0.4-2.7,0.4-4.1c0,0,0-1,0-1
			c0-0.1,0.1-0.4,0.2-0.5c0,0,0.1,0,0.2,0.1c0.8,1.5,1.6,2.9,2.3,4l0,0.1c0.4,0.6,0.7,1.2,1.4,1.1c0.7-0.1,1.3-0.7,1.6-1.2
			c0.3-0.8,0.4-1.6,0.4-2.5c0-1.6-0.5-3.3-1.3-4.8l-0.1-0.2c-0.4-0.6-0.9-1.4-1.6-1.6c-0.1,0-0.1,0-0.1,0c-0.1,0.1-0.1,0.4,0,0.6
			l0.5,1.8c0.4,1.3,0.7,2.6,0.8,3.9l0,0.2c0,0.4,0.1,0.8-0.2,1.1L85.5,18l-0.1-0.1C84.8,17.2,84.3,16.4,83.9,15.6z"/>
		<path class="st0" d="M89.6,21.5c2,0.4,3.7-0.7,5.4-2c0.1-0.1,0-0.2,0-0.3c-0.1-0.3-0.3-0.7-0.4-0.7c-0.8-0.1-1.5,0-2.3,0.2
			c-0.6,0.1-1.3,0.2-1.9,0.2l-0.1,0l0-0.1c0.1-0.6,0.3-1.2,0.7-1.9l0,0l0.1,0c0.4-0.1,0.9-0.1,1.4-0.1c0.9,0,1.8,0,2.2-0.4
			c0.1-0.1,0.1-0.4,0.1-0.6c0-0.2-0.1-0.3-0.1-0.3c-0.8-0.3-1.8-0.2-2.6-0.2l-0.3,0l-0.2,0l0.2-0.6l0.3-1l0.1,0c0.8,0.1,1.5,0,2.2,0
			l0.5,0c0.6,0,1.2,0,1.5-0.4c0.1-0.2-0.4-0.9-0.7-1.2c-0.3-0.3-0.4-0.3-0.6-0.4c-1.1-0.2-3.2,0.2-5,0.5c0,0-1.2,0.2-1.2,0.2
			c0,0-0.1,0-0.1,0c0,0.1,0,0.2,0,0.3c0.1,0.5,0.5,0.6,1,0.7c0.2,0.1,0.4,0.1,0.6,0.2l0.1,0.1l-0.3,0.6c-0.1,0.4-0.3,0.8-0.5,1.1
			l0,0l-0.3,0.1c-0.3,0.1-0.5,0.1-0.5,0.4c0,0.1,0,0.2,0.1,0.3c0.1,0.1,0.1,0.3,0.1,0.5v0l-0.2,0.5c-0.3,0.7-0.6,1.4-0.4,2.1
			C88.6,20.6,89.1,21.3,89.6,21.5z"/>
		<path class="st0" d="M30.1,10.5c0,0-0.1,0-0.1,0c-1.1,0.6-1.4,1.8-1.7,2.7l-0.1,0.3c-0.4,1.3-0.8,2.8-0.8,4.2
			c0,0.7,0.1,1.4,0.4,2.1c0.2,0.6,0.8,1,1.5,1.1c1.4-0.1,3.1-1,3.6-2.6c0.1-0.3,0.1-0.7,0-0.9c0,0,0,0-0.1,0c-0.6,0-1.2,0.3-1.8,0.6
			c0,0-1,0.4-1,0.4l-0.2,0c-0.2,0.1-0.4,0.1-0.5,0c-0.1,0-0.1-0.1-0.1-0.2c-0.1-1.5,0.3-2.9,0.7-4.3l0.3-1c0.2-0.7,0.4-1.3,0.1-2
			C30.2,10.7,30.1,10.6,30.1,10.5z"/>
		<path class="st0" d="M65.7,10.2c0.1-0.1,0.2-0.3,0.3-0.4l0.1,0l0.1,0c1.5,0.6,3.3,0.2,5.1-1.2c1.1-0.9,2.4-2.1,1.9-3.6
			c-0.3-0.6-0.9-0.9-1.5-0.9h-0.1l0,0c-0.6-0.8-1.5-1.1-2.6-0.9c-1.9,0.3-4.3,1.5-5,3.7c0,0.2-0.1,0.4-0.1,0.5
			c0,0.6,0.2,1.2,0.7,1.6l0,0l0,0.1c0,0.2,0,0.4,0,0.6c0,0.4,0.1,0.8,0.4,1C65.3,10.7,65.5,10.5,65.7,10.2z M71.6,5.1
			c0.2,0.1,0.3,0.1,0.4,0.4c0.3,0.7-0.6,1.7-1.3,2.1c-1,0.5-2.3,1.1-3.9,0.9l-0.1,0l0-0.1c0.2-0.6,0.6-1,1.1-1.5
			C68.7,6.1,70.2,4.6,71.6,5.1z M65.7,5.8C65.7,5.8,65.7,5.7,65.7,5.8c0.4-0.4,1.2-1,2-1l0.3,0L67.7,5c-0.9,0.7-1.7,1.5-2.4,2.6
			l-0.1,0.2l-0.1-0.2C64.8,7,65.3,6.3,65.7,5.8z"/>
		<path class="st0" d="M24.3,10.2c-0.2,0.1-0.3,0.4-0.3,0.5v0l0,0c-1.5,1.7-2.5,3.7-3.4,5.6l0,0.1l-0.1,0c-0.4,0.1-0.7,0-1.1-0.1
			l-0.1,0l0-0.1c1.3-3.4,1.1-8.1-0.5-11.4c-1-1.9-2.7-4.2-4.7-4.7c0,0,0,0-0.1,0c0,0,0,0.1,0,0.1c0,0,0,0,0,0c0,0,0,0,0,0
			c2.6,2.3,3.9,5.6,4,9.8c-0.2,3.9-1.3,6.8-3.4,9c-1.6,1.5-3.1,2-4.6,1.5c-0.6-0.2-1.2-0.9-1.3-1.5l0-0.1l0,0c1.7-1.5,2.8-2.8,3.4-4
			c0.9-1.7,1.1-4.5-0.2-6.4c-0.3-0.3-0.8-0.5-1.3-0.5C9.6,8,8.5,8.6,7.4,9.6c-2.3,2.3-1.8,6.2-1.1,9.3l0,0.1l-0.1,0
			c-0.6,0.5-1.5,0.7-2.3,0.4c-1-0.4-1.5-1.5-1.6-2.4C1.9,12.7,3.1,8.6,5.8,5c0.3-0.4,0.6-0.7,1-1.1C7.3,3.4,7.7,3,7.9,2.4
			c0-0.1,0-0.1,0-0.1c-0.1-0.1-0.4-0.1-0.6,0C4.9,3.4,2.7,5.9,1.3,9.2c-1.7,4.4-1.7,7.7-0.2,9.9c1,1.3,2.6,1.8,4.4,1.4
			c0.4-0.1,0.8-0.2,1.2-0.4l0.1,0l0,0.1c0.6,1.2,1.8,2.2,3,2.5c2.7,0.7,4.9-0.8,6.8-2.4c1.2-1.1,2-2.5,2.6-3.7l0.1-0.1l0.1,0.1
			c0.2,0.1,0.7,0.9,0.7,1.2l0,0l-0.3,0.9c-0.2,0.4-0.3,0.8-0.4,1.3c0,0,0,0.3,0,0.3c0.1,0.6,0.1,1.3,0.8,1.5
			c0.4,0.1,0.8,0.1,0.8-0.1l0.2-0.7c0.2-0.8,0.5-1.7,0.9-2.4l0-0.1l0.1,0c1,0.1,2.5,0.1,2.7,0l0.2-0.1l-0.1,0.2c0,0.2,0.1,1,0.1,1.5
			c0.2,0.6,0.8,1.3,1.4,1.4c0,0,0,0,0,0c0,0,0.1-0.1,0.1-0.2c0-4.5-0.5-7.9-1.7-10.8C24.9,10.1,24.6,10.1,24.3,10.2z M8.4,17.3
			l0-0.2c-0.2-0.8-0.1-1.7-0.1-2.6c0,0,0-0.5,0-0.5l0.2-1c0.2-1.4,0.4-2.9,1.4-4c0.1-0.1,0.2-0.1,0.3-0.1c0.1,0,0.2,0.1,0.3,0.2l0,0
			c0.3,0.5,0.5,1.2,0.4,2.1c-0.1,2.4-0.9,4.3-2.3,5.9L8.4,17.3z M24.8,16.1c-0.5,0.2-0.9,0.3-1.6,0.2c-0.1,0-0.2,0-0.2-0.1
			c-0.1-0.1,0-0.2,0.1-0.3c0.3-0.7,0.6-1.5,1.1-2.3l0.1-0.2l0.1,0.2c0.3,0.6,0.4,1.2,0.4,1.9L24.8,16.1L24.8,16.1z"/>
		<path class="st0" d="M66.2,19.4c0,0.8,0,1.6,0.8,1.8c0.3,0.1,0.8,0,1-0.1c0,0,0.1-0.1,0.1-0.1c0.1-0.6,0.1-1.3,0.1-2
			c0-1.8-0.1-3.6-0.3-5.4l-0.1-0.8c0-0.2-0.4-0.9-0.8-1c-0.3,0-0.4,0.4-0.4,0.7c0,0,0,0,0,0c-0.3,1.7-0.4,3.6-0.4,5.5
			c0,0.4,0,0.7,0,1.1L66.2,19.4z"/>
	</g>
</g>
<g id="mdx">
</g>
</svg>
