<?xml version="1.0" encoding="utf-8"?>
<!-- Generator: Adobe Illustrator 16.0.3, SVG Export Plug-In . SVG Version: 6.00 Build 0)  -->
<!DOCTYPE svg PUBLIC "-//W3C//DTD SVG 1.1//EN" "http://www.w3.org/Graphics/SVG/1.1/DTD/svg11.dtd" [
	<!ENTITY st0 "fill:#10123A;">
]>
<svg version="1.1" id="Layer_1" xmlns="http://www.w3.org/2000/svg" xmlns:xlink="http://www.w3.org/1999/xlink" x="0px" y="0px"
	 width="124.609px" height="93.412px" viewBox="0 0 124.609 93.412" style="enable-background:new 0 0 124.609 93.412;"
	 xml:space="preserve">
<g id="Initials">
	<path style="&st0;" d="M27.689,56.48h13.439c23.282,0,23.214-33.6,0-33.6c-7.466,0-14.932,0.069-22.399,0.069l0,64.201H6.262V6.262
		h86.969V0H0v93.412h18.729h0.001h8.96l0-6.262V56.48z M27.689,31.434h13.439c11.404,0,11.472,16.834,0,16.834H27.689V31.434z"/>
	<polygon style="&st0;" points="96.988,0 96.988,43.041 73.638,43.041 73.638,23.017 64.678,23.017 64.678,70.531 73.638,70.531 
		73.638,51.321 96.988,51.321 96.988,70.531 105.88,70.531 105.88,6.262 118.347,6.262 118.347,87.15 31.446,87.15 31.446,93.412 
		124.609,93.412 124.609,0 	"/>
</g>
</svg>
