<svg aria-hidden="true" style="position: absolute; width: 0; height: 0; overflow: hidden;" version="1.1" xmlns="http://www.w3.org/2000/svg" xmlns:xlink="http://www.w3.org/1999/xlink">
<defs>
<symbol id="icon-initials" viewBox="0 0 43 32">
<path d="M9.485 19.348h4.604c7.976 0 7.952-11.51 0-11.51-2.558 0-5.115 0.024-7.673 0.024v21.993h-4.271v-27.71h29.793v-2.145h-31.938v32h9.486v-12.652zM9.485 10.768h4.604c3.907 0 3.93 5.767 0 5.767h-4.604v-5.767z"></path>
<path d="M33.225 0v14.745h-7.999v-6.86h-3.069v16.277h3.069v-6.581h7.999v6.581h3.046v-22.017h4.271v27.71h-29.77v2.145h31.915v-32z"></path>
</symbol>
<symbol id="icon-name" viewBox="0 0 125 32">
<path d="M125.401 23.992v7.895h-1.207l-4.354-5.346v5.346h-1.455v-7.895h1.207l4.354 5.346v-5.346z"></path>
<path d="M105.211 31.476c-0.647-0.35-1.155-0.835-1.523-1.455-0.369-0.621-0.553-1.314-0.553-2.081s0.184-1.46 0.553-2.081c0.368-0.62 0.876-1.105 1.523-1.455s1.372-0.524 2.177-0.524c0.805 0 1.53 0.175 2.177 0.524s1.154 0.833 1.523 1.449 0.553 1.312 0.553 2.086c0 0.775-0.184 1.47-0.553 2.087s-0.876 1.1-1.523 1.449c-0.647 0.35-1.372 0.524-2.177 0.524s-1.53-0.175-2.177-0.524zM108.809 30.359c0.421-0.237 0.752-0.568 0.992-0.992s0.361-0.901 0.361-1.427c0-0.526-0.121-1.002-0.361-1.426s-0.572-0.756-0.992-0.992c-0.421-0.237-0.895-0.355-1.421-0.355s-1 0.119-1.421 0.355-0.752 0.568-0.992 0.992c-0.24 0.425-0.361 0.901-0.361 1.426s0.121 1.002 0.361 1.427c0.241 0.425 0.571 0.755 0.992 0.992s0.895 0.355 1.421 0.355 1-0.118 1.421-0.355z"></path>
<path d="M93.436 25.232h-2.617v-1.24h6.7v1.24h-2.616v6.655h-1.467z"></path>
<path d="M83.33 27.849h1.387v3.148c-0.407 0.323-0.88 0.571-1.421 0.744-0.542 0.173-1.098 0.26-1.67 0.26-0.805 0-1.53-0.175-2.177-0.524s-1.155-0.833-1.523-1.449c-0.369-0.616-0.553-1.312-0.553-2.087 0-0.774 0.184-1.47 0.553-2.086s0.878-1.1 1.528-1.449 1.382-0.524 2.194-0.524c0.662 0 1.263 0.109 1.805 0.327s0.996 0.538 1.365 0.959l-0.925 0.902c-0.602-0.602-1.327-0.902-2.177-0.902-0.557 0-1.051 0.117-1.483 0.35s-0.771 0.56-1.015 0.981c-0.244 0.421-0.367 0.902-0.367 1.444 0 0.527 0.122 1.001 0.367 1.422s0.583 0.752 1.015 0.992c0.432 0.24 0.923 0.361 1.472 0.361 0.616 0 1.158-0.135 1.624-0.406v-2.459z"></path>
<path d="M70.629 23.992v7.895h-1.207l-4.354-5.346v5.346h-1.455v-7.895h1.207l4.353 5.346v-5.346z"></path>
<path d="M54.827 23.992h1.466v7.895h-1.466v-7.895z"></path>
<path d="M46.561 31.887l-1.613-2.312c-0.068 0.008-0.169 0.011-0.305 0.011h-1.782v2.301h-1.466v-7.895h3.248c0.684 0 1.28 0.113 1.788 0.338s0.897 0.549 1.167 0.97c0.271 0.421 0.406 0.922 0.406 1.5 0 0.594-0.145 1.105-0.434 1.534s-0.705 0.748-1.247 0.959l1.816 2.594h-1.579zM46.030 25.639c-0.331-0.271-0.816-0.406-1.455-0.406h-1.714v3.147h1.714c0.639 0 1.124-0.137 1.455-0.412s0.496-0.664 0.496-1.167-0.166-0.891-0.496-1.162z"></path>
<path d="M33.127 31.887l-1.613-2.312c-0.067 0.008-0.169 0.011-0.305 0.011h-1.782v2.301h-1.466v-7.895h3.248c0.684 0 1.28 0.113 1.788 0.338s0.897 0.549 1.168 0.97c0.271 0.421 0.406 0.922 0.406 1.5 0 0.594-0.145 1.105-0.434 1.534s-0.705 0.748-1.246 0.959l1.816 2.594h-1.579zM32.597 25.639c-0.331-0.271-0.816-0.406-1.455-0.406h-1.714v3.147h1.714c0.639 0 1.124-0.137 1.455-0.412s0.496-0.664 0.496-1.167-0.166-0.891-0.496-1.162z"></path>
<path d="M19.445 30.060h-3.948l-0.778 1.827h-1.512l3.553-7.895h1.444l3.564 7.895h-1.534l-0.789-1.827zM18.96 28.909l-1.489-3.451-1.477 3.451h2.966z"></path>
<path d="M7.015 23.992v7.895h-1.466v-3.384h-4.083v3.384h-1.466v-7.895h1.466v3.26h4.083v-3.26z"></path>
<path d="M123.103 1.915c1.532 1.277 2.297 3.034 2.297 5.273s-0.765 3.997-2.297 5.273c-1.532 1.277-3.634 1.915-6.304 1.915h-5.096v6.245h-2.946v-20.62h8.042c2.67 0 4.772 0.638 6.304 1.915zM120.982 10.619c0.981-0.795 1.473-1.939 1.473-3.432s-0.492-2.636-1.473-3.432c-0.983-0.795-2.406-1.193-4.272-1.193h-5.008v9.25h5.008c1.865 0 3.289-0.398 4.272-1.193z"></path>
<path d="M97.858 0h2.946v20.62h-2.946v-20.62z"></path>
<path d="M59.328 0h2.946v18.057h11.164v2.563h-14.11z"></path>
<path d="M78.593 0h2.946v18.057h11.164v2.563h-14.11z"></path>
<path d="M48.428 0h2.946v20.62h-2.946v-20.62z"></path>
<path d="M40.475 0v20.62h-2.946v-9.191h-11.842v9.191h-2.946v-20.62h2.946v8.867h11.842v-8.867z"></path>
<path d="M14.346 1.915c1.532 1.277 2.298 3.034 2.298 5.273s-0.766 3.997-2.298 5.273c-1.532 1.277-3.633 1.915-6.304 1.915h-5.096v6.245h-2.946v-20.62h8.042c2.67 0 4.772 0.638 6.304 1.915zM12.225 10.619c0.982-0.795 1.473-1.939 1.473-3.432s-0.491-2.636-1.473-3.432c-0.982-0.795-2.406-1.193-4.271-1.193h-5.008v9.25h5.008c1.865 0 3.289-0.398 4.271-1.193z"></path>
</symbol>
<symbol id="icon-name-initials" viewBox="0 0 175 32">
<path d="M174.57 23.992v7.895h-1.207l-4.354-5.346v5.346h-1.455v-7.895h1.207l4.354 5.346v-5.346z"></path>
<path d="M154.381 31.476c-0.647-0.35-1.155-0.835-1.523-1.455-0.369-0.621-0.553-1.314-0.553-2.081s0.184-1.46 0.553-2.081c0.368-0.62 0.876-1.105 1.523-1.455s1.372-0.524 2.177-0.524c0.805 0 1.53 0.175 2.177 0.524s1.154 0.833 1.523 1.449 0.553 1.312 0.553 2.086c0 0.775-0.184 1.47-0.553 2.087s-0.876 1.1-1.523 1.449c-0.647 0.35-1.372 0.524-2.177 0.524s-1.53-0.175-2.177-0.524zM157.978 30.359c0.421-0.237 0.752-0.568 0.992-0.992s0.361-0.901 0.361-1.427c0-0.526-0.121-1.002-0.361-1.426s-0.572-0.756-0.992-0.992c-0.421-0.237-0.895-0.355-1.421-0.355s-1 0.119-1.421 0.355-0.752 0.568-0.992 0.992c-0.24 0.425-0.361 0.901-0.361 1.426s0.121 1.002 0.361 1.427c0.241 0.425 0.571 0.755 0.992 0.992s0.895 0.355 1.421 0.355 1-0.118 1.421-0.355z"></path>
<path d="M142.605 25.232h-2.617v-1.24h6.7v1.24h-2.617v6.655h-1.467z"></path>
<path d="M132.5 27.849h1.387v3.148c-0.407 0.323-0.88 0.571-1.421 0.744-0.542 0.173-1.098 0.26-1.67 0.26-0.805 0-1.53-0.175-2.177-0.524s-1.155-0.833-1.523-1.449c-0.369-0.616-0.553-1.312-0.553-2.087 0-0.774 0.184-1.47 0.553-2.086s0.878-1.1 1.528-1.449 1.382-0.524 2.194-0.524c0.661 0 1.263 0.109 1.805 0.327s0.996 0.538 1.365 0.959l-0.925 0.902c-0.602-0.602-1.327-0.902-2.177-0.902-0.557 0-1.051 0.117-1.483 0.35s-0.771 0.56-1.015 0.981c-0.244 0.421-0.367 0.902-0.367 1.444 0 0.527 0.122 1.001 0.367 1.422s0.583 0.752 1.015 0.992c0.432 0.24 0.923 0.361 1.472 0.361 0.616 0 1.158-0.135 1.624-0.406v-2.459z"></path>
<path d="M119.799 23.992v7.895h-1.207l-4.354-5.346v5.346h-1.455v-7.895h1.207l4.353 5.346v-5.346z"></path>
<path d="M103.997 23.992h1.466v7.895h-1.466v-7.895z"></path>
<path d="M95.73 31.887l-1.613-2.312c-0.067 0.008-0.169 0.011-0.305 0.011h-1.782v2.301h-1.466v-7.895h3.248c0.684 0 1.28 0.113 1.788 0.338s0.897 0.549 1.167 0.97c0.271 0.421 0.406 0.922 0.406 1.5 0 0.594-0.145 1.105-0.434 1.534s-0.705 0.748-1.247 0.959l1.816 2.594h-1.579zM95.2 25.639c-0.331-0.271-0.816-0.406-1.455-0.406h-1.714v3.147h1.714c0.639 0 1.124-0.137 1.455-0.412s0.496-0.664 0.496-1.167-0.165-0.891-0.496-1.162z"></path>
<path d="M82.296 31.887l-1.613-2.312c-0.067 0.008-0.169 0.011-0.305 0.011h-1.782v2.301h-1.466v-7.895h3.248c0.684 0 1.28 0.113 1.788 0.338s0.897 0.549 1.168 0.97c0.271 0.421 0.406 0.922 0.406 1.5 0 0.594-0.145 1.105-0.434 1.534s-0.705 0.748-1.246 0.959l1.816 2.594h-1.579zM81.767 25.639c-0.331-0.271-0.816-0.406-1.455-0.406h-1.714v3.147h1.714c0.639 0 1.124-0.137 1.455-0.412s0.496-0.664 0.496-1.167-0.166-0.891-0.496-1.162z"></path>
<path d="M68.615 30.060h-3.948l-0.778 1.827h-1.512l3.553-7.895h1.444l3.564 7.895h-1.534l-0.789-1.827zM68.13 28.909l-1.489-3.451-1.478 3.451h2.966z"></path>
<path d="M56.185 23.992v7.895h-1.466v-3.384h-4.083v3.384h-1.466v-7.895h1.466v3.26h4.083v-3.26z"></path>
<path d="M172.273 1.915c1.532 1.277 2.297 3.034 2.297 5.273s-0.765 3.997-2.297 5.273c-1.532 1.277-3.634 1.915-6.304 1.915h-5.096v6.245h-2.946v-20.62h8.042c2.67 0 4.772 0.638 6.304 1.915zM170.152 10.619c0.981-0.795 1.473-1.939 1.473-3.432s-0.492-2.636-1.473-3.432c-0.982-0.795-2.406-1.193-4.272-1.193h-5.008v9.25h5.008c1.866 0 3.289-0.398 4.272-1.193z"></path>
<path d="M147.028 0h2.946v20.62h-2.946v-20.62z"></path>
<path d="M108.498 0h2.946v18.057h11.164v2.563h-14.11z"></path>
<path d="M127.763 0h2.946v18.057h11.164v2.563h-14.11z"></path>
<path d="M97.598 0h2.946v20.62h-2.946v-20.62z"></path>
<path d="M89.645 0v20.62h-2.946v-9.191h-11.842v9.191h-2.946v-20.62h2.946v8.867h11.842v-8.867z"></path>
<path d="M63.516 1.915c1.532 1.277 2.298 3.034 2.298 5.273s-0.766 3.997-2.298 5.273c-1.532 1.277-3.633 1.915-6.304 1.915h-5.096v6.245h-2.946v-20.62h8.042c2.67 0 4.772 0.638 6.304 1.915zM61.395 10.619c0.982-0.795 1.473-1.939 1.473-3.432s-0.491-2.636-1.473-3.432c-0.982-0.795-2.406-1.193-4.271-1.193h-5.008v9.25h5.008c1.865 0 3.289-0.398 4.271-1.193z"></path>
<path d="M9.485 19.348h4.604c7.976 0 7.952-11.51 0-11.51-2.558 0-5.115 0.024-7.673 0.024v21.993h-4.271v-27.71h29.793v-2.145h-31.938v32h9.486v-12.652zM9.485 10.768h4.604c3.907 0 3.93 5.767 0 5.767h-4.604v-5.767z"></path>
<path d="M33.225 0v14.745h-7.999v-6.86h-3.069v16.277h3.069v-6.581h7.999v6.581h3.046v-22.017h4.271v27.71h-29.77v2.145h31.915v-32z"></path>
</symbol>
</defs>
</svg>
