<?xml version="1.0" encoding="UTF-8"?> <svg xmlns="http://www.w3.org/2000/svg" id="Layer_1" data-name="Layer 1" viewBox="0 0 185.14 185.36"><defs><style>.cls-1{fill:#212e59;}.cls-1,.cls-2,.cls-3{fill-rule:evenodd;}.cls-2{fill:#fff;}.cls-3{fill:#d5514c;}</style></defs><path class="cls-1" d="M92.57,185.36a92.68,92.68,0,1,1,92.57-92.68,92.72,92.72,0,0,1-92.57,92.68"></path><g id="Glyph"><path id="Fill-6" class="cls-2" d="M92.57,32.3a60.39,60.39,0,1,0,60.31,60.38A60.41,60.41,0,0,0,92.57,32.3m0,136.23a75.85,75.85,0,1,1,75.76-75.85,75.88,75.88,0,0,1-75.76,75.85"></path><polyline id="Fill-14" class="cls-3" points="73.34 124.55 63.95 91.8 51.62 124.55"></polyline><polyline id="Fill-8" class="cls-2" points="81.14 46.1 104 46.1 92.57 69.77 81.14 46.1"></polyline><polyline id="Fill-9" class="cls-3" points="121.19 91.8 104 46.1 92.57 69.77 121.19 91.8"></polyline><polyline id="Fill-10" class="cls-2" points="111.79 124.55 92.57 69.77 121.19 91.8 111.79 124.55"></polyline><polyline id="Fill-11" class="cls-3" points="111.79 124.55 121.19 91.8 133.51 124.55"></polyline><polyline id="Fill-12" class="cls-3" points="63.95 91.8 81.14 46.1 92.57 69.77 63.95 91.8"></polyline><polyline id="Fill-13" class="cls-2" points="73.34 124.55 92.57 69.77 63.95 91.8 73.34 124.55"></polyline></g></svg> 