<svg xmlns="http://www.w3.org/2000/svg" xmlns:xlink="http://www.w3.org/1999/xlink" version="1.1" width="256" height="256" viewBox="0 0 256 256" xml:space="preserve">

<defs>
</defs>
<g style="stroke: none; stroke-width: 0; stroke-dasharray: none; stroke-linecap: butt; stroke-linejoin: miter; stroke-miterlimit: 10; fill: none; fill-rule: nonzero; opacity: 1;" transform="translate(1.4065934065934016 1.4065934065934016) scale(2.81 2.81)" >
	<path d="M 20.725 36.82 c -2.722 0 -5.315 0.539 -7.697 1.493 c 1.889 -6.507 4.872 -13.213 8.997 -19.695 c 1.552 -2.439 3.218 -4.716 4.941 -6.887 c -6.678 3.58 -13.313 9.753 -18.499 17.903 C 2.64 38.79 -0.159 48.546 0.042 56.721 C 0.031 56.996 0 57.266 0 57.544 c 0 3.88 1.086 7.497 2.941 10.602 c 0.001 0.002 0.003 0.005 0.004 0.007 c 3.619 6.051 10.216 10.116 17.78 10.116 c 11.446 0 20.725 -9.279 20.725 -20.725 C 41.449 46.098 32.17 36.82 20.725 36.82 z" style="stroke: none; stroke-width: 1; stroke-dasharray: none; stroke-linecap: butt; stroke-linejoin: miter; stroke-miterlimit: 10; fill: rgb(128 142 189); fill-rule: nonzero; opacity: 1;" transform=" matrix(1 0 0 1 0 0) " stroke-linecap="round" />
	<path d="M 69.275 36.82 c -2.722 0 -5.315 0.539 -7.697 1.493 c 1.889 -6.507 4.872 -13.213 8.997 -19.695 c 1.552 -2.439 3.218 -4.716 4.941 -6.887 c -6.678 3.58 -13.313 9.753 -18.499 17.903 c -5.826 9.156 -8.625 18.912 -8.425 27.087 c -0.011 0.275 -0.042 0.546 -0.042 0.824 c 0 3.88 1.086 7.497 2.941 10.602 c 0.001 0.002 0.003 0.005 0.004 0.007 c 3.619 6.051 10.216 10.116 17.78 10.116 C 80.721 78.269 90 68.99 90 57.544 C 90 46.098 80.721 36.82 69.275 36.82 z" style="stroke: none; stroke-width: 1; stroke-dasharray: none; stroke-linecap: butt; stroke-linejoin: miter; stroke-miterlimit: 10; fill: rgb(128 142 189); fill-rule: nonzero; opacity: 1;" transform=" matrix(1 0 0 1 0 0) " stroke-linecap="round" />
</g>
</svg>
