<?xml version="1.0" encoding="UTF-8"?><svg id="Layer_1" xmlns="http://www.w3.org/2000/svg" viewBox="0 0 2794.12 500"><defs><style>.cls-1{fill:#10113a;}.cls-1,.cls-2{stroke-width:0px;}.cls-2{fill:#10123a;}</style></defs><g id="Layer_1-2"><g id="Name"><polygon class="cls-1" points="2794.12 374.33 2794.12 497.86 2775.4 497.86 2707.49 414.44 2707.49 497.86 2684.49 497.86 2684.49 374.33 2703.21 374.33 2771.66 457.75 2771.66 374.33 2794.12 374.33"/><path class="cls-1" d="M2479.14,491.44c-10.16-5.35-18.18-12.83-23.53-22.46-5.88-9.63-8.56-20.32-8.56-32.62s2.67-22.99,8.56-32.62c5.88-9.63,13.9-17.11,23.53-22.46s21.39-8.02,34.22-8.02,24.06,2.67,34.22,8.02,18.18,12.83,23.53,22.46c5.88,9.63,8.56,20.32,8.56,32.62s-2.67,22.99-8.56,32.62c-5.88,9.63-13.9,17.11-23.53,22.46-10.16,5.35-21.39,8.02-34.22,8.02s-24.06-2.67-34.22-8.02M2535.29,473.8c6.42-3.74,11.76-9.09,15.51-15.51s5.88-13.9,5.88-22.46c0-8.02-2.14-15.51-5.88-22.46s-9.09-11.76-15.51-15.51c-6.42-3.74-13.9-5.35-21.93-5.35s-15.51,1.6-21.93,5.35c-6.42,3.74-11.76,9.09-15.51,15.51-3.74,6.42-5.88,13.9-5.88,22.46,0,8.02,2.14,15.51,5.88,22.46,3.74,6.42,9.09,11.76,15.51,15.51,6.42,3.74,13.9,5.35,21.93,5.35s14.97-1.6,21.93-5.35"/><polygon class="cls-1" points="2295.19 394.12 2254.55 394.12 2254.55 374.33 2358.82 374.33 2358.82 394.12 2318.18 394.12 2318.18 497.86 2295.19 497.86 2295.19 394.12"/><path class="cls-1" d="M2137.43,434.76h21.39v49.2c-6.42,4.81-13.9,9.09-21.93,11.76-8.56,2.67-17.11,4.28-26.2,4.28-12.3,0-24.06-2.67-34.22-8.02s-18.18-12.83-23.53-22.46c-5.88-9.63-8.56-20.32-8.56-32.62s2.67-22.99,8.56-32.62c5.88-9.63,13.9-17.11,24.06-22.46,10.16-5.35,21.39-8.02,34.22-8.02,10.16,0,19.79,1.6,28.34,5.35,8.56,3.21,15.51,8.56,21.39,14.97l-14.44,13.9c-9.63-9.63-20.86-13.9-34.22-13.9-8.56,0-16.58,1.6-22.99,5.35-6.95,3.74-11.76,8.56-16.04,15.51-3.74,6.42-5.88,13.9-5.88,22.46,0,8.02,2.14,15.51,5.88,22.46,3.74,6.42,9.09,11.76,16.04,15.51,6.95,3.74,14.44,5.88,22.99,5.88,9.63,0,18.18-2.14,25.13-6.42v-40.11h0Z"/><polygon class="cls-1" points="1939.04 374.33 1939.04 497.86 1920.32 497.86 1852.41 414.44 1852.41 497.86 1829.41 497.86 1829.41 374.33 1848.66 374.33 1916.58 457.75 1916.58 374.33 1939.04 374.33"/><rect class="cls-1" x="1692.51" y="374.33" width="22.99" height="122.99"/><path class="cls-1" d="M1563.64,497.86l-25.13-35.83h-32.62v35.83h-22.99v-123.53h50.8c10.7,0,19.79,1.6,27.81,5.35,8.02,3.74,13.9,8.56,18.18,14.97,4.28,6.42,6.42,14.44,6.42,23.53s-2.14,17.11-6.95,24.06c-4.28,6.95-11.23,11.76-19.25,14.97l28.34,40.64s-24.6,0-24.6,0ZM1555.08,400c-5.35-4.28-12.83-6.42-22.46-6.42h-26.74v49.2h26.74c10.16,0,17.65-2.14,22.46-6.42,5.35-4.28,7.49-10.16,7.49-18.18s-2.14-13.9-7.49-18.18"/><path class="cls-1" d="M1353.48,497.86l-25.13-35.83h-32.62v35.83h-22.99v-123.53h50.8c10.7,0,19.79,1.6,27.81,5.35,8.02,3.74,13.9,8.56,18.18,14.97,4.28,6.42,6.42,14.44,6.42,23.53s-2.14,17.11-6.95,24.06c-4.28,6.95-11.23,11.76-19.25,14.97l28.34,40.64s-24.6,0-24.6,0ZM1345.45,400c-5.35-4.28-12.83-6.42-22.46-6.42h-26.74v49.2h26.74c10.16,0,17.65-2.14,22.46-6.42,5.35-4.28,7.49-10.16,7.49-18.18s-2.14-13.9-7.49-18.18"/><path class="cls-1" d="M1140.11,468.98h-61.5l-12.3,28.34h-23.53l55.61-122.99h22.46l55.62,122.99h-24.06l-12.3-28.34ZM1132.62,451.34l-22.99-54.01-22.99,54.01h45.99Z"/><polygon class="cls-1" points="945.99 374.33 945.99 497.86 922.99 497.86 922.99 444.92 859.36 444.92 859.36 497.86 836.36 497.86 836.36 374.33 859.36 374.33 859.36 425.67 922.99 425.67 922.99 374.33 945.99 374.33"/><path class="cls-1" d="M2758.29,29.95c24.06,19.79,35.83,47.59,35.83,82.35s-11.76,62.57-35.83,82.35c-24.06,19.79-56.68,29.95-98.4,29.95h-79.68v97.33h-45.99V0h125.67c41.71,0,74.33,10.16,98.4,29.95M2725.13,165.78c15.51-12.3,22.99-30.48,22.99-53.48s-7.49-41.18-22.99-53.48c-15.51-12.3-37.43-18.72-66.84-18.72h-78.07v144.39h78.07c29.41,0,51.34-6.42,66.84-18.72"/><rect class="cls-1" x="2364.17" width="45.99" height="321.93"/><polygon class="cls-1" points="1762.57 0 1808.56 0 1808.56 281.82 1982.89 281.82 1982.89 321.93 1762.57 321.93 1762.57 0"/><polygon class="cls-1" points="2063.64 0 2109.63 0 2109.63 281.82 2283.96 281.82 2283.96 321.93 2063.64 321.93 2063.64 0"/><rect class="cls-1" x="1592.51" width="45.99" height="321.93"/><polygon class="cls-1" points="1468.45 0 1468.45 321.93 1422.46 321.93 1422.46 178.61 1237.43 178.61 1237.43 321.93 1191.44 321.93 1191.44 0 1237.43 0 1237.43 138.5 1422.46 138.5 1422.46 0 1468.45 0"/><path class="cls-1" d="M1060.43,29.95c24.06,19.79,35.83,47.59,35.83,82.35s-11.76,62.57-35.83,82.35-56.68,29.95-98.4,29.95h-79.68v97.33h-45.99V0h125.67c41.71,0,74.33,10.16,98.4,29.95M1027.27,165.78c15.51-12.3,22.99-30.48,22.99-53.48s-7.49-41.18-22.99-53.48c-15.51-12.3-37.43-18.72-66.84-18.72h-78.07v144.39h78.07c29.41,0,51.87-6.42,66.84-18.72"/></g><g id="Initials"><path class="cls-2" d="M148.13,302.14h71.66c124.6,0,124.06-179.68,0-179.68-40.11,0-79.68.53-119.79.53v343.32H33.69V33.69h465.24V0H0v499.47h148.13v-197.33h0ZM148.13,167.91h71.66c60.96,0,61.5,89.84,0,89.84h-71.66v-89.84Z"/><polygon class="cls-2" points="518.72 0 518.72 229.95 393.58 229.95 393.58 122.99 345.99 122.99 345.99 377.01 393.58 377.01 393.58 274.33 518.72 274.33 518.72 377.01 566.31 377.01 566.31 33.69 632.62 33.69 632.62 466.31 167.91 466.31 167.91 499.47 666.31 499.47 666.31 0 518.72 0"/></g></g></svg>