<?xml version="1.0" encoding="utf-8"?>
<!-- Generator: Adobe Illustrator 16.0.3, SVG Export Plug-In . SVG Version: 6.00 Build 0)  -->
<!DOCTYPE svg PUBLIC "-//W3C//DTD SVG 1.1//EN" "http://www.w3.org/Graphics/SVG/1.1/DTD/svg11.dtd" [
	<!ENTITY st0 "fill:#10113A;">
]>
<svg version="1.1" id="Layer_1" xmlns="http://www.w3.org/2000/svg" xmlns:xlink="http://www.w3.org/1999/xlink" x="0px" y="0px"
	 width="366.06px" height="93.412px" viewBox="0 0 366.06 93.412" style="enable-background:new 0 0 366.06 93.412;"
	 xml:space="preserve">
<g id="Name">
	<polygon style="&st0;" points="366.06,70.035 366.06,93.082 362.538,93.082 349.828,77.477 349.828,93.082 345.581,93.082 
		345.581,70.035 349.104,70.035 361.813,85.641 361.813,70.035 	"/>
	<path style="&st0;" d="M307.125,91.881c-1.889-1.021-3.371-2.438-4.445-4.247c-1.076-1.812-1.614-3.836-1.614-6.076
		c0-2.238,0.538-4.263,1.614-6.074c1.074-1.81,2.557-3.226,4.445-4.247c1.888-1.021,4.005-1.531,6.354-1.531
		c2.35,0,4.467,0.511,6.354,1.531c1.888,1.021,3.369,2.432,4.445,4.231c1.076,1.799,1.613,3.83,1.613,6.09
		c0,2.263-0.537,4.292-1.613,6.092c-1.076,1.801-2.558,3.21-4.445,4.231c-1.888,1.021-4.005,1.531-6.354,1.531
		C311.129,93.412,309.012,92.901,307.125,91.881 M317.626,88.621c1.229-0.692,2.195-1.657,2.897-2.897s1.055-2.629,1.055-4.166
		c0-1.535-0.353-2.924-1.055-4.164s-1.669-2.206-2.897-2.897c-1.229-0.691-2.612-1.037-4.148-1.037s-2.919,0.346-4.148,1.037
		s-2.194,1.657-2.897,2.897c-0.702,1.24-1.054,2.629-1.054,4.164c0,1.537,0.352,2.926,1.054,4.166
		c0.703,1.24,1.668,2.205,2.897,2.897c1.229,0.691,2.612,1.037,4.148,1.037S316.397,89.313,317.626,88.621"/>
	<polygon style="&st0;" points="272.75,73.656 265.112,73.656 265.112,70.035 284.669,70.035 284.669,73.656 277.032,73.656 
		277.032,93.082 272.75,93.082 	"/>
	<path style="&st0;" d="M243.25,81.295h4.05v9.188c-1.187,0.943-2.569,1.667-4.148,2.172c-1.582,0.504-3.205,0.758-4.874,0.758
		c-2.349,0-4.466-0.511-6.354-1.531c-1.889-1.021-3.371-2.431-4.445-4.231c-1.076-1.799-1.613-3.829-1.613-6.092
		c0-2.26,0.537-4.29,1.613-6.09c1.074-1.8,2.563-3.21,4.461-4.231c1.898-1.021,4.034-1.531,6.404-1.531
		c1.931,0,3.687,0.319,5.268,0.955c1.581,0.637,2.908,1.569,3.984,2.799l-2.699,2.634c-1.757-1.756-3.875-2.634-6.354-2.634
		c-1.625,0-3.068,0.341-4.33,1.021c-1.263,0.681-2.25,1.636-2.964,2.864c-0.713,1.229-1.07,2.634-1.07,4.214
		c0,1.537,0.357,2.921,1.07,4.15c0.714,1.229,1.701,2.194,2.964,2.896c1.262,0.702,2.694,1.054,4.297,1.054
		c1.799,0,3.379-0.395,4.741-1.186V81.295z"/>
	<polygon style="&st0;" points="206.176,70.035 206.176,93.082 202.654,93.082 189.944,77.477 189.944,93.082 185.698,93.082 
		185.698,70.035 189.22,70.035 201.928,85.641 201.928,70.035 	"/>
	<rect x="160.048" y="70.035" style="&st0;" width="4.28" height="23.047"/>
	<path style="&st0;" d="M135.916,93.082l-4.709-6.749c-0.197,0.022-0.493,0.033-0.889,0.033h-5.202v6.716h-4.28V70.035h9.482
		c1.997,0,3.737,0.329,5.219,0.987s2.617,1.603,3.407,2.831c0.79,1.23,1.186,2.69,1.186,4.38c0,1.733-0.423,3.226-1.268,4.478
		c-0.845,1.251-2.058,2.185-3.639,2.799l5.302,7.572H135.916z M134.368,74.842c-0.966-0.79-2.382-1.186-4.248-1.186h-5.004v9.187
		h5.004c1.866,0,3.282-0.4,4.248-1.202c0.966-0.801,1.449-1.937,1.449-3.407S135.333,75.632,134.368,74.842"/>
	<path style="&st0;" d="M96.701,93.082l-4.708-6.749c-0.197,0.022-0.494,0.033-0.889,0.033h-5.202v6.716h-4.28V70.035h9.482
		c1.997,0,3.737,0.329,5.218,0.987c1.482,0.658,2.618,1.603,3.409,2.831c0.79,1.23,1.185,2.69,1.185,4.38
		c0,1.733-0.423,3.226-1.268,4.478c-0.845,1.251-2.058,2.185-3.638,2.799l5.301,7.572H96.701z M95.154,74.842
		c-0.966-0.79-2.382-1.186-4.248-1.186h-5.004v9.187h5.004c1.866,0,3.282-0.4,4.248-1.202c0.965-0.801,1.449-1.937,1.449-3.407
		S96.119,75.632,95.154,74.842"/>
	<path style="&st0;" d="M56.763,87.749H45.239l-2.271,5.333h-4.413l10.372-23.046h4.214l10.404,23.046h-4.479L56.763,87.749z
		 M55.347,84.39l-4.346-10.075L46.688,84.39H55.347z"/>
	<polygon style="&st0;" points="20.479,70.035 20.479,93.082 16.199,93.082 16.199,83.205 4.28,83.205 4.28,93.082 0,93.082 
		0,70.035 4.28,70.035 4.28,79.551 16.199,79.551 16.199,70.035 	"/>
	<path style="&st0;" d="M359.354,5.589c4.471,3.727,6.705,8.856,6.705,15.392c0,6.536-2.234,11.667-6.705,15.392
		c-4.472,3.728-10.607,5.591-18.402,5.591h-14.876v18.229h-8.601V0h23.477C348.747,0,354.882,1.862,359.354,5.589 M353.163,30.999
		c2.865-2.321,4.3-5.66,4.3-10.018c0-4.356-1.435-7.696-4.3-10.017c-2.868-2.322-7.023-3.484-12.469-3.484h-14.618v27.002h14.618
		C346.139,34.482,350.294,33.321,353.163,30.999"/>
	<rect x="285.661" style="&st0;" width="8.6" height="60.193"/>
	<polygon style="&st0;" points="173.185,0 181.785,0 181.785,52.712 214.374,52.712 214.374,60.193 173.185,60.193 	"/>
	<polygon style="&st0;" points="229.422,0 238.022,0 238.022,52.712 270.612,52.712 270.612,60.193 229.422,60.193 	"/>
	<rect x="141.368" style="&st0;" width="8.6" height="60.193"/>
	<polygon style="&st0;" points="118.151,0 118.151,60.193 109.552,60.193 109.552,33.364 74.984,33.364 74.984,60.193 
		66.384,60.193 66.384,0 74.984,0 74.984,25.883 109.552,25.883 109.552,0 	"/>
	<path style="&st0;" d="M41.877,5.589c4.472,3.727,6.708,8.856,6.708,15.392c0,6.536-2.236,11.667-6.708,15.392
		c-4.471,3.728-10.606,5.591-18.401,5.591H8.599v18.229H0V0h23.476C31.271,0,37.406,1.862,41.877,5.589 M35.686,30.999
		c2.866-2.321,4.3-5.66,4.3-10.018c0-4.356-1.434-7.696-4.3-10.017C32.819,8.642,28.663,7.48,23.218,7.48H8.599v27.002h14.619
		C28.663,34.482,32.819,33.321,35.686,30.999"/>
</g>
</svg>
