<?xml version="1.0" encoding="utf-8"?>
<!-- Generator: Adobe Illustrator 24.1.2, SVG Export Plug-In . SVG Version: 6.00 Build 0)  -->
<svg version="1.1" id="Layer_1" xmlns="http://www.w3.org/2000/svg" xmlns:xlink="http://www.w3.org/1999/xlink" x="0px" y="0px"
	 viewBox="0 0 243.4 49.1" style="enable-background:new 0 0 243.4 49.1;" xml:space="preserve">
<style type="text/css">
	.st0{clip-path:url(#SVGID_2_);fill:#636569;}
	.st1{clip-path:url(#SVGID_2_);fill:#98989A;}
	.st2{clip-path:url(#SVGID_2_);fill:#9C182F;}
</style>
<g>
	<defs>
		<rect id="SVGID_1_" width="243.4" height="49.1"/>
	</defs>
	<clipPath id="SVGID_2_">
		<use xlink:href="#SVGID_1_"  style="overflow:visible;"/>
	</clipPath>
	<path class="st0" d="M0,0h6.1v11.1h6.3l1.1,5.4H6.1v23.1c0,2.8,0.8,3.3,4.6,3.3l1.7,0l1.1,5.4H8.8C2.5,48.3,0,47,0,40.2V0z"/>
	<path class="st0" d="M40.8,29.8c-2.3,1.7-6.7,1.7-10.7,2.4c-3.9,0.7-7.2,2.1-7.2,6.4c0,3.9,3.3,5.3,6.9,5.3c7.8,0,11-4.9,11-8.1
		V29.8z M41.2,48.2v-4.6c-3.3,3.8-7.6,5.5-12.6,5.5c-6.5,0-11.9-2.9-11.9-10.1c0-8.1,6-9.8,12.1-11c6.5-1.2,12.1-0.8,12.1-5.3
		c0-5.1-4.2-6-8-6c-5,0-8.7,1.5-8.9,6.8h-5.9c0.3-8.9,7.2-12,15.2-12c6.4,0,13.5,1.5,13.5,9.8v26.8H41.2z"/>
	<rect x="52.7" y="0" class="st0" width="6.1" height="48.3"/>
	<path class="st0" d="M91.4,27c-0.3-5.6-4.5-10.1-10.3-10.1c-6.2,0-9.8,4.6-10.3,10.1H91.4z M97.1,36.9c-1.6,7.9-7.3,12.2-15.3,12.2
		c-11.4,0-16.8-7.9-17.2-18.9c0-10.7,7.1-18.6,16.8-18.6c12.7,0,16.6,11.9,16.2,20.5H70.8c-0.2,6.2,3.3,11.8,11.2,11.8
		c4.9,0,8.3-2.4,9.3-7H97.1z"/>
	<path class="st0" d="M103,11.1h5.7V17h0.1c2.6-4.6,6.8-6.8,12.1-6.8c9.8,0,12.8,5.6,12.8,13.6v24.4h-6.1V23.1
		c0-4.5-2.9-7.5-7.5-7.5c-7.4,0-11,5-11,11.6v21H103V11.1z"/>
	<rect x="158.5" y="42.9" class="st1" width="8.5" height="5.4"/>
	<rect x="183.4" y="42.9" class="st1" width="8.5" height="5.4"/>
	<path class="st2" d="M167.1,40.1h-8.5V26.6c0-9.2,7.5-16.7,16.7-16.7c9.2,0,16.7,7.5,16.7,16.7v13.5h-8.6V26.6
		c0-4.5-3.7-8.2-8.2-8.2c-4.5,0-8.2,3.7-8.2,8.2V40.1z"/>
	<path class="st1" d="M225.4,28.7c-0.1-7.4-4.8-14.3-13-14.3c-7.9,0-12.5,7.3-13,14.3H225.4z M199.4,30.9c-0.1,8.3,4.3,15.9,13,15.9
		c6.7,0,11.4-4,12.7-10.5h2.6c-1.4,8.3-6.9,12.8-15.3,12.8c-10.3,0-15.8-8.1-15.6-17.9c-0.1-9.7,5-19.2,15.6-19.2
		c11.1,0,16.1,8.8,15.6,18.9H199.4z"/>
	<path class="st1" d="M232.6,11.4V0h2.7v11.3h6.9l1.1,2.4h-8v25.8c0,6,2.1,6.5,6.8,6.4l1.1,2.4c-5.6,0.4-11-0.4-10.7-8.8V13.7V11.4z
		"/>
	<path class="st0" d="M139.4,0h6.1v11.1h6.3l1.1,5.4h-7.4v23.1c0,2.8,0.8,3.3,4.6,3.3l1.7,0l1.1,5.4h-4.7c-6.3,0-8.8-1.3-8.8-8.1V0z
		"/>
</g>
</svg>
