<?xml version="1.0" encoding="UTF-8" standalone="no"?>
<svg
   xmlns:dc="http://purl.org/dc/elements/1.1/"
   xmlns:cc="http://creativecommons.org/ns#"
   xmlns:rdf="http://www.w3.org/1999/02/22-rdf-syntax-ns#"
   xmlns:svg="http://www.w3.org/2000/svg"
   xmlns="http://www.w3.org/2000/svg"
   xmlns:sodipodi="http://sodipodi.sourceforge.net/DTD/sodipodi-0.dtd"
   xmlns:inkscape="http://www.inkscape.org/namespaces/inkscape"
   version="1.1"
   x="0px"
   y="0px"
   viewBox="0 0 155.568 29.353"
   enable-background="new 0 0 155.568 29.353"
   xml:space="preserve"
   id="svg40"
   sodipodi:docname="download.svg"
   inkscape:version="0.92.1 r15371"><metadata
     id="metadata46"><rdf:RDF><cc:Work
         rdf:about=""><dc:format>image/svg+xml</dc:format><dc:type
           rdf:resource="http://purl.org/dc/dcmitype/StillImage" /></cc:Work></rdf:RDF></metadata><defs
     id="defs44" /><sodipodi:namedview
     pagecolor="#ffffff"
     bordercolor="#666666"
     borderopacity="1"
     objecttolerance="10"
     gridtolerance="10"
     guidetolerance="10"
     inkscape:pageopacity="0"
     inkscape:pageshadow="2"
     inkscape:window-width="1920"
     inkscape:window-height="1001"
     id="namedview42"
     showgrid="false"
     inkscape:zoom="2.8347733"
     inkscape:cx="77.783997"
     inkscape:cy="14.6765"
     inkscape:window-x="-9"
     inkscape:window-y="-9"
     inkscape:window-maximized="1"
     inkscape:current-layer="svg40" /><path
     style="fill:#253b56"
     inkscape:connector-curvature="0"
     id="path2"
     d="m 150.729,19.247 c 0,-1.372 1.113,-2.382 2.428,-2.382 1.299,0 2.41,1.01 2.41,2.382 0,1.382 -1.111,2.393 -2.41,2.393 -1.315,0 -2.428,-1.011 -2.428,-2.393 z m 2.428,1.995 c 1.078,0 1.932,-0.847 1.932,-1.996 0,-1.13 -0.854,-1.983 -1.932,-1.983 -1.094,0 -1.947,0.853 -1.947,1.983 -0.001,1.15 0.853,1.996 1.947,1.996 z m -0.506,-0.613 h -0.418 v -2.754 h 1.049 c 0.65,0 0.973,0.241 0.973,0.784 0,0.493 -0.309,0.708 -0.715,0.757 l 0.785,1.213 h -0.469 l -0.727,-1.192 h -0.479 v 1.192 z m 0.498,-1.548 c 0.354,0 0.67,-0.023 0.67,-0.447 0,-0.342 -0.311,-0.404 -0.602,-0.404 h -0.566 v 0.851 z" /><path
     d="m 123.561,7.348 h -3.9 v 0.391 c 0.67,0.062 1.359,0.145 1.359,0.949 0,0.432 -0.158,1.051 -0.314,1.484 l -2.463,6.987 -2.602,-7.029 c -0.295,-0.803 -0.531,-1.257 -0.531,-1.608 0,-0.742 0.906,-0.783 1.516,-0.783 V 7.348 h -5.26 v 0.391 c 1.045,0.021 1.34,0.145 1.99,1.855 l 0.65,1.689 -2.107,5.813 -2.838,-7.75 c -0.1,-0.269 -0.217,-0.619 -0.217,-0.907 0,-0.536 0.395,-0.66 1.281,-0.701 v -0.39 h -4.828 v 0.391 c 1.123,0.104 1.398,0.701 2.031,2.412 0.746,2.061 2.797,7.915 3.801,11.068 h 0.295 l 3.035,-8.719 c 0.846,2.247 2.463,6.575 3.152,8.719 h 0.295 c 1.164,-3.978 2.738,-8.389 4.098,-12.222 0.277,-0.804 0.592,-1.092 1.557,-1.258 z"
     id="path4"
     inkscape:connector-curvature="0"
     style="fill:#253b56" /><path
     d="m 125.51,11.512 c -2.641,0 -4.256,2.246 -4.256,4.781 0,2.782 1.773,4.906 4.314,4.906 2.996,0 4.375,-2.866 4.375,-4.906 10e-4,-2.988 -1.851,-4.781 -4.433,-4.781 z m 0.334,9.11 c -2.363,0 -2.816,-3.792 -2.816,-5.318 0,-2.144 1.084,-3.215 2.324,-3.215 1.812,0 2.818,2.246 2.818,4.802 0,2.948 -1.32,3.731 -2.326,3.731 z"
     id="path6"
     inkscape:connector-curvature="0"
     style="fill:#253b56" /><path
     d="m 131.708,19.261 c 0,1.154 -0.316,1.216 -1.4,1.423 v 0.309 h 4.729 v -0.309 c -1.004,-0.042 -1.674,-0.124 -1.674,-1.546 V 14.5 c 0,-0.66 0.867,-1.691 1.34,-1.691 0.473,0 0.67,0.722 1.359,0.722 0.473,0 0.748,-0.392 0.748,-0.906 0,-0.681 -0.393,-1.113 -1.064,-1.113 -0.748,0 -1.416,0.411 -2.344,1.875 h -0.039 v -1.835 l -0.098,-0.041 c -0.967,0.411 -1.951,0.783 -2.916,1.113 v 0.33 c 0.178,-0.042 0.393,-0.083 0.67,-0.083 0.314,0 0.689,0.021 0.689,1.237 z"
     id="path8"
     inkscape:connector-curvature="0"
     style="fill:#253b56" /><path
     d="m 136.512,20.992 h 4.65 v -0.309 c -1.145,-0.062 -1.479,-0.227 -1.479,-1.423 V 6.956 l -0.08,-0.041 c -1.043,0.35 -2.088,0.64 -3.131,0.907 v 0.33 c 0.236,-0.021 0.412,-0.042 0.67,-0.042 0.768,0 0.887,0.33 0.887,1.257 v 9.832 c 0,1.133 -0.355,1.402 -1.518,1.484 v 0.309 z"
     id="path10"
     inkscape:connector-curvature="0"
     style="fill:#253b56" /><path
     d="m 150.334,19.797 c -1.32,0.103 -1.32,-0.309 -1.32,-1.154 V 6.956 l -0.098,-0.041 c -0.945,0.35 -1.912,0.64 -2.896,0.907 v 0.33 c 0.156,-0.021 0.354,-0.021 0.473,-0.021 0.865,0 0.865,0.433 0.865,1.051 v 3.216 c -0.648,-0.598 -1.24,-0.886 -2.086,-0.886 -2.207,0 -4.08,2.37 -4.08,5.069 0,4.206 2.818,4.618 3.586,4.618 1.459,0 2.188,-0.763 2.543,-1.32 h 0.037 v 1.257 l 0.08,0.062 c 1.045,-0.393 1.951,-0.722 2.896,-1.072 z m -2.982,-0.906 c -0.158,0.742 -0.928,1.237 -1.756,1.237 -1.299,0 -2.717,-1.155 -2.717,-4.227 0,-2.802 1.34,-3.812 2.443,-3.812 0.926,0 1.891,0.66 2.029,2.061 v 4.741 z"
     id="path12"
     inkscape:connector-curvature="0"
     style="fill:#253b56" /><path
     d="m 39.833,13.576 c -0.038,-0.983 -0.201,-2.035 -1.084,-2.432 -1.422,-0.474 -2.603,0.69 -3.367,1.607 l -0.043,0.052 -0.067,-0.015 c -1.192,-0.261 -2.247,-0.546 -3.079,-1.415 -0.077,-0.117 -0.085,-0.251 -0.092,-0.37 -0.006,-0.097 -0.021,-0.163 -0.048,-0.22 -0.322,0.208 -0.545,0.624 -0.545,1.049 0,0.016 0,0.033 0.001,0.048 0.129,1.417 1.667,2.054 2.791,2.52 l 0.144,0.058 -0.186,0.574 c -0.163,0.489 -0.33,0.995 -0.424,1.496 -0.221,1.172 -0.396,2.349 -0.396,3.442 0,1.313 0.253,2.503 0.985,3.406 0.273,0.313 0.717,0.655 1.286,0.513 0.214,-0.062 0.26,-0.136 0.263,-0.226 -0.19,-2.591 -0.303,-5.915 0.517,-8.658 l 0.027,-0.09 0.095,0.011 c 0.008,10e-4 0.78,0.094 1.606,-0.066 0.748,-0.146 1.291,-0.579 1.616,-1.284 z m -1.308,-0.903 c 0,0 -0.061,0.035 -0.065,0.038 -0.363,0.195 -0.778,0.258 -1.202,0.182 l -0.093,-0.018 v -0.093 c 0,-0.218 0.122,-0.542 0.386,-0.738 0.228,-0.177 0.587,-0.352 0.914,-0.307 0.182,0.024 0.331,0.111 0.441,0.26 l 0.006,0.008 0.005,0.009 c 0.169,0.339 -0.209,0.555 -0.392,0.659 z"
     id="path16"
     inkscape:connector-curvature="0"
     style="fill:#253b56" /><path
     d="m 45.957,20.211 c 0.556,0.358 1.133,0.681 1.766,0.985 l 0.058,0.027 0.005,0.064 c 0.065,0.738 0.18,1.579 0.717,2.218 0.094,0.089 0.525,0.107 1.146,-0.021 0.476,-0.195 0.525,-0.693 0.57,-1.131 l 0.012,-0.111 0.011,-0.12 0.685,0.128 c 0.505,0.099 1.077,0.21 1.828,0.304 3.876,0.484 9.252,-0.5 11.645,-4.861 C 66.363,13.594 62.769,9.619 60.452,7.613 60.067,7.28 58.827,6.27 58.183,5.866 54.279,3.414 46.542,-0.357 38.58,1.945 c -0.956,0.331 -1.26,1.404 -1.351,1.907 0.348,0.39 0.848,0.387 1.428,0.375 0,0 0.243,-0.002 0.278,-0.004 0.051,-0.021 0.17,-0.071 0.17,-0.071 0.14,-0.047 0.207,-0.084 0.233,-0.149 C 39.21,3.782 38.97,3.729 38.69,3.673 38.483,3.633 38.271,3.591 38.102,3.468 L 37.995,3.391 38.088,3.298 C 38.23,3.155 38.409,3.123 38.569,3.094 38.676,3.073 38.778,3.055 38.864,3.007 l 0.019,-0.012 0.02,-0.002 C 45.316,2.055 52,3.811 57.726,7.937 c 2.63,1.897 5.562,4.959 4.589,8.78 -0.956,2.763 -4.236,4.135 -9.751,4.076 -0.839,-0.008 -1.547,-0.137 -2.294,-0.417 l -0.075,-0.028 10e-4,-0.079 c 0.028,-2.375 -0.024,-5.151 -0.055,-6.288 l -0.004,-0.108 0.109,-0.006 c 1.549,-0.091 4.519,0.385 6.485,1.25 0.1,0.065 0.125,0.152 0.127,0.213 0,0.004 0,0.01 0,0.014 0,0.273 -0.379,0.603 -0.913,1.039 0,0 -0.317,0.267 -0.32,0.268 -0.008,0.01 -0.011,0.015 -0.011,0.019 0,0.002 0.001,0.005 0.003,0.009 0.066,0.129 0.613,0.305 1.068,0.268 0.757,-0.122 1.476,-0.726 1.826,-1.531 0.049,-0.154 0.071,-0.301 0.071,-0.44 0,-0.521 -0.306,-0.942 -0.618,-1.287 -1.97,-1.679 -4.699,-1.742 -7.339,-1.803 L 50.168,11.875 50.156,11.433 C 50.13,10.5 50.094,9.221 49.928,8.44 49.768,7.69 49.419,7.289 48.812,7.137 c -0.44,0.54 -0.529,1.234 -0.613,1.969 l -0.174,1.624 -0.136,1.278 -0.011,0.081 -2.503,0.529 c -1.092,0.259 -4.071,1.313 -4.071,2.817 0,0.064 0.005,0.128 0.016,0.193 0.429,1.708 3.386,3.774 4.637,4.583 z m -4.169,-4.769 c 0.145,-0.375 0.855,-0.599 1.57,-0.796 l 0.081,-0.022 c 1.22,-0.339 2.627,-0.542 4.299,-0.619 l 0.125,-0.006 -0.008,0.125 c -0.12,1.847 -0.149,3.962 -0.136,5.327 l 10e-4,0.151 -0.145,-0.044 c -1.725,-0.515 -4.12,-1.581 -5.74,-3.741 -0.099,-0.157 -0.08,-0.29 -0.047,-0.375 z"
     id="path18"
     inkscape:connector-curvature="0"
     style="fill:#253b56" /><path
     d="m 75.254,20.912 c 1.281,-0.2 3.023,-0.651 3.36,-2.231 0.203,-1.268 -0.031,-2.161 -0.704,-2.728 -1.087,-0.731 -2.479,-0.834 -3.825,-0.934 -1.076,-0.08 -2.188,-0.163 -3.165,-0.56 l -0.038,0.014 -0.06,-0.242 c 0.023,-0.091 0.112,-0.139 0.208,-0.188 1.263,-0.389 2.66,-0.492 4.012,-0.589 1.155,-0.084 2.351,-0.172 3.444,-0.437 0.163,-0.048 0.343,-0.239 0.429,-0.454 0.05,-0.125 0.057,-0.24 0.037,-0.282 -0.295,-0.295 -0.677,-0.359 -1.117,-0.434 l -0.088,-0.014 c -2.501,-0.424 -5.945,-0.483 -8.141,1.641 -0.314,0.34 -0.317,0.978 -0.283,1.535 0.08,0.283 0.428,0.614 0.737,0.707 0.781,0.175 1.625,0.217 2.518,0.261 1.674,0.082 3.404,0.167 4.728,1.217 0.11,0.139 0.149,0.297 0.114,0.455 -0.043,0.196 -0.202,0.383 -0.433,0.503 -1.653,0.687 -3.65,1.324 -5.924,0.847 -0.238,-0.064 -0.536,-0.25 -0.644,-0.481 -0.055,-0.116 -0.056,-0.236 0.002,-0.36 0.66,-1.002 1.639,-0.596 2.502,-0.236 0.344,0.142 0.669,0.277 0.967,0.326 0.46,0.1 1.606,-0.021 2.172,-0.606 0.008,-0.021 0.016,-0.04 0.016,-0.054 0,-0.018 -0.004,-0.031 -0.009,-0.042 -0.084,-0.2 -0.646,-0.361 -0.83,-0.414 -1.716,-0.468 -3.645,-0.828 -4.934,0.054 -0.334,0.226 -0.667,0.982 -0.412,1.591 1.239,2.001 3.582,2.415 5.361,2.135 z"
     id="path20"
     inkscape:connector-curvature="0"
     style="fill:#253b56" /><path
     d="m 98.963,21.312 0.088,0.011 c 0.861,0.11 1.398,0.104 2.604,-0.434 1.873,-0.905 3.938,-2.984 4.041,-5.408 0.031,-1.337 -0.496,-2.433 -1.486,-3.083 -0.293,-0.184 -0.594,-0.116 -0.943,0.036 -2.082,1.209 -4.648,4.06 -5.223,5.282 l -0.213,-0.043 c -0.053,-1.337 0.531,-2.411 1.094,-3.45 0.488,-0.898 0.949,-1.747 1.027,-2.74 0,-0.07 -0.014,-0.107 -0.029,-0.111 -0.121,-0.042 -0.549,0.271 -0.762,0.554 l -0.004,0.006 c -1.766,2.105 -3.609,4.869 -2.174,7.57 l 0.023,0.045 -0.018,0.048 c -0.906,2.39 -1.768,5.006 -1.943,7.922 0.027,0.58 0.469,1.186 1.17,1.614 l 0.055,0.029 c 0.377,0.192 0.5,0.208 0.537,0.188 v 0 0 0 c 0.5,-2.861 1.197,-5.462 2.125,-7.951 z m 1.27,-2.385 c 0.594,-1.377 2.146,-3.624 3.719,-4.994 0.098,-0.097 0.193,-0.064 0.23,-0.047 0.297,0.147 0.389,1.316 0.336,1.749 v 0.002 c -0.246,1.652 -2.277,3.053 -3.295,3.34 -0.336,0.094 -0.496,0.098 -0.844,0.105 l -0.215,0.005 z"
     id="path22"
     inkscape:connector-curvature="0"
     style="fill:#253b56" /><path
     d="m 83.863,15.637 c -0.725,-1.149 -1.475,-2.338 -2.541,-3.281 -0.072,-0.058 -0.148,-0.08 -0.232,-0.062 -0.139,0.027 -0.291,0.159 -0.383,0.332 -0.717,1.465 -1.104,3.14 -1.254,5.43 l -0.018,0.266 c -0.074,1 -0.159,2.133 0.763,2.595 0.273,0.092 0.627,0.043 0.713,-0.165 0.382,-1.257 0.415,-2.711 0.446,-4.118 0,0 0.027,-1.016 0.027,-1.013 0,-0.106 0.055,-0.429 0.219,-0.481 0.026,-0.009 0.118,-0.028 0.198,0.087 0.801,1.546 1.605,2.887 2.287,3.994 l 0.047,0.075 c 0.387,0.63 0.721,1.174 1.383,1.139 0.746,-0.103 1.328,-0.709 1.617,-1.227 0.271,-0.776 0.4,-1.633 0.4,-2.512 0,-1.632 -0.451,-3.343 -1.312,-4.777 l -0.105,-0.163 c -0.416,-0.65 -0.889,-1.386 -1.602,-1.566 -0.068,-0.007 -0.096,0.013 -0.111,0.033 -0.084,0.097 -0.061,0.369 0.006,0.583 l 0.467,1.762 c 0.354,1.26 0.717,2.562 0.834,3.932 l 0.025,0.23 c 0.049,0.391 0.102,0.831 -0.15,1.149 l -0.088,0.108 -0.088,-0.107 c -0.582,-0.715 -1.073,-1.492 -1.548,-2.243 z"
     id="path24"
     inkscape:connector-curvature="0"
     style="fill:#253b56" /><path
     d="m 89.551,21.46 c 2.014,0.39 3.695,-0.707 5.371,-1.952 0.066,-0.067 0.047,-0.208 0.027,-0.287 -0.074,-0.323 -0.336,-0.661 -0.406,-0.685 -0.766,-0.092 -1.492,0.043 -2.26,0.188 -0.625,0.118 -1.271,0.239 -1.936,0.223 l -0.131,-0.002 0.023,-0.131 c 0.113,-0.563 0.281,-1.228 0.668,-1.885 l 0.027,-0.047 0.053,-0.007 c 0.414,-0.061 0.898,-0.071 1.369,-0.08 0.867,-0.019 1.768,-0.036 2.184,-0.357 0.086,-0.101 0.115,-0.375 0.07,-0.64 -0.033,-0.186 -0.088,-0.272 -0.09,-0.275 -0.777,-0.269 -1.799,-0.204 -2.621,-0.153 l -0.285,0.018 -0.162,0.009 0.199,-0.643 0.328,-1.031 0.09,0.009 c 0.768,0.069 1.521,0.019 2.17,-0.035 l 0.482,-0.022 c 0.584,-0.015 1.189,-0.031 1.547,-0.43 0.102,-0.201 -0.365,-0.923 -0.721,-1.194 -0.328,-0.251 -0.447,-0.333 -0.598,-0.354 -1.088,-0.151 -3.172,0.189 -5.012,0.489 0,0 -1.213,0.195 -1.215,0.195 -0.033,0.004 -0.074,0.014 -0.09,0.038 -0.035,0.057 0.02,0.217 0.049,0.308 0.104,0.493 0.494,0.59 0.951,0.703 0.215,0.054 0.438,0.109 0.631,0.212 l 0.088,0.051 -0.252,0.643 c -0.135,0.372 -0.277,0.756 -0.512,1.11 l -0.014,0.034 -0.316,0.069 c -0.303,0.051 -0.488,0.096 -0.508,0.359 -0.01,0.11 0.029,0.211 0.074,0.327 0.059,0.145 0.123,0.309 0.109,0.534 v 0.017 l -0.223,0.521 c -0.297,0.664 -0.602,1.35 -0.443,2.15 0.326,1.161 0.793,1.892 1.285,2.003 z"
     id="path26"
     inkscape:connector-curvature="0"
     style="fill:#253b56" /><path
     d="m 30.082,10.54 c -0.014,-0.006 -0.059,-0.022 -0.138,0.016 -1.056,0.617 -1.401,1.822 -1.654,2.701 l -0.078,0.274 c -0.38,1.318 -0.793,2.754 -0.793,4.187 0,0.707 0.101,1.413 0.355,2.104 0.205,0.556 0.801,0.983 1.495,1.09 1.437,-0.094 3.144,-1.036 3.624,-2.646 0.065,-0.324 0.076,-0.722 -0.027,-0.854 -0.02,-0.025 -0.042,-0.037 -0.06,-0.038 -0.624,0.043 -1.199,0.292 -1.808,0.556 0,0 -1.004,0.396 -1.02,0.4 l -0.163,0.042 c -0.169,0.051 -0.361,0.106 -0.505,0.02 -0.074,-0.043 -0.123,-0.117 -0.146,-0.237 -0.058,-1.509 0.333,-2.928 0.712,-4.3 l 0.281,-1.039 c 0.182,-0.661 0.369,-1.345 0.108,-2.014 -0.05,-0.142 -0.116,-0.234 -0.183,-0.262 z"
     id="path28"
     inkscape:connector-curvature="0"
     style="fill:#253b56" /><path
     d="m 65.681,10.185 c 0.086,-0.13 0.173,-0.265 0.284,-0.36 l 0.052,-0.045 0.062,0.025 c 1.548,0.608 3.259,0.188 5.085,-1.246 C 72.25,7.637 73.602,6.49 73.085,5.001 72.806,4.445 72.201,4.071 71.578,4.071 H 71.522 L 71.489,4.027 C 70.913,3.27 69.991,2.933 68.894,3.079 67.039,3.414 64.624,4.588 63.926,6.785 63.888,6.974 63.87,7.157 63.87,7.332 c 0,0.616 0.228,1.151 0.673,1.572 L 64.585,8.943 64.576,9 c -0.023,0.181 -0.043,0.369 -0.043,0.552 0,0.391 0.091,0.756 0.429,0.976 0.352,0.186 0.496,0 0.719,-0.343 z m 5.965,-5.102 c 0.186,0.061 0.3,0.146 0.413,0.444 0.263,0.7 -0.603,1.674 -1.334,2.112 -0.976,0.532 -2.298,1.119 -3.875,0.932 L 66.711,8.555 66.756,8.423 c 0.193,-0.551 0.562,-0.981 1.136,-1.54 0.812,-0.791 2.324,-2.264 3.754,-1.8 z m -5.973,0.743 c 0,0 0.072,-0.09 0.081,-0.099 0.356,-0.35 1.074,-0.929 1.896,-0.888 l 0.312,0.016 -0.25,0.186 C 66.8,5.722 65.992,6.586 65.311,7.613 l -0.102,0.152 -0.09,-0.16 C 64.76,6.959 65.266,6.33 65.673,5.826 Z"
     id="path30"
     inkscape:connector-curvature="0"
     style="fill:#253b56" /><path
     d="m 24.311,10.188 c -0.231,0.059 -0.257,0.375 -0.257,0.509 v 0.042 l -0.028,0.032 c -1.543,1.714 -2.543,3.697 -3.436,5.582 l -0.026,0.055 -0.061,0.008 c -0.413,0.053 -0.716,-0.01 -1.101,-0.105 l -0.124,-0.03 0.046,-0.119 C 20.658,12.727 20.449,8.025 18.815,4.728 17.865,2.811 16.118,0.562 14.075,0.001 14.065,0 14.037,-0.005 14.006,0.035 c -0.024,0.032 -0.032,0.068 -0.032,0.088 0,0.005 0,0.008 0.002,0.011 0.009,0.005 0.021,0.013 0.021,0.013 2.596,2.283 3.932,5.579 3.971,9.804 -0.237,3.906 -1.3,6.765 -3.352,9 -1.587,1.497 -3.123,1.988 -4.567,1.457 C 9.483,20.16 8.83,19.524 8.718,18.889 L 8.707,18.826 8.753,18.784 c 1.71,-1.495 2.8,-2.778 3.429,-4.038 C 13.09,13.025 13.329,10.206 11.996,8.38 11.695,8.075 11.225,7.901 10.718,7.9 9.571,7.99 8.497,8.55 7.435,9.613 5.111,11.872 5.609,15.769 6.304,18.912 l 0.014,0.064 -0.05,0.044 C 5.691,19.53 4.776,19.687 3.932,19.417 2.923,19.043 2.421,17.943 2.287,17.031 1.896,12.739 3.122,8.562 5.827,4.954 6.088,4.563 6.44,4.224 6.781,3.896 7.265,3.43 7.724,2.99 7.936,2.413 7.959,2.352 7.94,2.334 7.93,2.325 7.846,2.246 7.556,2.242 7.369,2.318 4.867,3.449 2.656,5.945 1.306,9.163 c -1.677,4.369 -1.739,7.693 -0.188,9.878 0.971,1.273 2.617,1.807 4.407,1.427 0.401,-0.067 0.826,-0.2 1.166,-0.366 l 0.1,-0.05 0.049,0.102 c 0.565,1.162 1.759,2.168 2.971,2.505 2.675,0.684 4.925,-0.814 6.769,-2.366 1.188,-1.12 1.973,-2.456 2.645,-3.733 l 0.061,-0.114 0.104,0.077 c 0.201,0.145 0.661,0.921 0.695,1.17 l 0.006,0.019 -0.317,0.884 c -0.16,0.402 -0.324,0.818 -0.405,1.272 0.005,0.039 0.038,0.308 0.038,0.308 0.069,0.631 0.141,1.283 0.76,1.49 0.35,0.07 0.751,0.071 0.829,-0.13 l 0.224,-0.72 c 0.25,-0.819 0.51,-1.666 0.912,-2.443 l 0.034,-0.065 0.073,0.005 c 0.997,0.064 2.485,0.109 2.673,0.012 l 0.215,-0.111 -0.055,0.237 c -0.043,0.184 0.064,1.036 0.136,1.507 0.237,0.608 0.799,1.273 1.419,1.367 0.025,0.004 0.035,-0.002 0.042,-0.008 0.031,-0.025 0.063,-0.105 0.065,-0.225 0.041,-4.467 -0.51,-7.898 -1.732,-10.79 C 24.9,10.091 24.57,10.124 24.311,10.188 Z M 8.355,17.262 8.307,17.048 C 8.133,16.267 8.176,15.306 8.215,14.46 c 0,0 0.021,-0.519 0.022,-0.534 L 8.394,12.949 C 8.609,11.527 8.831,10.056 9.774,8.94 9.868,8.85 9.968,8.808 10.07,8.815 c 0.113,0.008 0.219,0.078 0.316,0.206 l 0.004,0.007 c 0.343,0.532 0.479,1.205 0.428,2.119 -0.134,2.411 -0.871,4.301 -2.319,5.949 z m 16.461,-1.166 c -0.462,0.248 -0.937,0.268 -1.593,0.218 -0.094,0 -0.161,-0.03 -0.195,-0.089 -0.058,-0.099 0.004,-0.21 0.056,-0.303 0.289,-0.735 0.648,-1.478 1.102,-2.271 l 0.103,-0.182 0.094,0.188 c 0.289,0.577 0.365,1.248 0.438,1.896 l 0.061,0.508 z"
     id="path32"
     inkscape:connector-curvature="0"
     style="fill:#253b56" /><path
     d="m 66.222,19.364 c 0.004,0.782 0.01,1.59 0.834,1.755 0.305,0.077 0.808,0.024 1.015,-0.104 0.046,-0.029 0.074,-0.059 0.077,-0.069 0.052,-0.65 0.074,-1.317 0.074,-1.994 0,-1.757 -0.145,-3.585 -0.286,-5.369 l -0.062,-0.792 c -0.019,-0.243 -0.353,-0.869 -0.833,-0.992 -0.257,-0.009 -0.375,0.447 -0.438,0.693 0,0 -0.009,0.034 -0.01,0.034 -0.256,1.708 -0.388,3.588 -0.388,5.489 0,0.352 0.004,0.704 0.013,1.056 z"
     id="path34"
     inkscape:connector-curvature="0"
     style="fill:#253b56" /></svg>