<?xml version="1.0" encoding="utf-8"?>
<!-- Generator: Adobe Illustrator 25.4.1, SVG Export Plug-In . SVG Version: 6.00 Build 0)  -->
<svg version="1.1" id="Layer_1" xmlns="http://www.w3.org/2000/svg" xmlns:xlink="http://www.w3.org/1999/xlink" x="0px" y="0px"
	 viewBox="0 0 598.1 309.9" style="enable-background:new 0 0 598.1 309.9;" xml:space="preserve">
<style type="text/css">
	.st0{fill-rule:evenodd;clip-rule:evenodd;}
	.st1{fill-rule:evenodd;clip-rule:evenodd;fill:#FF0000;}
	.st2{fill:#FF0000;}
</style>
<path class="st0" d="M578.2,123.5c-5.7-1.2-8.4-5.8-13.2-8.2c0,0.7,0,1.4,0,2c2.5,1.6,0.6,1.1,2,3.1c0.3,0,0.7,0,1,0
	c1.4,1.8,1.7,2,2,5.1c-2.7,1.4-5.4,2.7-8.2,4.1c-5.4,1.8-8.4-2.1-12.2,0c-0.7,1-1.4,2-2,3.1c-3.4,3.2-6.3,4-13.2,4.1
	c-2.3-3.4-5.8-3.3-7.1-8.1c-0.3,0-0.7,0-1,0c0,1.4,0,2.7,0,4.1c0.3,0,0.7,0,1,0c0,1.7,0,3.4,0,5.1c0.7,0.3,1.4,0.7,2,1
	c0.3,2,0.7,4.1,1,6.1c0.3,0,0.7,0,1,0c3.1-3,5.6-0.7,10.2-2c0-0.3,0-0.7,0-1c3.1,0,6.1,0,9.2,0c0-0.3,0-0.7,0-1c2.7,0,5.4,0,8.2,0
	c0-0.3,0-0.7,0-1c4.1-0.3,8.2-0.7,12.2-1c2.6,6.9,1.1,19.8,1,28.5c0.7,0,1.4,0,2,0c0.3-1.4,0.7-2.7,1-4.1c0.3,0,0.7,0,1,0
	c2-5.8-1.4-11.7,2-16.3c0.3,0,0.7,0,1,0c2.8-2.9,4.7-1.3,6.1-6.1c3.8,0.9,3.4,2.2,5.1,5.1c0.3,0,0.7,0,1,0c0.3,1.4,0.7,2.7,1,4.1
	c0.3,0,0.7,0,1,0c0,1,0,2,0,3.1c0.3,0,0.7,0,1,0c2.2,6.9-2,13.4-3.1,18.3c-1.8,0.7-3.2,1-6.1,1c-1.2-1.2,0-0.4-2-1
	c-0.6,2.6-1.6,3.3-3.1,5.1c-0.3,0-0.7,0-1,0c0,0.7,0,1.4,0,2c-1,0.7-2,1.4-3.1,2c0,0.7,0,1.4,0,2c-1.7,1.4-3.4,2.7-5.1,4.1
	c0,0.7,0,1.4,0,2c-1,0.7-2,1.4-3.1,2c0,0.3,0,0.7,0,1c-1.7,0-3.4,0-5.1,0c-0.8,0.6,0,1.3-2,1c0-0.3,0-0.7,0-1c-1,0-2,0-3.1,0
	c0-0.3,0-0.7,0-1c-3.1-0.3-6.1-0.7-9.2-1c0-0.3,0-0.7,0-1c-1,0-2,0-3.1,0c0-0.3,0-0.7,0-1c-2.4,0-4.8,0-7.1,0c0-0.3,0-0.7,0-1
	c-0.7,0-1.4,0-2,0c0-0.3,0-0.7,0-1c-2-0.3-4.1-0.7-6.1-1c0-0.3,0-0.7,0-1c-3.7,0-7.5,0-11.2,0c0-0.3,0-0.7,0-1
	c-4.4-1-8.8-2-13.2-3.1c0,0.3,0,0.7,0,1c0.3,0,0.7,0,1,0c2.4,2.6,3.8,1.6,7.1,3.1c0,0.3,0,0.7,0,1c0.7,0,1.4,0,2,0c0,0.3,0,0.7,0,1
	c1.4,0.3,2.7,0.7,4.1,1c0,0.3,0,0.7,0,1c1,0,2,0,3.1,0c0,0.3,0,0.7,0,1c2,0.7,4.1,1.4,6.1,2c0.3,1,0.7,2,1,3.1c0.7,0.3,1.4,0.7,2,1
	c1,3.1,2,6.1,3.1,9.2c-2,0.3-4.1,0.7-6.1,1c0,0.3,0,0.7,0,1c-1.2,1.2-0.4,0-1,2c3.1,0,6.1,0,9.2,0c0,1,0,2,0,3.1c-1,0.7-2,1.4-3.1,2
	c0,0.3,0,0.7,0,1c-0.7,0-1.4,0-2,0c-0.3,0.7-0.7,1.4-1,2c-3.6,2.4-7.2,3-13.2,3.1c-3.4-1.4-6.8-2.7-10.2-4.1c0,0.3,0,0.7,0,1
	c0.3,0,0.7,0,1,0c0,1,0,2,0,3.1c0.3,0,0.7,0,1,0c0,0.3,0,0.7,0,1c1.1,0.6,1.6,1.8,2,2c0.7,0,1.4,0,2,0c0,0.3,0,0.7,0,1
	c1,0,2,0,3.1,0c0,0.3,0,0.7,0,1c0.7,0,1.4,0,2,0c0,0.3,0,0.7,0,1c0.7,0,1.4,0,2,0c0.3,0.7,0.7,1.4,1,2c2,0.5,1.3-0.6,2-1
	c1.4-0.3,2.7-0.7,4.1-1c0.3-0.7,0.7-1.4,1-2c1.4-0.3,2.7-0.7,4.1-1c4.1-2.2,4.9-4.6,11.2-5.1c1.2,6.3,5.3,7.8,6.1,14.3
	c-4.3,2.4-9.1,6.6-11.2,11.2c-0.7,0-1.4,0-2,0c-1-1.8-2.3-3-4.1-4.1c-0.4,4.3-1.9,5.7-6.1,6.1c0.3-1.4,0.7-2.7,1-4.1
	c-0.3,0-0.7,0-1,0c-3.1,2.7-7.8,0.6-12.2,2c0,0.3,0,0.7,0,1c-1,0-2,0-3.1,0c0,0.3,0,0.7,0,1c-1.4,0.3-2.7,0.7-4.1,1c0,0.3,0,0.7,0,1
	c-0.7,0-1.4,0-2,0c0,0.3,0,0.7,0,1c-1,0-2,0-3.1,0c-0.3,0.7-0.7,1.4-1,2c-1,0-2,0-3.1,0c0,0.3,0,0.7,0,1c-0.7,0-1.4,0-2,0
	c-0.3,0.7-0.7,1.4-1,2c-1,0-2,0-3.1,0c-0.3,0.7-0.7,1.4-1,2c-2,0.7-4.1,1.4-6.1,2c0,0.3,0,0.7,0,1c-1,0.3-2,0.7-3.1,1
	c-0.3,0.7-0.7,1.4-1,2c-1.4,0.3-2.7,0.7-4.1,1c0,0.3,0,0.7,0,1c-1,0.3-2,0.7-3.1,1c-0.3,0.7-0.7,1.4-1,2c-0.7,0-1.4,0-2,0
	c-0.3,0.7-0.7,1.4-1,2c-0.7,0-1.4,0-2,0c-0.7,1-1.4,2-2,3.1c-0.7,0-1.4,0-2,0c-1.7,2-3.4,4.1-5.1,6.1c-0.7,0.3-1.4,0.7-2,1
	c0,0.7,0,1.4,0,2c-1,0.7-2,1.4-3.1,2c-3,4.3-3.5,9.6-9.2,11.2c-0.3-2-0.7-4.1-1-6.1c-0.3,0-0.7,0-1,0c0.3,4.8,0.7,9.5,1,14.3
	c-0.3,0-0.7,0-1,0c-0.3,1.7-0.7,3.4-1,5.1c-7,3.1-19.7,3.1-29.6,3.1c-3.7,0-7.5,0-11.2,0c-4.8-1.8-6.6-8.6-12.2-10.2
	c0-0.7,0-1.4,0-2c-0.7,0-1.4,0-2,0c0-0.7,0-1.4,0-2c-5.2-1.4-12.5-11.5-16.3-15.3c-10.2-9.8-20.4-19.7-30.6-29.5
	c-4.1-4.4-8.2-8.8-12.2-13.2c-5.1-2.9-15.5-2-23.4-2c-17.7,0-35.3,0-53,0c-0.7-2-1.4-4.1-2-6.1c-8.5,1.7-17.8,3-26.5,0
	c0-0.3,0-0.7,0-1c-1.4,0-2.7,0-4.1,0c0-0.3,0-0.7,0-1c-2.7-1.3-4-2.3-7.1-3.1c-0.3-1.7-0.7-3.4-1-5.1c3.8-2.4,3.9-7.4,7.1-10.2
	c4.8,5.8,17.2,8.9,26.5,7.1c0-0.3,0-0.7,0-1c-1.4-1.2-1.6-1.9-2-4.1c-3.3,0.8-6.8,3.7-9.2,2c-0.3,0-0.7,0-1,0c0-2,0-4.1,0-6.1
	c-7.8-0.3-15.6-0.7-23.4-1c0,1,0,2,0,3.1c-0.3,0-0.7,0-1,0c-0.6,2.3-0.9,2.6-2,4.1c-0.3,0-0.7,0-1,0c-0.3,1-0.7,2-1,3.1
	c-0.7,0.3-1.4,0.7-2,1c0,0.7,0,1.4,0,2c-0.7,0.3-1.4,0.7-2,1c-1,1.4-2,2.7-3.1,4.1c-0.7,0-1.4,0-2,0c-0.7,1-1.4,2-2,3.1
	c-1.4,0.3-2.7,0.7-4.1,1c0,0.3,0,0.7,0,1c-2,0.7-4.1,1.4-6.1,2c0,0.3,0,0.7,0,1c-1.4,0-2.7,0-4.1,0c-13,4.3-23,1.1-32.6-4.1
	c-1.4-0.3-2.7-0.7-4.1-1c-0.7-1-1.4-2-2-3.1c-0.7,0-1.4,0-2,0c-1.4-1.7-2.7-3.4-4.1-5.1c-0.7-0.3-1.4-0.7-2-1c0-0.7,0-1.4,0-2
	c-1-0.7-2-1.4-3.1-2c0-0.7,0-1.4,0-2c-0.3,0-0.7,0-1,0c-1.2-2.1,0-2.3-2-4.1c-2.4,3.5-6,2.4-10.2,4.1c0,0.3,0,0.7,0,1
	c-1,0-2,0-3.1,0c0,0.3,0,0.7,0,1c-1.4,0-2.7,0-4.1,0c0,0.3,0,0.7,0,1c-1.4,0-2.7,0-4.1,0c0,0.3,0,0.7,0,1c-1.7,0-3.4,0-5.1,0
	c0,0.3,0,0.7,0,1c-1.7,0-3.4,0-5.1,0c0,0.3,0,0.7,0,1c-3.4,0-6.8,0-10.2,0c0,0.3,0,0.7,0,1c-4.8,0-9.5,0-14.3,0
	c-1.5,0.4-6.1,1.9-9.2,1c0-0.3,0-0.7,0-1c-16.6,0-33.3,0-49.9,0c-0.1-6.5,1-12.7,2-18.3c1-0.3,2-0.7,3.1-1c0-0.3,0-0.7,0-1
	c2.4,0.3,4.8,0.7,7.1,1c0-0.3,0-0.7,0-1c1.4-0.3,2.7-0.7,4.1-1c0.8-3.2,3-4.7,4.1-7.1c0-1,0-2,0-3.1c0.3,0,0.7,0,1,0
	c0-0.7,0-1.4,0-2c0.7-0.3,1.4-0.7,2-1c0-0.7,0-1.4,0-2c0.7-0.3,1.4-0.7,2-1c1.4-1.7,2.7-3.4,4.1-5.1c2-0.7,4.1-1.4,6.1-2
	c0-0.3,0-0.7,0-1c1.4,0,2.7,0,4.1,0c0-0.3,0-0.7,0-1c4.8,0,9.5,0,14.3,0c0-0.3,0-0.7,0-1c0.7,0,1.4,0,2,0c0-0.3,0-0.7,0-1
	c1,0,2,0,3.1,0c0.3-0.7,0.7-1.4,1-2c1-0.3,2-0.7,3.1-1c0-0.3,0-0.7,0-1c1.4-0.3,2.7-0.7,4.1-1c0-0.3,0-0.7,0-1c0.7,0,1.4,0,2,0
	c0-0.3,0-0.7,0-1c0.7,0,1.4,0,2,0c0-0.3,0-0.7,0-1c0.7,0,1.4,0,2,0c0-0.3,0-0.7,0-1c0.7,0,1.4,0,2,0c0-0.3,0-0.7,0-1
	c0.7,0,1.4,0,2,0c0.7-1,1.4-2,2-3.1c0.7,0,1.4,0,2,0c0-0.3,0-0.7,0-1c1,0,2,0,3.1,0c0-0.3,0-0.7,0-1c1,0,2,0,3.1,0c0-0.3,0-0.7,0-1
	c2-0.7,4.1-1.4,6.1-2c1-3.4,2-6.8,3.1-10.2c2,0,4.1,0,6.1,0c1.5-2.6,5.9-6.3,9.2-7.1c1.4-8.5,2.7-17,4.1-25.5c12.6,0,25.1,0,37.7,0
	c0,0.3,0,0.7,0,1c2,0.3,4.1,0.7,6.1,1c0,0.3,0,0.7,0,1c0.7,0,1.4,0,2,0c0.3,0.7,0.7,1.4,1,2c0.3,0,0.7,0,1,0c0-0.3,0-0.7,0-1
	c3.8-2.2,5.1-4.8,11.2-5.1c0.3-1.7,0.7-3.4,1-5.1c0.3,0,0.7,0,1,0c1.2-3.6,0-8.5,1-11.2c1-0.3,2-0.7,3.1-1c0-0.3,0-0.7,0-1
	c4.8,0,9.5,0,14.3,0c0,0.3,0,0.7,0,1c5.6,1.6,14.4-0.4,19.4,1c24.1,0.3,48.2,0.7,72.4,1c40.4,0,80.9,0,121.3,0c19.4,0,38.7,0,58.1,0
	c0,0.3,0,0.7,0,1c5.8,1.6,23.9-0.2,28.5-1c6.1,0,12.2,0,18.3,0c13.9,0,27.9,0,41.8,0c0,0.3,0,0.7,0,1c1.7,0,3.4,0,5.1,0
	c1.7,2.4,3.4,4.8,5.1,7.1c0.7,0.3,1.4,0.7,2,1c0,0.7,0,1.4,0,2c1,0.7,2,1.4,3.1,2c0,0.7,0,1.4,0,2c0.3,0,0.7,0,1,0
	c0.7,2,1.4,4.1,2,6.1c0.3,0,0.7,0,1,0c0.3,1.7,0.7,3.4,1,5.1c0.3,0,0.7,0,1,0c0,1,0,2,0,3.1c0.8,1.9,2.2,5,3.1,7.1c-0.3,0-0.7,0-1,0
	c-0.6,0.4-0.1,1.7-2,1c0-0.3,0-0.7,0-1c-2.3-2.1-4.7-8.1-6.1-11.2c-0.3,0-0.7,0-1,0C578.8,120.1,578.5,121.8,578.2,123.5z
	 M158.3,127.6c0-0.7,0-1.4,0-2c-2.7-1.4-1.7-1.8-6.1-2c-1.9-1.7-7.7-1.1-11.2-1c-0.3,1-0.7,2-1,3.1c-1.2,1.3-1.9,5.8-2,8.2
	c0.3,0,0.7,0,1,0c3.1-5.7,8.1-7.3,17.3-7.1C157.4,127.7,156.3,127,158.3,127.6z M152.2,208c0,0.7,0,1.4,0,2c3.8,0.5,5.4,2.2,8.2,3.1
	c5.6,1.8,16.7-1.3,19.4-3.1c0-0.3,0-0.7,0-1c1.4-1,2.7-2,4.1-3.1c0-0.3,0-0.7,0-1c-9.5,0-19,0-28.5,0c0-0.3,0-0.7,0-1
	c-2.7,0-5.4,0-8.2,0c0,0.3,0,0.7,0,1c1.2,0.9,0.1-0.1,1,1C149.9,207,149.7,207.4,152.2,208z"/>
<g>
	<g>
		<path class="st1" d="M320.3,241.9H82.6c0,0-0.2,0-0.2,0s37.9-22.3,37.9-22.3c-6.3-8.2-6.3-8.3-9.8-19.9l-0.1,0
			C46.8,236.8,0,264.2,0,264.2c118,0,224.4,0.1,342.4,0.1c-1.6-1.5-12-11.8-12.1-11.8C330.3,252.3,321.1,242.8,320.3,241.9z
			 M487.4,264.2h110.7L451.4,0c0,0-185.6,108.4-185.5,108.5c4.2,3.2,11.5,14.7,12.7,20.1c84.8-49,165-95.3,165-95.3l114.6,208.6
			l-19.4,0C525,246,503.1,253.2,487.4,264.2z M278.6,128.6C278.6,128.6,278.6,128.6,278.6,128.6
			C278.6,128.6,278.6,128.6,278.6,128.6C278.6,128.7,278.6,128.7,278.6,128.6z"/>
	</g>
</g>
<path class="st1" d="M230.8,106.5c0,0.7,0,1.4,0,2.1c1.4,0.3,2.7,0.7,4.1,1c0-0.7,0-1.4,0-2.1c0.7,0,1.4,0,2,0
	c-2.6-2.3-4.7-0.4-7.1-4.1c0.7,0,1.4,0,2,0c1.2,0.8,4.7-0.2,8.2,1c4.3,1.6,12.1,5.5,14.3,9.2c0.3,0,0.7,0,1,0c-0.3,1-0.7,2.1-1,3.1
	c0.3,0,0.7,0,1,0c0,0.3,0,0.7,0,1c1-0.3,2-0.7,3.1-1c1.3,0.6-0.4,0.6,1,1c1,1.4,2,2.7,3.1,4.1c0.3,0,0.7,0,1,0c0,0.7,0,1.4,0,2.1
	c0.7,0.3,1.4,0.7,2,1c5,7.9,8,25.2,4.1,35.9c-5.8-2.6-10.8-5-19.4-5.1c0.3-3.1,0.7-6.2,1-9.2c-0.3,0-0.7,0-1,0c0-1.7,0-3.4,0-5.1
	c-0.3,0-0.7,0-1,0c-0.3-1.7-0.7-3.4-1-5.1c-0.3,0-0.7,0-1,0c-0.3-1-0.7-2.1-1-3.1c4,0.7,6.3,1.9,11.2,2.1c0-0.3,0-0.7,0-1
	c-1.7-0.6-2.8-0.4-5.1-1c0-0.3,0-0.7,0-1c-0.3,0-0.7,0-1,0c0,0.3,0,0.7,0,1c-2.3,0.2-2-1-2-1c-1.7,0-3.4,0-5.1,0
	c-1-1.4-2-2.7-3.1-4.1c-0.7,0-1.4,0-2,0c-0.3-0.7-0.7-1.4-1-2.1c-1,0-2,0-3.1,0c0-0.3,0-0.7,0-1c-1,0-2,0-3.1,0c0-0.3,0-0.7,0-1
	c-4.4-1.5-11.9-0.1-15.3,1c0,0.3,0,0.7,0,1c-1.7-0.3-3.4-0.7-5.1-1c0,0.3,0,0.7,0,1c0.7,0,1.4,0,2,0c0,0.3,0,0.7,0,1
	c-0.3,0-0.7,0-1,0c-1.5,2.3-4.6,3-6.1,5.1c0,0.7,0,1.4,0,2.1c-0.7,0.3-1.4,0.7-2,1c0,0.7,0,1.4,0,2.1c-0.3,0-0.7,0-1,0
	c0,0.7,0,1.4,0,2.1c-0.3,0-0.7,0-1,0c0,1,0,2.1,0,3.1c-0.3,0-0.7,0-1,0c-2.5,7.6,2.9,21.1,5.1,24.6c0.7,0.3,1.4,0.7,2,1
	c0.3,2.1,0.7,4.1,1,6.2c0.3,0,0.7,0,1,0c0,0.7,0,1.4,0,2.1c0.3,0,0.7,0,1,0c0.9,2.5-1.1,4.9,1,6.2c0,0.3,0,0.7,0,1
	c-1,1.4-0.8-0.9-2,1c0.7,0,1.4,0,2,0c0.1,7.6-1.1,13.4-3.1,18.5c0,1,0,2.1,0,3.1c-0.3,0-0.7,0-1,0c-0.7,2.1-1.4,4.1-2,6.2
	c-8.4,0-15.2-3.6-22.5-5.1c0-0.3,0-0.7,0-1c3.5-2.3,7-10.7,8.2-15.4c-0.3-2.4-0.7-4.8-1-7.2c4.2,0.5,12.6,4.3,15.3,2.1
	c-3.7,0-13.6-2.4-15.3-4.1c-0.3,0-0.7,0-1,0c0-1.4,0-2.7,0-4.1c-0.7-0.3-1.4-0.7-2-1c-0.3-1.4-0.7-2.7-1-4.1c1.6-0.6,1.7-0.8,4.1-1
	c1.5,1.9,5.7,4.2,8.2,2.1c-4.6-0.3-6.9-1.8-11.2-3.1c0-0.3,0-0.7,0-1c-1,0.3-2,0.7-3.1,1c0-0.3,0-0.7,0-1c-0.3,0-0.7,0-1,0
	c-0.3-2.1-0.7-4.1-1-6.2c1.1,0.2,5.5,2,7.1,1c0-0.3,0-0.7,0-1c-0.7,0-1.4,0-2,0c0.3-1.4,0.7-2.7,1-4.1c0.7,0,1.4,0,2,0
	c-1.4-1.6-2.2-1.8-5.1-2.1c0,0.3,0,0.7,0,1c0.7,0,1.4,0,2,0c-0.3,1.4-0.7,2.7-1,4.1c-1,0-2,0-3.1,0c-0.7-2.8-0.3-2.3-3.1-3.1
	c-0.3-4.4-0.7-8.9-1-13.3c0.3,0,0.7,0,1,0c0-2.1,0-4.1,0-6.2c1.8-5.8,5.7-16.6,10.2-19.5c0-0.3,0-0.7,0-1c1,0.3,2,0.7,3.1,1
	c0-0.3,0-0.7,0-1c0.7,0,1.4,0,2,0c-1-3.2-1-1,0-4.1c0.8,0.3,3.2,2.1,5.1,1c0-0.3,0-0.7,0-1c-3.1-0.3-2.8-0.1-4.1-2.1
	c1.2-0.9,0.1,0.1,1-1c1,0.3,2,0.7,3.1,1c0-1,0-2.1,0-3.1c1-0.3,2-0.7,3.1-1c0-0.3,0-0.7,0-1c0.7,0,1.4,0,2,0c0-0.3,0-0.7,0-1
	c2-0.3,4.1-0.7,6.1-1c0-0.3,0-0.7,0-1c2,0,4.1,0,6.1,0c0,0,0.9-1.6,3.1-1c0,0.3,0,0.7,0,1C224.6,105.2,227.7,105.9,230.8,106.5z
	 M125.7,108.6c5.4,0,10.9,0,16.3,0c0,0.3,0,0.7,0,1c0.3,0,0.7,0,1,0c0-0.3,0-0.7,0-1c7.1,0,14.3,0,21.4,0c0,0.3,0,0.7,0,1
	c2.4,0.7,4.8,1.4,7.1,2.1c0.8,1.5,2.8,4.1,4.1,5.1c0.3,12.8-2.8,17.7-11.2,21.5c1.8,2.1,2.4,0.9,4.1,2.1c1.7,2.1,3.4,4.1,5.1,6.2
	c-0.2,2.4-0.4,2.5-1,4.1c-0.3,0-0.7,0-1,0c0.2,1.7,2,1.9,2,2.1c-0.3,1.7-0.7,3.4-1,5.1c-0.7-0.3-1.4-0.7-2-1c2.9,2.6-0.4,4.9-2,6.2
	c0,0.3,0,0.7,0,1c-1.7,0-3.4,0-5.1,0c0.3-1,0.7-2.1,1-3.1c-0.7,0-1.4,0-2,0c0,1,0,2.1,0,3.1c-2.4,0.2-2.5,0.4-4.1,1c0-1,0-2.1,0-3.1
	c-0.3,0-0.7,0-1,0c0,0.3,0,0.7,0,1c-0.3,0-0.7,0-1,0c-0.3,0-0.7,0-1,0c0-0.3,0-0.7,0-1c-1.7,0-3.4,0-5.1,0c-0.3-0.7-0.7-1.4-1-2.1
	c-0.3,0-0.7,0-1,0c0,0.7,0,1.4,0,2.1c3.1,0.7,6.1,1.4,9.2,2.1c0,0.7,0,1.4,0,2.1c-3.2,0.4-5.1,1.4-7.1,3.1c-0.3,0.7-0.7,1.4-1,2.1
	c-0.7,0-1.4,0-2,0c0,0.3,0,0.7,0,1c-10.5,0-21.1,0-31.6,0c-0.9-1.2,0.1-0.1-1-1c0-0.3,0-0.7,0-1c0.3,0,0.7,0,1,0c0-2.1,0-4.1,0-6.2
	c0.3,0,0.7,0,1,0c0-2.1,0-4.1,0-6.2c1.6-5.2,3-9.3,3.1-16.4c0.7,0,1.4,0,2,0c-2.4-6.4,1.8-16.4,2-24.6c1,0,2,0,3.1,0
	c0-0.3,0-0.7,0-1c-0.7,0-1.4,0-2,0C125,113.4,125.3,111,125.7,108.6z M208.3,108.6c0.5,0.4,1.3,1.9,3.1,1c0-0.3,0-0.7,0-1
	C210.4,108.6,209.3,108.6,208.3,108.6z M226.7,110.6c-0.1,3.2-2,1.9,1,3.1c0.3-1,0.7-2.1,1-3.1c-1.4-0.3-2.7-0.7-4.1-1
	c0,0.3,0,0.7,0,1C225.3,110.6,226,110.6,226.7,110.6z M222.6,111.7c-0.7,0-1.4,0-2,0c0,0.3,0,0.7,0,1c0.3,0,0.7,0,1,0
	c0,0.3,0,0.7,0,1c0.3,0,0.7,0,1,0C222.6,113,222.6,112.3,222.6,111.7z M158.3,112.7c0,1,0,2.1,0,3.1c0.3,0,0.7,0,1,0
	c0-0.3,0-0.7,0-1c2,0.3,4.1,0.7,6.1,1c0-0.3,0-0.7,0-1C163.1,114.1,160.7,113.4,158.3,112.7z M235.9,115.8c-0.7,0-1.4,0-2,0
	c0.9,1.2-0.1,0.1,1,1c0,0.3,0,0.7,0,1C236,116.7,235.3,117.8,235.9,115.8z M136.9,120.9c0-0.7,0-1.4,0-2.1c-1.4,0-2.7,0-4.1,0
	c0,0.3,0,0.7,0,1c0.3,0,0.7,0,1,0c0,0.3,0,0.7,0,1C134.8,120.9,135.9,120.9,136.9,120.9z M138.9,119.9c1.2,1.2,0,0.4,2,1
	C139.8,119.7,141,120.5,138.9,119.9z M229.8,120.9c1.2,1.4,1.9,1.6,4.1,2.1C232.6,121.5,232,121.4,229.8,120.9z M190,125
	c0.7,0,1.4,0,2,0c0,0.3,0,0.7,0,1c1-0.3,2-0.7,3.1-1c0.3-0.7,0.7-1.4,1-2.1c-1.2-0.9-0.1,0.1-1-1c-2,0.7-2,1.4-4.1,0
	c0,0.3,0,0.7,0,1C189.8,124.1,190.6,122.9,190,125z M204.2,121.9c-0.7,0-1.4,0-2,0c0.9,1.2-0.1,0.1,1,1c0,0.3,0,0.7,0,1
	c0.3,0,0.7,0,1,0C204.2,123.3,204.2,122.6,204.2,121.9z M139.9,122.9c-0.6,3.1-2.3,8.5-1,10.3c1.9,1.7,7.7,1.1,11.2,1
	c0-0.3,0-0.7,0-1c2-0.3,4.1-0.7,6.1-1c0.3-1,0.7-2.1,1-3.1c0.3,0,0.7,0,1,0c0-1.4,0-2.7,0-4.1c0.7,0,1.4,0,2,0c0-0.3,0-0.7,0-1
	c-1,0.3-2,0.7-3.1,1c-0.3-0.7-0.7-1.4-1-2.1C150.8,122.9,145.4,122.9,139.9,122.9z M200.2,127c1.2,1.2,0,0.4,2,1
	C201,126.9,202.2,127.7,200.2,127z M254.2,130.1c0,0.7,0,1.4,0,2.1c0.3,0,0.7,0,1,0c0-0.7,0-1.4,0-2.1
	C254.9,130.1,254.6,130.1,254.2,130.1z M146.1,135.3c-0.7,0-1.4,0-2,0c0.9,1.2-0.1,0.1,1,1c0,0.3,0,0.7,0,1c0.3,0,0.7,0,1,0
	C146.1,136.6,146.1,135.9,146.1,135.3z M222.6,140.4c2,0,4.1,0,6.1,0c0,0.3,0,0.7,0,1c6.5,1.5,5.6,6.2,5.1,12.3
	c-1,0.7-2,1.4-3.1,2.1c0,0.3,0,0.7,0,1c-0.7,0-1.4,0-2,0c0,0.3,0,0.7,0,1c-4,1.4-10.5-2.6-11.2-4.1c0-3.1,0-6.2,0-9.2
	C219,143.7,221.6,141.6,222.6,140.4z M135.9,145.5c-0.3,3.1-0.7,6.2-1,9.2c-0.7,0.3-1.4,0.7-2,1c0,0.3,0,0.7,0,1c0.3,0,0.7,0,1,0
	c0,0.3,0,0.7,0,1c2,0,4.1,0,6.1,0c0,1,0,2.1,0,3.1c0.3,0,0.7,0,1,0c0-1,0-2.1,0-3.1c3.4,0,6.8,0,10.2,0c0-0.3,0-0.7,0-1
	c0.7,0,1.4,0,2,0c0-0.3,0-0.7,0-1c0.7,0.3,1.4,0.7,2,1c0-0.7,0-1.4,0-2.1c0.7,0,1.4,0,2,0c-0.6-3.8-0.6-2.7-1-7.2
	c-1.7-0.3-3.4-0.7-5.1-1c-0.3-0.7-0.7-1.4-1-2.1C150.2,144.5,138.4,145.5,135.9,145.5z M163.4,148.6c1.4,0.3,2.7,0.7,4.1,1
	c-1-1.2-2.6-2.3-4.1-3.1C163.4,147.2,163.4,147.9,163.4,148.6z M191,148.6c-0.7,0-1.4,0-2,0c0.9,1.2-0.1,0.1,1,1c0,0.3,0,0.7,0,1
	c0.3,0,0.7,0,1,0C191,149.9,191,149.3,191,148.6z M168.5,149.6c1.2,1.2,0,0.4,2,1C169.4,149.5,170.6,150.2,168.5,149.6z
	 M128.7,150.6c1.1,1.8,0.6,1.4,3.1,2.1c0.9-1.2-0.1-0.1,1-1c0-0.3,0-0.7,0-1C131.4,150.6,130.1,150.6,128.7,150.6z M194,151.7
	c1.2,1.2,0,0.4,2,1C194.9,151.5,196.1,152.3,194,151.7z M128.7,154.7c0,0.3,0,0.7,0,1c-0.3,0-0.7,0-1,0c-1.9,0.9,2,1,2,1
	c0.9,1.2-0.1,0.1,1,1C130.1,155.4,130.4,155.9,128.7,154.7z M197.1,158.8c1.2,1.2,0,0.4,2,1C198,158.7,199.1,159.5,197.1,158.8z
	 M156.3,159.9c1.2,1.2,0,0.4,2,1C157.2,159.7,158.3,160.5,156.3,159.9z M259.3,182.4c-1,0-2,0-3.1,0c0-0.7,0-1.4,0-2.1
	c-6.5-1.2-11.5-2.3-18.4-1c-1.4,2.7-1.8,1.7-2,6.2c1,0.3,2,0.7,3.1,1c0,0.3,0,0.7,0,1c0.7,0,1.4,0,2,0c0,0.3,0,0.7,0,1
	c1.4,0,2.7,0,4.1,0c5.8,2,15.5,4.4,18.4,9.2c1.2,0.9,0.1-0.1,1,1c-1,0-2,0-3.1,0c0,0.3,0,0.7,0,1c5.1,0.1,5.2,1,5.1,6.2
	c0.3,0,0.7,0,1,0c0.1,0.9-2.6,11.5-3.1,12.3c-1,0.7-2,1.4-3.1,2.1c0,0.7,0,1.4,0,2.1c-0.3,0-0.7,0-1,0c-0.7,1-1.4,2.1-2,3.1
	c-5.3,3.8-18.4,7.7-26.5,5.1c-1.7,0-3.4,0-5.1,0c0-0.3,0-0.7,0-1c-0.7,0-1.4,0-2,0c0-0.3,0-0.7,0-1c-3.6-1.4-5.6,0.6-8.2-2.1
	c-1.2-1.2-0.4,0-1-2.1c-0.7,0-1.4,0-2,0c0.3-0.7,0.7-1.4,1-2.1c-0.3,0-0.7,0-1,0c-0.6,0.4-0.1,1.7-2,1c0-0.3,0-0.7,0-1
	c-0.3,0-0.7,0-1,0c0-1,0-2.1,0-3.1c1.3-0.8,1.2-0.7,2-2.1c1.4,0,2.7,0,4.1,0c0,0.7,0,1.4,0,2.1c2-0.3,4.1-0.7,6.1-1c0-0.3,0-0.7,0-1
	c-4.1-0.5-3.6-1.7-8.2-2.1c0.7-2,1.4-4.1,2-6.2c3.4,2.1,6.8,4.1,10.2,6.2c2.7,0.3,5.4,0.7,8.2,1c0,0.3,0,0.7,0,1
	c7.5,2.1,13-2.2,13.3-8.2c-1.1-0.5-1.8-1.9-2-2.1c-1,0-2,0-3.1,0c-7.7-3.3-19.4-4.2-23.5-11.3c-0.3,0-0.7,0-1,0
	c-0.3-2.1-0.7-4.1-1-6.2c2.4,0.3,4.8,0.7,7.1,1c0-0.3,0-0.7,0-1c-2.4-0.3-4.8-0.7-7.1-1c-0.1-6.8,1.9-8.4,3.1-13.3
	c1.4,0,2.7,0,4.1,0c0,0.3,0,0.7,0,1c0.3,0,0.7,0,1,0c0.3-0.7,0.7-1.4,1-2.1c2,0,4.1,0,6.1,0c0-0.3,0-0.7,0-1c1,0,2,0,3.1,0
	c0-0.3,0-0.7,0-1c0.7,0,1.4,0,2,0c0.3-0.7,0.7-1.4,1-2.1c0.7,0,1.4,0,2,0c1.7-2.1,3.4-4.1,5.1-6.2c3.4,0,6.8,0,10.2,0
	c0,0.3,0,0.7,0,1c2.4,0.3,4.8,0.7,7.1,1c0,0.3,0,0.7,0,1c0.7,0,1.4,0,2,0c0.5,0.3,0.9,1.4,2,2.1c-0.3,1-0.7,2.1-1,3.1
	c-0.3,0-0.7,0-1,0c0,0.7,0,1.4,0,2.1c-0.3,0-0.7,0-1,0c0,0.7,0,1.4,0,2.1c-0.3,0-0.7,0-1,0C261.7,178.4,260.2,179.4,259.3,182.4z
	 M456.3,181.4c-0.3,1.7-0.7,3.4-1,5.1c2.7,1.4,5.4,2.7,8.2,4.1c1.4,0,2.7,0,4.1,0c6.2,2.1,15.7,4.7,17.3,11.3c1.1,1.1,2.9,5.2,2,8.2
	c-0.3,0-0.7,0-1,0c0,1.7,0,3.4,0,5.1c-0.3,0-0.7,0-1,0c-0.3,1.4-0.7,2.7-1,4.1c-0.3,0-0.7,0-1,0c0,0.7,0,1.4,0,2.1
	c-0.7,0.3-1.4,0.7-2,1c-1.4,1.7-2.7,3.4-4.1,5.1c-0.7,0-1.4,0-2,0c0,0.3,0,0.7,0,1c-1.4,0.3-2.7,0.7-4.1,1c0,0.3,0,0.7,0,1
	c-3.1,1.3-15.6,3.5-20.4,2.1c0-0.3,0-0.7,0-1c-2,0-4.1,0-6.1,0c0-0.3,0-0.7,0-1c-1,0-2,0-3.1,0c0-0.3,0-0.7,0-1c-1,0-2,0-3.1,0
	c0-0.3,0-0.7,0-1c-0.7,0-1.4,0-2,0c0-0.3,0-0.7,0-1c-0.7,0-1.4,0-2,0c0-0.3,0-0.7,0-1c-1.8-1.5-2.4-2.3-5.1-3.1c0-1,0-2.1,0-3.1
	c3.9-2.3,5.4-6.9,10.2-8.2c0-0.7,0-1.4,0-2.1c1,0.3,2,0.7,3.1,1c0,0.3,0,0.7,0,1c0.7,0,1.4,0,2,0c0.3,0.7,0.7,1.4,1,2.1
	c1.4,0.3,2.7,0.7,4.1,1c0,0.3,0,0.7,0,1c4.7,2,12.7,0.8,17.3,0c0.7-1.8,1-3.2,1-6.2c-1-0.3-2-0.7-3.1-1c0-0.3,0-0.7,0-1
	c-0.7,0-1.4,0-2,0c0-0.3,0-0.7,0-1c-1.4,0-2.7,0-4.1,0c-6.2-2.2-17.7-4.7-19.4-11.3c-2-1.9-2.1-5.2-2-9.2c1,0.3,2,0.7,3.1,1
	c0-0.3,0-0.7,0-1c-2.1-1.4-1.9-1.7-2-5.1c0.3,0,0.7,0,1,0c0-1,0-2.1,0-3.1c0.7-0.3,1.4-0.7,2-1c0-0.7,0-1.4,0-2.1
	c1.7-1.4,3.4-2.7,5.1-4.1c0-0.3,0-0.7,0-1c0.7,0,1.4,0,2,0c0-0.3,0-0.7,0-1c2-0.7,4.1-1.4,6.1-2.1c0-0.3,0-0.7,0-1
	c2.7-1.1,17.4-2.3,21.4-1c0,0.3,0,0.7,0,1c1.4,0,2.7,0,4.1,0c0,0.3,0,0.7,0,1c2,0.7,4.1,1.4,6.1,2.1c0,0.3,0,0.7,0,1
	c0.7,0,1.4,0,2,0c0,0.3,0,0.7,0,1c1,0.7,2,1.4,3.1,2.1c-0.9,1.2,0.1,0.1-1,1c-3.1,3.8-6.1,7.5-9.2,11.3c-2.2,0.7-8.6-4.5-10.2-5.1
	c-1.4,0-2.7,0-4.1,0C460.6,178.5,461.3,180.4,456.3,181.4z M280.8,166c5.8,0,11.6,0,17.3,0c-0.3,3.4-0.7,6.8-1,10.3
	c-0.7,0-1.4,0-2,0c1.9,4.8-0.5,14.6-2,19.5c0,2.1,0,4.1,0,6.2c-0.3,0-0.7,0-1,0c0,0.3,0,0.7,0,1c-1,0-2,0-3.1,0c0-0.3,0-0.7,0-1
	c-2-0.3-4.1-0.7-6.1-1c0,0.3,0,0.7,0,1c1.2,1.2,0.4,0,1,2.1c-1.7-0.3-3.4-0.7-5.1-1c0,0.3,0,0.7,0,1c3.5,0.3,4.2,1,7.1,2.1
	c0,0.3,0,0.7,0,1c0.3,0,0.7,0,1,0c0-0.3,0-0.7,0-1c1.4,0.3,2.7,0.7,4.1,1c-1,7.5-2,15-3.1,22.6c-1,0.3-2,0.7-3.1,1
	c-2.3,2.1-11.1,1.1-15.3,1c0.3-3.4,0.7-6.8,1-10.3c0.7-0.3,1.4-0.7,2-1c-0.2-1.3-1.8-1.8-1-4.1c0.3,0,0.7,0,1,0c0-0.7,0-1.4,0-2.1
	c0.3,0,0.7,0,1,0c0.8-2.4-0.7-2.5-1-3.1c0-0.3,0-0.7,0-1c0.3,0,0.7,0,1,0c0-2.1,0-4.1,0-6.2c0.3,0,0.7,0,1,0c1.1-1.7,1.4-1.7,2-4.1
	c0.7,0,1.4,0,2,0c0-0.3,0-0.7,0-1c-2.6-1.5-2.9-2.1-3.1-6.2C277.4,183.8,279.1,174.9,280.8,166z M362.4,177.3c-0.7,0-1.4,0-2,0
	c0,0.3,0,0.7,0,1c3.1,0.3,2.8,0.1,4.1,2.1c4.6,4.5,2.3,14.3,2,21.5c-1.7,0-3.4,0-5.1,0c0,0.3,0,0.7,0,1c2.4,0.2,2.5,0.4,4.1,1
	c-0.7,2.1-1.4,4.1-2,6.2c-0.7,0.3-1.4,0.7-2,1c-0.3,1-0.7,2.1-1,3.1c-1.7-0.3-3.4-0.7-5.1-1c0,0.3,0,0.7,0,1c1,0,2,0,3.1,0
	c0,1,0,2.1,0,3.1c-3,1.8-2.9,3-8.2,3.1c-1.2-1.2,0-0.4-2-1c0-0.7,0-1.4,0-2.1c-2,0.3-4.1,0.7-6.1,1c1.2,1.2,0,0.4,2,1
	c0,0.7,0,1.4,0,2.1c-1.7,0-3.4,0-5.1,0c0,0.3,0,0.7,0,1c3.8,0.1,7.3,0.9,10.2,2.1c-1.2,1.2,0,0.4-2,1c-1.3,1.6-5.4,3.2-9.2,2.1
	c-8.2-2.4-16.3-4.8-24.5-7.2c0-0.7,0-1.4,0-2.1c-1,0-2,0-3.1,0c0-0.3,0-0.7,0-1c-1.7,0.7-3.4,1.4-5.1,2.1c0,0.3,0,0.7,0,1
	c1.4,0,2.7,0,4.1,0c0,0.3,0,0.7,0,1c1.4,0,2.7,0,4.1,0c-0.3,1.7-0.7,3.4-1,5.1c1,0.3,2,0.7,3.1,1c0-1.4,0-2.7,0-4.1c0.7,0,1.4,0,2,0
	c0.3,0.7,0.7,1.4,1,2.1c1.4,0,2.7,0,4.1,0c0-0.3,0-0.7,0-1c2,0.3,4.1,0.7,6.1,1c0.3,1,0.7,2.1,1,3.1c1,0,2,0,3.1,0
	c0-0.7,0-1.4,0-2.1c2,0.7,4.1,1.4,6.1,2.1c0,0.3,0,0.7,0,1c-9.6,0.9-29.4,4.9-39.8,1c1.3-3.5,1.9-7.8,2-12.3c1,0,2,0,3.1,0
	c0-0.7,0-1.4,0-2.1c-0.7,0-1.4,0-2,0c0.3-2.1,0.7-4.1,1-6.2c0.3,0,0.7,0,1,0c2.2,2.5,2.5,1,6.1,2.1c0,0.3,0,0.7,0,1
	c1-0.3,2-0.7,3.1-1c0,0.3,0,0.7,0,1c2,0.3,4.1,0.7,6.1,1c0,0.3,0,0.7,0,1c2.4,0,4.8,0,7.1,0c0.8,0.2,6.9,2.7,8.2,2.1
	c0-0.3,0-0.7,0-1c-0.7,0-1.4,0-2,0c-0.8-1.2,0.6-0.9,1-1c0-0.3,0-0.7,0-1c1.6-0.9,2.7,0.3,3.1,1c0.3,0,0.7,0,1,0
	c0.3-1,0.7-2.1,1-3.1c1-0.3,2-0.7,3.1-1c2.4-1.8,5.4-7.8,6.1-11.3c1,0,2,0,3.1,0c0-0.3,0-0.7,0-1c-1-0.3-2-0.7-3.1-1
	c0-0.3,0-0.7,0-1c0.3,0,0.7,0,1,0c-0.3-2.4-0.7-4.8-1-7.2c-0.3,0-0.7,0-1,0c0-0.7,0-1.4,0-2.1c-0.3,0-0.7,0-1,0
	c-0.3-1-0.7-2.1-1-3.1c-6.5-1.2-9.5-3-18.4-3.1c-0.9,1.2,0.1,0.1-1,1c-0.7,3.4-1.4,6.8-2,10.3c-5.7-0.9-11.1-3-16.3-4.1
	c0-8.3,2.8-12.6,3.1-20.5c7.2-3.8,23.1-2.1,33.7-2.1c0,0.3,0,0.7,0,1c1.7,0,3.4,0,5.1,0c0,0.3,0,0.7,0,1c0.7,0,1.4,0,2,0
	c0,0.3,0,0.7,0,1c1,0,2,0,3.1,0c0,0.3,0,0.7,0,1C358,172.1,361.2,172.7,362.4,177.3z M428.8,181.4c-6.4,0-14.5,0-19.4-1
	c-2.2-0.5-3.1,1-3.1,1c-4.1,0-8.2,0-12.2,0c-0.3,3.4-0.7,6.8-1,10.3c-0.7,0-1.4,0-2,0c0,0.3,0,0.7,0,1c1,0,2,0,3.1,0
	c0-0.3,0-0.7,0-1c2.1-1.2,4.2,1.2,5.1,1c0-0.3,0-0.7,0-1c2.4,0,4.8,0,7.1,0c0,0.3,0,0.7,0,1c0.3,0,0.7,0,1,0c0-0.3,0-0.7,0-1
	c5.4,0,10.9,0,16.3,0c-0.7,4.4-1.4,8.9-2,13.3c-10.2,0-20.4,0-30.6,0c-0.3,1-0.7,2.1-1,3.1c-0.3,0-0.7,0-1,0c0,2.7,0,5.5,0,8.2
	c4.8,0,9.5,0,14.3,0c0,0.3,0,0.7,0,1c1.4,0.3,2.7,0.7,4.1,1c0-0.7,0-1.4,0-2.1c5.1,0,10.2,0,15.3,0c-0.7,5.1-1.4,10.3-2,15.4
	c-7.5,0-15,0-22.5,0c0-0.3,0-0.7,0-1c-1.4,0-2.7,0-4.1,0c0-0.3,0-0.7,0-1c-0.3,0-0.7,0-1,0c-1.4,0.4,0.4,0.8-1,1
	c-3.9-1.8-9.1-3.6-14.3-4.1c0,0.3,0,0.7,0,1c3.7,0.3,6.3,2,9.2,3.1c1.4,0,2.7,0,4.1,0c0,0.3,0,0.7,0,1c-7.5,0-15,0-22.5,0
	c0-2.1,0-4.1,0-6.2c0.7,0,1.4,0,2,0c-0.3-0.8-2.2-4.2-1-6.2c0.3,0,0.7,0,1,0c0-0.3,0-0.7,0-1c1,0,2,0,3.1,0c1.2,1.2,0,0.4,2,1
	c-0.3,0.7-0.7,1.4-1,2.1c0.3,0,0.7,0,1,0c0,0.7,0,1.4,0,2.1c1,1.1,1-1,1-1c2,0.7,4.1,1.4,6.1,2.1c0-1,0-2.1,0-3.1c0.3,0,0.7,0,1,0
	c0.7,0.7,14.9,5.5,17.3,4.1c0-0.3,0-0.7,0-1c-3.9-0.3-8-2-11.2-3.1c-1.4,0-2.7,0-4.1,0c0-0.3,0-0.7,0-1c-0.7,0-1.4,0-2,0
	c0-0.3,0-0.7,0-1c-1.7,0-3.4,0-5.1,0c0-0.3,0-0.7,0-1c-2.4-0.3-4.8-0.7-7.1-1c0-0.3,0-0.7,0-1c-0.3,0-0.7,0-1,0c0-1,0-2.1,0-3.1
	c0.3,0,0.7,0,1,0c0-1.7,0-3.4,0-5.1c0.3,0,0.7,0,1,0c0-0.7,0-1.4,0-2.1c0.3,0,0.7,0,1,0c0.4-1.5-1-2.1-1-2.1c-0.2-2.2,1-2.1,1-2.1
	c0-2.1,0-4.1,0-6.2c0.3,0,0.7,0,1,0c0.3-2.1,0.7-4.1,1-6.2c0.7,0,1.4,0,2,0c-1.2-1.2,0-0.4-2-1c0-3.3,2.9-20.2,4.1-21.5
	c2.3-2.1,10.2-1,14.3-1c12.6,0,25.2,0,37.8,0c0,0.3,0,0.7,0,1C430.8,168.2,429,179,428.8,181.4z M256.3,170.1
	c1.2,1.4,1.9,1.6,4.1,2.1c0-0.3,0-0.7,0-1c-1.2-0.9-0.1,0.1-1-1C258.3,170.1,257.3,170.1,256.3,170.1z M329.8,172.2c0.7,0,1.4,0,2,0
	c0-0.3,0-0.7,0-1c-1.2-0.9-0.1,0.1-1-1c-0.3,0-0.7,0-1,0C329.8,170.8,329.8,171.5,329.8,172.2z M352.2,177.3c0.7,0,1.4,0,2,0
	c0-0.7,0-1.4,0-2.1c0.7,0,1.4,0,2,0c0,0.7,0,1.4,0,2.1c1,0,2,0,3.1,0c0-0.3,0-0.7,0-1c-1.2-1.2-0.4,0-1-2.1c-2.4-0.3-4.8-0.7-7.1-1
	c0,0.3,0,0.7,0,1C354.3,175.2,352.3,174.1,352.2,177.3z M392,176.3c0-0.7,0-1.4,0-2.1c-3.6-0.3-7.7-2.2-10.2,0
	C385.2,174.9,388.6,175.6,392,176.3z M335.9,175.2c1.2,1.2,0,0.4,2,1C336.8,175.1,337.9,175.9,335.9,175.2z M257.3,176.3
	c-0.7,0-1.4,0-2,0c0.9,1.2-0.1,0.1,1,1c0,0.3,0,0.7,0,1c0.3,0,0.7,0,1,0C257.3,177.6,257.3,177,257.3,176.3z M342,176.3
	c0,0.7,0,1.4,0,2.1c0.7,0,1.4,0,2,0c0-0.7,0-1.4,0-2.1C343.4,176.3,342.7,176.3,342,176.3z M280.8,179.3c0,0.7,0,1.4,0,2.1
	c1,0,2,0,3.1,0c0-0.3,0-0.7,0-1c-0.3,0-0.7,0-1,0c1.6-2.3,1.7,0.1,3.1-1c0-0.3,0-0.7,0-1C284.2,178.7,282.5,179,280.8,179.3z
	 M142,180.4c-0.1,2.3-1.1,8.8-1,9.2c0.3,0,0.7,0,1,0c0,2.1,0,4.1,0,6.2c0.3,0,0.7,0,1,0c0,0.7,0,1.4,0,2.1c0.3,0,0.7,0,1,0
	c2.4,4.6,2.4,8.8,8.2,10.3c0,0.7,0,1.4,0,2.1c5.3,0.5,12.6,5.6,20.4,3.1c0-0.3,0-0.7,0-1c1,0,2,0,3.1,0c0-0.3,0-0.7,0-1
	c0.7,0,1.4,0,2,0c0-0.3,0-0.7,0-1c0.7,0,1.4,0,2,0c0.3-0.7,0.7-1.4,1-2.1c2.3-0.9,2.8,1,4.1,1c0-0.3,0-0.7,0-1c0.3,0,0.7,0,1,0
	c0,0.3,0,0.7,0,1c1,0,2,0,3.1,0c0,0.3,0,0.7,0,1c1.4,0,2.7,0,4.1,0c0.3,0.7,0.7,1.4,1,2.1c0.7-0.3,1.4-0.7,2-1
	c3.1,1.1,3,1.9,8.2,2.1c-1.1,5-8.5,12.8-14.3,13.3c0,0.7,0,1.4,0,2.1c-1,0.3-2,0.7-3.1,1c0,0.3,0,0.7,0,1c-1,0-2,0-3.1,0
	c0,0.3,0,0.7,0,1c-0.7,0-1.4,0-2,0c0,0.3,0,0.7,0,1c-1.4,0-2.7,0-4.1,0c0,0.3,0,0.7,0,1c-1.4,0-2.7,0-4.1,0c0,0.3,0,0.7,0,1
	c-4.1,1.2-19.8-1-22.5-2.1c0-0.3,0-0.7,0-1c-1.4-0.3-2.7-0.7-4.1-1c0-0.3,0-0.7,0-1c-1,0-2,0-3.1,0c-0.3-0.7-0.7-1.4-1-2.1
	c-0.7,0-1.4,0-2,0c-0.3-0.7-0.7-1.4-1-2.1c-0.7,0-1.4,0-2,0c-0.3-0.7-0.7-1.4-1-2.1c-2-1.7-4.1-3.4-6.1-5.1c0-0.7,0-1.4,0-2.1
	c-1-0.7-2-1.4-3.1-2.1c-0.3-1.4-0.7-2.7-1-4.1c-4.8-8.9-6.2-14.5-6.1-28.7c1.6-0.6,2.4-0.9,5.1-1c0,0.3,0,0.7,0,1c1.4,0-0.4-0.9,1-1
	C131.8,180.4,136.9,180.4,142,180.4z M162.4,180.4c2.7,0,5.4,0,8.2,0c3.2,5.3,4.2,2.7,4.1,12.3c-1.2,1.2-0.4,0-1,2.1
	c-4.6,2.3-12.2,5.7-14.3-2.1c-0.3,0-0.7,0-1,0c0-2.7,0-5.5,0-8.2c0.3,0,0.7,0,1,0C160.4,183.1,161.4,181.7,162.4,180.4z
	 M230.8,180.4c0.5,0.4,1.3,1.9,3.1,1c0-0.3,0-0.7,0-1C232.8,180.4,231.8,180.4,230.8,180.4z M384.9,182.4c0.7,0,1.4,0,2,0
	c0-0.3,0-0.7,0-1c-1.2-0.9-0.1,0.1-1-1c-0.3,0-0.7,0-1,0C384.9,181.1,384.9,181.7,384.9,182.4z M208.3,186.5c1.2,1.2,0,0.4,2,1
	C209.2,186.4,210.4,187.1,208.3,186.5z M391,187.6c-0.7,0-1.4,0-2,0c0.9,1.2-0.1,0.1,1,1c0,0.3,0,0.7,0,1c0.3,0,0.7,0,1,0
	C391,188.9,391,188.2,391,187.6z M306.3,189.6c5.8,1.4,11.6,2.7,17.3,4.1c-1,6.5-2,13-3.1,19.5c-2-0.3-4.1-0.7-6.1-1
	c0-0.3,0-0.7,0-1c2.4-0.6,1.9-0.3,3.1-2.1c-3.1-0.7-6.1-1.4-9.2-2.1c0,0.7,0,1.4,0,2.1c0.7,0,1.4,0,2,0c0,0.7,0,1.4,0,2.1
	c-2.4-0.7-4.8-1.4-7.1-2.1c0-0.7,0-1.4,0-2.1c1,0,2,0,3.1,0c0-0.3,0-0.7,0-1c-0.7,0-1.4,0-2,0C304.2,197.5,306.1,197.1,306.3,189.6z
	 M354.3,189.6c1.2,1.2,0,0.4,2,1C355.1,189.5,356.3,190.2,354.3,189.6z M226.7,190.6c1.2,1.2,0,0.4,2,1
	C227.6,190.5,228.7,191.2,226.7,190.6z M232.8,191.7c1.2,2,1.4,2.4,4.1,3.1c0.9-1.2-0.1-0.1,1-1c0-0.3,0-0.7,0-1
	C235.2,192.6,234.4,192.3,232.8,191.7z M134.8,193.7c1.2,1.2,0,0.4,2,1C135.7,193.6,136.9,194.3,134.8,193.7z M238.9,193.7
	c0,0.3,0,0.7,0,1c1.4,0,2.7,0,4.1,0c0-0.3,0-0.7,0-1C241.7,193.7,240.3,193.7,238.9,193.7z M249.1,193.7c-0.3,1-0.7,2.1-1,3.1
	c0.3,0,0.7,0,1,0c1.2-1.2,0-0.4,2-1c0,1.4,0,2.7,0,4.1c0.3,0,0.7,0,1,0c0-1,0-2.1,0-3.1c0.3,0,0.7,0,1,0c0,0.3,0,0.7,0,1
	c2,0.3,4.1,0.7,6.1,1c0-0.3,0-0.7,0-1c-3.4-0.3-5.6-0.5-4.1-3.1C253.2,194.4,251.2,194,249.1,193.7z M244,194.7
	c0.5,0.4,1.3,1.9,3.1,1c0-0.3,0-0.7,0-1C246.1,194.7,245.1,194.7,244,194.7z M410.4,195.8c0.5,0.4,1.3,1.9,3.1,1c0-0.3,0-0.7,0-1
	C412.4,195.8,411.4,195.8,410.4,195.8z M139.9,198.8c1.2,1.2,0,0.4,2,1C140.8,198.7,142,199.4,139.9,198.8z M419.6,198.8
	c1.2,1.2,0,0.4,2,1C420.4,198.7,421.6,199.4,419.6,198.8z M448.1,198.8c0,0.3,0,0.7,0,1c-0.2,0.2-3.5-0.6-2,1c0.3,0,0.7,0,1,0
	c0.6,0.4,0.1,1.7,2,1c0-0.3,0-0.7,0-1c0.7,0,1.4,0,2,0c0-0.3,0-0.7,0-1C450.2,199.5,449.2,199.2,448.1,198.8z M352.2,199.9
	c1.2,1.2,0,0.4,2,1C353.1,199.7,354.2,200.5,352.2,199.9z M358.3,200.9c1.2,1.2,0,0.4,2,1C359.2,200.7,360.4,201.5,358.3,200.9z
	 M262.4,204c0.5,0.4,1.3,1.9,3.1,1c0-0.3,0-0.7,0-1C264.5,204,263.4,204,262.4,204z M203.2,206c-1.4,0.3-2.7,0.7-4.1,1
	c0-0.3,0-0.7,0-1c-1.4-0.3-2.7-0.7-4.1-1c0,0.3,0,0.7,0,1c0.3,0,0.7,0,1,0c1.5,1.5,5.1,2.2,7.1,3.1C203.2,208.1,203.2,207,203.2,206
	z M255.3,205c-1,0-2,0-3.1,0c0,0.3,0,0.7,0,1c0.7,0,1.4,0,2,0c0,0.3,0,0.7,0,1C255.2,208.9,255.3,205,255.3,205z M374.7,205
	c0.5,0.4,1.3,1.9,3.1,1c0-0.3,0-0.7,0-1C376.7,205,375.7,205,374.7,205z M379.8,206c1.2,1.2,0,0.4,2,1
	C380.6,205.9,381.8,206.6,379.8,206z M355.3,207c1.2,1.2,0,0.4,2,1C356.2,206.9,357.3,207.6,355.3,207z M383.8,207
	c0.5,0.4,1.3,1.9,3.1,1c0-0.3,0-0.7,0-1C385.9,207,384.9,207,383.8,207z M137.9,208.1c0.9,1.1,1.8,1.4,3.1,2.1
	C139.8,208.3,140.3,208.7,137.9,208.1z M469.6,208.1c1.2,1.2,0,0.4,2,1C470.4,207.9,471.6,208.7,469.6,208.1z M257.3,209.1
	c1.2,1.2,0,0.4,2,1C258.2,208.9,259.3,209.7,257.3,209.1z M132.8,210.1c1.2,1.2,0,0.4,2,1C133.7,210,134.8,210.7,132.8,210.1z
	 M274.7,210.1c0.5,0.5,7.9,2.8,9.2,2.1c0-0.3,0-0.7,0-1C281.1,210.6,278.6,210.1,274.7,210.1z M149.1,211.1c1.2,1.4,1.9,1.6,4.1,2.1
	C152,211.8,151.4,211.6,149.1,211.1z M190,214.2c1.7,0.3,3.4,0.7,5.1,1c0-0.3,0-0.7,0-1c-1.2-0.9-0.1,0.1-1-1
	c-2.4-0.2-2.5-0.4-4.1-1C190,212.8,190,213.5,190,214.2z M310.4,214.2c-1,0-2,0-3.1,0c0,0.3,0,0.7,0,1c0.7,0,1.4,0,2,0
	c0.9,1.2-0.1,0.1,1,1C310.4,215.6,310.4,214.9,310.4,214.2z M150.2,219.3c0-0.7,0-1.4,0-2.1c-3.6-0.5-3.3-0.4-7.1-1c0,0.3,0,0.7,0,1
	c1.2,0.9,0.1-0.1,1,1c1,0.3,2,0.7,3.1,1c1.4,0-0.4-1.1,1-1c0,0.3,0,0.7,0,1C148.8,219.3,149.5,219.3,150.2,219.3z M151.2,217.3
	c0,0.7,0,1.4,0,2.1c1,0,2,0,3.1,0c0-0.3,0-0.7,0-1C153.2,218,152.2,217.6,151.2,217.3z M335.9,217.3c0,0.3,0,0.7,0,1
	c1.4,0,2.7,0,4.1,0c0-0.3,0-0.7,0-1C338.6,217.3,337.2,217.3,335.9,217.3z M223.6,218.3c0.5,0.4,1.3,1.9,3.1,1c0-0.3,0-0.7,0-1
	C225.7,218.3,224.7,218.3,223.6,218.3z M227.7,219.3c0.7,1,1.4,2.1,2,3.1c1.3,0.6-0.2-0.7,1-1c2.2-0.5,3.1,1,3.1,1c0.3,0,0.7,0,1,0
	c0-0.3,0-0.7,0-1c0.7,0.3,1.4,0.7,2,1c-3-4.6-2.7-1.2-6.1-2.1c0-0.3,0-0.7,0-1C229.8,219.3,228.7,219.3,227.7,219.3z M410.4,219.3
	c1.2,1.2,0,0.4,2,1C411.3,219.2,412.4,220,410.4,219.3z M413.4,219.3c1.1,1.8,0.6,1.4,3.1,2.1c0-0.3,0-0.7,0-1
	C415.5,220,414.5,219.7,413.4,219.3z M286.9,220.4c-0.7,0-1.4,0-2,0c0.9,1.2-0.1,0.1,1,1c0,0.3,0,0.7,0,1c0.3,0,0.7,0,1,0
	C286.9,221.7,286.9,221,286.9,220.4z M434.9,220.4c-0.7,0-1.4,0-2,0c0.9,1.2-0.1,0.1,1,1c0,0.3,0,0.7,0,1c0.3,0,0.7,0,1,0
	C434.9,221.7,434.9,221,434.9,220.4z M347.1,221.4c1.7,0,3.4,0,5.1,0c0,0.3,0,0.7,0,1c-0.3,0-0.7,0-1,0c0,0.3,0,0.7,0,1
	c-1.3-0.5,0.3-0.4-1-1c-1,0-2,0-3.1,0C347.1,222.1,347.1,221.7,347.1,221.4z M221.6,223.4c0,0.3,0,0.7,0,1c-0.2,0.2-3.5-0.6-2,1
	c0.3,0,0.7,0,1,0c1.4,1.6,2.2,1.8,5.1,2.1c0-0.3,0-0.7,0-1c-1.5-1-2.8-1.4-1-3.1C223.6,223.4,222.6,223.4,221.6,223.4z M238.9,223.4
	c-0.3,0.7-0.7,1.4-1,2.1c0.1,0,3-1.6,2-2.1C239.6,223.4,239.3,223.4,238.9,223.4z M271.6,223.4c0,0.7,0,1.4,0,2.1c0.3,0,0.7,0,1,0
	c0-0.7,0-1.4,0-2.1C272.3,223.4,271.9,223.4,271.6,223.4z M275.7,224.5c0.6,0.7,2.4,2.8,4.1,2.1c0-0.3,0-0.7,0-1c0.7,0,1.4,0,2,0
	c0-0.3,0-0.7,0-1C279.8,224.5,277.7,224.5,275.7,224.5z M338.9,224.5c1.2,1.2,0,0.4,2,1C339.8,224.3,341,225.1,338.9,224.5z
	 M436.9,224.5c1.2,1.2,0,0.4,2,1C437.8,224.3,439,225.1,436.9,224.5z M156.3,225.5c0,0.3,0,0.7,0,1c7.5,1.7,15,3.4,22.5,5.1
	c0-0.3,0-0.7,0-1c-1.2-0.9-0.1,0.1-1-1c-2.4-0.3-4.8-0.7-7.1-1c0-0.3,0-0.7,0-1c-0.7,0.3-1.4,0.7-2,1
	C164.6,227.5,161.3,225.8,156.3,225.5z M374.7,225.5c-0.7,0-1.4,0-2,0c0.9,1.2-0.1,0.1,1,1c0,0.3,0,0.7,0,1c0.3,0,0.7,0,1,0
	C374.7,226.9,374.7,226.2,374.7,225.5z M455.3,225.5c0.6,0.6,6,3.4,8.2,2.1c0-0.3,0-0.7,0-1C460.7,226.2,458,225.8,455.3,225.5z
	 M152.2,226.5c0.5,0.4,1.3,1.9,3.1,1c0-0.3,0-0.7,0-1C154.2,226.5,153.2,226.5,152.2,226.5z M279.8,229.6c0-0.7,0-1.4,0-2.1
	c-4-0.3-3-1-6.1,0c1.2,1.2,0,0.4,2,1c0,0.3,0,0.7,0,1C277,229.6,278.4,229.6,279.8,229.6z M308.3,227.5c1.2,2,1.4,2.4,4.1,3.1
	C311.4,229.4,309.8,228.3,308.3,227.5z M236.9,228.6c1.2,1.2,0,0.4,2,1C237.8,228.4,238.9,229.2,236.9,228.6z M416.5,228.6
	c1.2,1.2,0,0.4,2,1C417.4,228.4,418.5,229.2,416.5,228.6z"/>
<g>
	<path class="st2" d="M335.6,108.8h18.6c4.1,0,7.5,0.7,10.2,2.1c2.7,1.4,4.6,3.4,5.6,6c1,2.6,1.1,5.7,0.3,9.2
		c-0.6,2.4-1.7,4.6-3.4,6.5c-1.7,1.9-3.8,3.5-6.4,4.6l6.2,16.4h-14.3l-4.5-14.4h-5.3l-3.1,14.4H326L335.6,108.8z M350.2,128.9
		c1.8,0,3.2-0.3,4.3-1c1.1-0.6,1.8-1.6,2.1-2.7c0.5-1.9,0.3-3.3-0.6-4.3c-0.9-1-2.3-1.5-4.3-1.5h-4.8l-2.1,9.5H350.2z"/>
	<path class="st2" d="M380.4,108.8h17.2c5.2,0,9.5,1.1,12.8,3.4c3.3,2.3,5.5,5.3,6.7,9.2c1.2,3.9,1.3,8.2,0.2,13
		c-0.8,3.9-2.4,7.2-4.8,10.1s-5.5,5.1-9.1,6.8c-3.7,1.6-7.8,2.4-12.4,2.4h-20.2L380.4,108.8z M392.1,141.7c2.7,0,5-0.9,6.9-2.6
		c1.9-1.7,3.2-4,3.8-6.7c0.5-2.2,0.6-4.1,0.3-5.9c-0.3-1.8-1-3.2-2.2-4.2c-1.2-1-2.9-1.6-5-1.6h-3.8l-4.5,21H392.1z"/>
	<path class="st2" d="M462.6,137.1c-2.5,11.8-9.8,17.7-21.8,17.7c-4,0-7.3-0.6-9.8-1.7s-4.5-2.7-5.8-4.8c-1.3-2-2.1-4.4-2.3-7
		s0-5.4,0.6-8.4l5.2-24.1h14.5l-5.6,26.1c-0.3,1.2-0.4,2.3-0.3,3.5c0.1,1.2,0.4,2.1,1.1,2.9c0.7,0.8,1.9,1.2,3.5,1.2
		c1.9,0,3.3-0.6,4.4-1.8c1-1.2,1.8-3.1,2.4-5.8l5.6-26.1h14.4L462.6,137.1z"/>
</g>
</svg>
