<?xml version="1.0" encoding="utf-8"?>
<!-- Generator: Adobe Illustrator 25.4.1, SVG Export Plug-In . SVG Version: 6.00 Build 0)  -->
<svg version="1.1" id="Layer_1" xmlns:svg="http://www.w3.org/2000/svg"
	 xmlns="http://www.w3.org/2000/svg" xmlns:xlink="http://www.w3.org/1999/xlink" x="0px" y="0px" viewBox="0 0 525 390"
	 style="enable-background:new 0 0 525 390;" xml:space="preserve">
<g>
	<g id="layer1">
		<g id="svg_1">
			<g id="g3601" transform="matrix(0.37060824,0,0,0.37167383,-1949.804,1043.9323) ">
				<path id="path3624" d="M5766.5-2148.5c-20.1-3.1-33.4-7.1-48.3-14.9c-39.2-20.3-65.8-56.4-73.9-100.1
					c-2.3-12.3-2.2-35.9,0.2-48.3c5.5-28.9,18.1-52.7,39-73.6c16.8-16.8,33.8-27.3,55.7-34.5c14.7-4.8,25.3-6.4,43.3-6.3
					c24.2,0.1,41.3,4.2,62.8,15.1c39.2,19.9,66.5,57.2,74.2,101.1c1.9,11,1.9,34.4-0.1,45.8c-8.6,49.8-43.6,91.6-91,108.3
					c-15.1,5.3-25.3,7.1-43,7.5C5776.7-2148.2,5768.1-2148.3,5766.5-2148.5L5766.5-2148.5L5766.5-2148.5z M5814.4-2004.4
					c68.4-8,132.6-40.9,177.9-91c65.5-72.6,89.5-169.4,65.4-263.6c-9.5-37.2-31-79.4-55.1-108.4c-41.4-49.8-97.3-84.2-159.1-97.9
					c-22.5-5-33.1-6-62-6c-29.8,0-43.1,1.5-67,7.3c-103.3,25.2-184.3,106.3-209.6,209.6c-5.9,24.1-7.3,37.2-7.3,67
					c0,23.1,0.3,29.1,2.2,41.4c9.7,62.2,36.7,115.7,80.6,159.7c45.4,45.6,104,74.1,167.9,81.8
					C5763.9-2002.6,5798.5-2002.6,5814.4-2004.4L5814.4-2004.4L5814.4-2004.4z"/>
				<path id="path3605" d="M6281.2-2014.2c3.1-1.8,5.7-4.4,7.5-7.5l2.8-4.7l0.5-148.5l0.5-148.5l2.2-7.7
					c3.2-11.4,7.7-21.6,13.2-29.9c29.4-44.7,88.4-61.3,136.7-38.5c16.3,7.7,30,18.7,40.5,32.5c6.3,8.2,14.1,24.1,17.1,34.6l2.3,8
					l0.5,148.5c0.4,119.3,0.8,149.1,1.8,151.5c0.7,1.7,3,4.7,5,6.8c6.6,6.7,6.3,6.7,72.6,6.7c32.5,0,60.8-0.4,62.9-0.9
					c5.4-1.3,10.9-5.4,13.8-10.3l2.4-4.2v-155.5c0-144.3-0.1-156.4-1.8-167.5c-13.3-89-70.2-162.9-153.7-199.8
					c-32.2-14.2-64.2-21.3-101.1-22.4c-47.5-1.4-89.2,7.8-130.9,28.9c-24.6,12.5-47.2,28.9-67,48.7c-37.7,37.7-62.2,84.7-70.9,136
					c-3.8,22.6-4.2,39.3-3.9,188c0.3,134.5,0.4,142.7,2.1,146.1c2.6,5.2,7.8,9.8,12.8,11.4c3.6,1.1,15.8,1.3,65.9,1.2l61.5-0.2
					L6281.2-2014.2L6281.2-2014.2z"/>
			</g>
			<path id="rect4435" d="M11.3,3.9H56c3.3,0,6,3.2,6,7.3v44.6c0,4-2.7,7.3-6,7.3H11.3c-3.3,0-6-3.3-6-7.3V11.2
				C5.3,7.1,7.9,3.9,11.3,3.9z"/>
			<path id="path4438" d="M10.3,90.6H56c3.4,0,6.1,3.3,6.1,7.3v193.6c0,4-2.7,7.3-6.1,7.3H10.3c-3.4,0-6.1-3.2-6.1-7.3V97.9
				C4.2,93.9,6.9,90.6,10.3,90.6L10.3,90.6z"/>
			<path id="path4447" d="M2.4,324.7v10h19.9v51.9h11.5v-51.9h19.9v-10L2.4,324.7L2.4,324.7z"/>
			<path id="path4449" d="M64.6,324.7v61.8h44.6v-10H76.1v-16.8h29.8v-10H76.1v-15.2h31.4v-10L64.6,324.7L64.6,324.7z"/>
			<path id="path4451" d="M117.6,324.7v61.8h39.1v-10h-27.6v-51.9C129.2,324.7,117.6,324.7,117.6,324.7z"/>
			<path id="path4453" d="M166.7,324.7v61.8h44.6v-10h-33.1v-16.8H208v-10h-29.8v-15.2h31.4v-10L166.7,324.7L166.7,324.7z"/>
			<path id="path4455" d="M215.2,324.7l25.5,61.8h10l26.2-61.8h-12.5l-18.2,46.7l-17.7-46.7H215.2z"/>
			<path id="path4457" d="M285.9,324.7v61.8h11.5v-61.8H285.9z"/>
			<path id="path4459" d="M332.4,323.2c-3,0-5.9,0.4-8.8,1.1c-2.9,0.8-5.4,1.9-7.6,3.5c-2.2,1.5-4,3.5-5.4,5.8
				c-1.4,2.3-2.1,5.1-2.1,8.3c0,3.7,0.8,6.6,2.3,8.8c1.5,2.2,3.4,3.9,5.7,5.2c2.3,1.3,4.7,2.3,7.4,3.1c2.7,0.8,5.2,1.6,7.4,2.4
				c2.3,0.8,4.1,1.9,5.7,3.1c1.5,1.2,2.3,3,2.3,5.2c0,1.4-0.3,2.6-1,3.7c-0.7,1.1-1.6,2-2.7,2.7c-1.1,0.7-2.3,1.2-3.7,1.6
				c-1.3,0.3-2.7,0.5-4,0.5c-2.6,0-5-0.6-7.3-1.7c-2.3-1.1-4.1-2.7-5.5-4.8l-8.7,8c2.7,3,5.9,5.2,9.6,6.5c3.7,1.3,7.6,1.9,11.6,1.9
				c3.2,0,6.2-0.4,9.1-1.2c2.9-0.8,5.4-2,7.6-3.7c2.2-1.6,3.9-3.7,5.2-6.2c1.3-2.5,1.9-5.4,1.9-8.7c0-3.7-0.8-6.6-2.3-8.8
				c-1.5-2.2-3.4-4-5.7-5.3c-2.3-1.3-4.7-2.4-7.4-3.2c-2.7-0.7-5.2-1.5-7.4-2.4c-2.3-0.8-4.1-1.8-5.7-2.9c-1.5-1.1-2.3-2.7-2.3-4.8
				c0-1.4,0.3-2.6,0.9-3.6c0.6-1,1.4-1.8,2.4-2.5c1-0.6,2.1-1.1,3.4-1.4c1.3-0.3,2.5-0.4,3.9-0.4c2.3,0,4.4,0.4,6.5,1.2
				c2,0.8,3.7,2,4.9,3.7l8.4-8.5c-2.6-2.3-5.4-3.9-8.7-4.9C339.2,323.7,335.8,323.2,332.4,323.2L332.4,323.2z"/>
			<path id="path4461" d="M362.4,324.7v61.8h11.5v-61.8H362.4z"/>
			<path id="path4463" d="M418.9,323.2c-5,0-9.6,0.8-13.8,2.3c-4.2,1.5-7.8,3.7-10.8,6.6c-3,2.9-5.4,6.3-7.1,10.4
				c-1.7,4-2.6,8.5-2.6,13.5c0,4.8,0.9,9.2,2.6,13.2c1.7,4,4.1,7.3,7.1,10.2c3,2.8,6.6,5,10.8,6.6c4.2,1.5,8.8,2.3,13.8,2.3
				c5.1-0.1,9.7-0.9,13.9-2.5c4.2-1.6,7.8-3.8,10.9-6.7c3.1-2.9,5.4-6.3,7.1-10.2c1.7-4,2.6-8.4,2.6-13.2c0-4.9-0.9-9.4-2.6-13.5
				c-1.7-4-4.1-7.5-7.1-10.3c-3.1-2.9-6.7-5-10.9-6.5C428.6,323.8,423.9,323.1,418.9,323.2L418.9,323.2z M419,333.1
				c3.4,0,6.4,0.6,9.2,1.7c2.7,1.1,5.1,2.7,7.1,4.7c2,2,3.5,4.3,4.5,7c1.1,2.7,1.6,5.6,1.6,8.7c0,3.3-0.5,6.4-1.6,9.2
				c-1.1,2.8-2.6,5.2-4.5,7.2c-2,2-4.3,3.6-7.1,4.8c-2.7,1.2-5.8,1.7-9.2,1.7c-3.4,0-6.4-0.6-9.1-1.7c-2.7-1.2-5.1-2.8-7-4.8
				c-2-2-3.5-4.5-4.5-7.2c-1.1-2.8-1.6-5.9-1.6-9.2c0-3.1,0.5-6,1.6-8.7c1.1-2.7,2.6-5,4.5-7c2-2,4.3-3.6,7-4.7
				C412.6,333.7,415.6,333.1,419,333.1z"/>
			<path id="path4465" d="M462.3,324.7v61.8h11.2v-47.4h0.2l31.2,47.4h14.3v-61.8H508v45.9h-0.2l-30.6-45.9H462.3L462.3,324.7z"/>
		</g>
	</g>
</g>
</svg>
