<?xml version="1.0" encoding="utf-8"?>
<!-- Generator: Adobe Illustrator 25.4.1, SVG Export Plug-In . SVG Version: 6.00 Build 0)  -->
<svg version="1.1"
	 id="svg17847" xmlns:cc="http://creativecommons.org/ns#" xmlns:dc="http://purl.org/dc/elements/1.1/" xmlns:inkscape="http://www.inkscape.org/namespaces/inkscape" xmlns:rdf="http://www.w3.org/1999/02/22-rdf-syntax-ns#" xmlns:sodipodi="http://sodipodi.sourceforge.net/DTD/sodipodi-0.dtd" xmlns:svg="http://www.w3.org/2000/svg"
	 xmlns="http://www.w3.org/2000/svg" xmlns:xlink="http://www.w3.org/1999/xlink" x="0px" y="0px" viewBox="0 0 1000 181.4"
	 style="enable-background:new 0 0 1000 181.4;" xml:space="preserve">
<style type="text/css">
	.st0{fill-rule:evenodd;clip-rule:evenodd;fill:#D51900;}
</style>
<sodipodi:namedview  bordercolor="#666666" borderopacity="1" gridtolerance="10" guidetolerance="10" id="namedview5870" inkscape:current-layer="svg17847" inkscape:cx="372.61592" inkscape:cy="106.54354" inkscape:pageopacity="0" inkscape:pageshadow="2" inkscape:window-height="705" inkscape:window-maximized="1" inkscape:window-width="1366" inkscape:window-x="-8" inkscape:window-y="-8" inkscape:zoom="0.5" objecttolerance="10" pagecolor="#ffffff" showgrid="false">
	</sodipodi:namedview>
<g id="layer1" transform="matrix(2.5252523,0,0,2.5252523,-946.16986,-1244.8008)">
	<g id="_x2D_-Symbols" transform="matrix(3.3220133,0,0,3.3220133,374.68251,490.3022)">
		<g id="Footer-1440" transform="translate(-137,-447)">
			<g id="Logo" transform="translate(137,447)">
				<path id="Fill-1" inkscape:connector-curvature="0" class="st0" d="M43.3,8.6c0-0.2,0.1-0.3,0.3-0.3c0.3,0,0.7,0.3,1,0.9
					c-0.1,0-0.2,0-0.3,0C43.7,9.3,43.3,9,43.3,8.6L43.3,8.6z M12,8.6c0-0.2,0.1-0.3,0.3-0.3c0.3,0,0.7,0.3,0.9,0.9
					C12.4,9.2,12,9.1,12,8.6z M18,5.5c0-3.2,0.6-3.7,0.8-3.7c0.3,0,0.4,0.2,0.4,1.5c0,1.3-0.5,2.9-1.2,3.8V5.5z M40,8.7
					c-0.4,0.5-0.7,1.3-0.7,2.2c0,1.8,1,3.5,3,3.5c1.9,0,3.3-1.5,3.3-3.7c0-0.6,0-0.7-0.1-1c0.5-0.2,0.8-0.5,1.1-0.7
					c0.3-0.2,0.5-0.3,0.6-0.3c0.2,0,0.3,0.2,0.3,0.4v4.2c0,0.7,0.2,1,0.8,1c0.5,0,0.8-0.3,1-0.8c0.7-1.5,1.8-3.5,2.2-4.2
					c0.1-0.2,0.2-0.3,0.3-0.3C52,9.1,52,9.2,52,9.5v3.4c0,0.9,0.4,1.6,1.4,1.6c1,0,1.5-1,2.4-2.4c0-0.1,0.1-0.2,0.1-0.2
					c0-0.2-0.2-0.3-0.3-0.3c-0.2,0-0.3,0.2-1,0.9c-0.1,0.1-0.3,0.3-0.5,0.3c-0.1,0-0.2-0.1-0.2-0.2V8.7c0-1-0.5-1.4-1-1.4
					c-0.5,0-0.9,0.2-1.3,0.8c-0.7,1.1-1.5,2.6-1.9,3.4c0,0.1-0.1,0.2-0.2,0.2c0,0-0.1-0.1-0.1-0.2V8.7c0-0.8-0.2-1.4-1.1-1.4
					c-0.9,0-1.3,0.6-2,1.1C46,8.6,45.6,8.9,45.3,9c-0.4-1.1-1.2-1.7-1.9-1.6c-0.7,0-1.1,0.4-1.1,1.1c0,0.7,0.4,1.2,1,1.4
					c0.3,0.1,0.6,0.2,1.1,0.2c0.1,0,0.3,0,0.3,0c0,0.2,0,0.5,0,0.8c0,1.1-0.6,2.1-1.8,2.1c-1.2,0-1.9-1.2-1.9-2.5
					c0-1,0.3-1.9,0.8-2.4c0.2-0.2,0.3-0.3,0.3-0.5c0-0.1-0.1-0.1-0.3-0.1c-0.8,0-1.7,0.4-2.4,0.7c-0.8,0.4-1.8,1.1-2.6,1.9
					c-0.4-0.9-0.9-1.6-1.1-2.2c-0.1-0.2-0.1-0.5-0.3-0.5c-0.2,0-0.2,0.2-0.3,0.4c-0.4,1.1-2.5,4.5-2.9,5c0,0.1-0.1,0.1-0.1,0.1
					c0,0-0.1,0-0.1-0.2V8.7c0-1-0.4-1.4-1-1.4c-0.5,0-0.9,0.2-1.3,0.8c-0.7,1.1-1.6,2.7-2,3.4c-0.1,0.1-0.1,0.2-0.2,0.2
					c0,0,0-0.1,0-0.2V8.7c0-1-0.4-1.4-1-1.4c-0.5,0-0.9,0.2-1.3,0.8c-0.9,1.5-2.4,3.9-2.7,4.3c0,0.1-0.1,0.1-0.1,0.1
					c0,0-0.1,0-0.1-0.1V8.7c0-1-0.4-1.4-1-1.4c-0.8,0-1.2,0.7-1.5,1.2c-0.4,0.6-0.9,1.5-1.3,2.3c-0.3,0.5-0.5,1-0.6,1
					c0,0,0-0.2,0-0.6V8.2c1.4-1.5,2.2-3.4,2.2-5.4c0-1.2-0.5-1.8-1.3-1.8c-1.5,0-2.6,2.3-2.6,5.1v2.2c-0.7,0.4-1.3,0.6-2.1,0.8
					c-0.4-1.2-1.3-1.8-2-1.8c-0.7,0-1.1,0.4-1.1,1.1c0,1.1,1.1,1.6,2.1,1.6h0.3c0,0.2,0,0.5,0,0.7c0,1.1-0.6,2.1-1.8,2.1
					c-1.2,0-1.9-1.2-1.9-2.5c0-1,0.3-1.9,0.8-2.4c0.2-0.2,0.3-0.4,0.3-0.5c0-0.1-0.2-0.1-0.3-0.1c-0.8,0-2.6,1.1-4.8,3.3
					C5.6,8.8,5.4,7.1,5.4,5.5c0-1.8,0.4-3.4,0.4-3.8c0-0.3,0.1-0.5,0.1-0.6c0-0.2-0.1-0.3-0.3-0.3C3.8,0.8,0,3.6,0,7.8
					c0,3,1.1,4.4,3,6.2c-1.1,1.8-2.1,4-2.1,6c0,1.4,0.3,2.5,1.4,2.5c2.2,0,3.8-4.5,3.8-7.8c0-1,0-2-0.1-3c0.8-0.8,2-2,2.3-2.1
					C8.1,10,8,10.4,8,10.9c0,1.8,1,3.5,3,3.5c1.9,0,3.3-1.5,3.3-3.7c0-0.3,0-0.5,0-0.8c0.7-0.1,1.3-0.3,1.9-0.7v4.3
					c0,0.6,0.4,0.8,0.8,0.8c0.5,0,0.8-0.3,1.1-1.1c0.3-0.7,1.1-2.1,1.6-3c0.4-0.7,0.6-1.1,0.8-1.1c0,0,0.1,0.1,0.1,0.4v3.7
					c0,1,0.5,1.3,1,1.3c0.4,0,0.7-0.2,1-0.6c1.1-1.6,2.3-3.5,2.8-4.3c0.1-0.1,0.2-0.3,0.3-0.3c0.1,0,0.1,0,0.1,0.3v3.9
					c0,0.7,0.2,1,0.8,1c0.5,0,0.8-0.3,1-0.8c0.7-1.5,1.8-3.5,2.2-4.2c0.1-0.2,0.2-0.3,0.3-0.3c0.1,0,0.1,0.1,0.1,0.4v3.7
					c0,1,0.5,1.3,1,1.3c0.6,0,1-0.4,1.4-0.9c0.7-0.9,1.7-2.6,2.4-3.7c0.2,0.3,0.5,0.8,0.7,1.2c-0.5,0.6-1,1.3-1,2.1
					c0,0.8,0.6,1.3,1.1,1.3c1,0,1.9-1,1.9-2.3c0-0.5-0.1-1.1-0.3-1.6C38.1,9.7,39.2,8.9,40,8.7L40,8.7z M4.4,13.4
					c0.2,1.1,0.3,2.3,0.3,3.2C4.7,18.6,4,21,2.8,21c-0.5,0-0.8-0.5-0.9-1.3C1.9,17.2,3.1,15,4.4,13.4L4.4,13.4z M35.9,11.9
					c0.1,0.4,0.2,0.7,0.2,1c0,0.3-0.1,0.7-0.4,0.7c-0.2,0-0.3-0.2-0.3-0.5C35.4,12.8,35.7,12.3,35.9,11.9z M5.1,1.6
					c0,0.1-0.3,0.7-0.7,1.8C4,4.6,3.7,6.2,3.7,8.1c0,1.1,0.3,2.7,0.5,4.2l-0.7,0.9c-1.1-1.3-1.8-2.9-1.8-5.5
					C1.7,4.1,3.9,1.5,5.1,1.6C5.1,1.5,5.1,1.6,5.1,1.6z"/>
				<path id="Fill-4" inkscape:connector-curvature="0" class="st0" d="M106.6,8.6c0-0.2,0.1-0.3,0.3-0.3c0.3,0,0.7,0.3,0.9,0.9
					c-0.1,0-0.2,0-0.3,0C107.1,9.3,106.6,9,106.6,8.6z M75.4,8.6c0-0.2,0.1-0.3,0.3-0.3c0.3,0,0.7,0.3,0.9,0.9
					C75.8,9.2,75.4,9.1,75.4,8.6z M81.4,5.5c0-3.2,0.6-3.7,0.8-3.7c0.3,0,0.4,0.2,0.4,1.5c0,1.3-0.5,2.9-1.2,3.8L81.4,5.5z
					 M67.8,13.4c0.2,1.1,0.3,2.3,0.3,3.2c0,2.1-0.7,4.5-1.9,4.5c-0.5,0-0.8-0.5-0.9-1.3C65.3,17.2,66.5,15,67.8,13.4L67.8,13.4z
					 M99.3,11.9c0.1,0.4,0.2,0.7,0.2,1c0,0.3-0.1,0.7-0.4,0.7c-0.2,0-0.3-0.2-0.3-0.5C98.8,12.8,99.1,12.3,99.3,11.9z M68.5,1.6
					c0,0.1-0.3,0.7-0.7,1.8C67.4,4.6,67,6.2,67,8.1c0,1.1,0.3,2.7,0.5,4.2l-0.7,0.9c-1.1-1.3-1.8-2.9-1.8-5.5
					C65.1,4.1,67.3,1.5,68.5,1.6C68.5,1.5,68.5,1.6,68.5,1.6z M64.9,12.4c0.4,0.5,0.9,1,1.4,1.6c-1.1,1.8-2.1,4-2.1,6
					c0,1.4,0.3,2.5,1.4,2.5c2.2,0,3.8-4.5,3.8-7.8c0-1,0-2-0.1-3c0.8-0.8,2-2,2.3-2.1c-0.1,0.5-0.2,0.9-0.2,1.4c0,1.8,1,3.5,3.1,3.5
					c1.9,0,3.3-1.5,3.3-3.7c0-0.3,0-0.5,0-0.8c0.7-0.1,1.3-0.3,1.9-0.7v4.3c0,0.6,0.4,0.8,0.8,0.8c0.5,0,0.8-0.3,1.1-1.1
					c0.3-0.7,1.1-2.1,1.6-3c0.4-0.7,0.6-1.1,0.8-1.1c0,0,0.1,0.1,0.1,0.4v3.7c0,1,0.5,1.3,1,1.3c0.4,0,0.7-0.2,1-0.6
					c1.1-1.6,2.3-3.5,2.8-4.3c0.1-0.1,0.2-0.3,0.3-0.3c0.1,0,0.1,0,0.1,0.3v3.9c0,0.7,0.2,1,0.8,1c0.5,0,0.8-0.3,1-0.8
					c0.7-1.5,1.8-3.5,2.2-4.2c0.1-0.2,0.2-0.3,0.3-0.3c0.1,0,0.1,0.1,0.1,0.4v3.7c0,1,0.5,1.3,1,1.3c0.6,0,1-0.4,1.4-0.9
					c0.7-0.9,1.8-2.6,2.4-3.7c0.2,0.3,0.5,0.8,0.7,1.2c-0.5,0.6-1,1.3-1,2.1c0,0.8,0.6,1.3,1.1,1.3c1,0,1.9-1,1.9-2.3
					c0-0.5-0.2-1.1-0.3-1.6c0.9-0.9,1.9-1.7,2.7-1.9c-0.4,0.5-0.7,1.3-0.7,2.2c0,1.8,1,3.5,3,3.5c1.9,0,3.3-1.5,3.3-3.7
					c0-0.6,0-0.7-0.1-1c0.4-0.2,0.8-0.5,1.1-0.7c0.3-0.2,0.5-0.3,0.6-0.3c0.2,0,0.3,0.2,0.3,0.4v4.2c0,0.7,0.2,1,0.8,1
					c0.5,0,0.8-0.3,1-0.8c0.7-1.5,1.7-3.5,2.2-4.2c0.1-0.2,0.2-0.3,0.3-0.3c0.1,0,0.1,0.1,0.1,0.3v3.4c0,0.9,0.4,1.6,1.4,1.6
					c1,0,1.5-1,2.4-2.4c0-0.1,0.1-0.2,0.1-0.2c0-0.2-0.2-0.3-0.3-0.3c-0.2,0-0.3,0.2-1,0.9c-0.1,0.1-0.3,0.3-0.5,0.3
					c-0.1,0-0.2-0.1-0.2-0.2V8.7c0-1-0.5-1.4-1-1.4c-0.5,0-0.9,0.2-1.3,0.8c-0.7,1.1-1.5,2.6-1.9,3.4c0,0.1-0.1,0.2-0.2,0.2
					c0,0-0.1-0.1-0.1-0.2V8.7c0-0.8-0.2-1.4-1.1-1.4c-0.9,0-1.3,0.6-2,1.1c-0.4,0.3-0.8,0.5-1.1,0.6c-0.4-1.1-1.2-1.7-1.9-1.6
					c-0.7,0-1.1,0.4-1.1,1.1c0,0.7,0.4,1.2,1,1.4c0.3,0.1,0.6,0.2,1.1,0.2c0.1,0,0.3,0,0.3,0c0,0.2,0,0.5,0,0.8
					c0,1.1-0.6,2.1-1.8,2.1c-1.2,0-1.9-1.2-1.9-2.5c0-1,0.3-1.9,0.8-2.4c0.2-0.2,0.3-0.3,0.3-0.5c0-0.1-0.2-0.1-0.3-0.1
					c-0.8,0-1.7,0.4-2.4,0.7c-0.8,0.4-1.8,1.1-2.6,1.9c-0.4-0.9-0.9-1.6-1.1-2.2c-0.1-0.2-0.1-0.5-0.3-0.5c-0.1,0-0.2,0.2-0.3,0.4
					c-0.4,1.1-2.5,4.5-2.9,5c0,0.1-0.1,0.1-0.1,0.1c0,0-0.1,0-0.1-0.2V8.7c0-1-0.4-1.4-1-1.4c-0.5,0-0.9,0.2-1.3,0.8
					c-0.7,1.1-1.6,2.7-2,3.4c-0.1,0.1-0.1,0.2-0.1,0.2c0,0,0-0.1,0-0.2V8.7c0-1-0.4-1.4-1-1.4c-0.5,0-0.9,0.2-1.3,0.8
					c-0.9,1.5-2.4,3.9-2.7,4.3c0,0.1-0.1,0.1-0.1,0.1c0,0-0.1,0-0.1-0.1V8.7c0-1-0.4-1.4-1-1.4c-0.8,0-1.2,0.7-1.5,1.2
					c-0.4,0.6-0.9,1.5-1.3,2.3c-0.3,0.5-0.5,1-0.6,1c0,0,0-0.2,0-0.6V8.2c1.4-1.5,2.2-3.4,2.2-5.4c0-1.2-0.5-1.8-1.3-1.8
					c-1.5,0-2.6,2.3-2.6,5.1v2.2C79,8.8,78.3,9,77.5,9.2c-0.4-1.2-1.3-1.8-2-1.8c-0.7,0-1.1,0.4-1.1,1.1c0,1.1,1.1,1.6,2.1,1.6h0.3
					c0,0.2,0,0.5,0,0.7c0,1.1-0.6,2.1-1.8,2.1c-1.2,0-1.9-1.2-1.9-2.5c0-1,0.3-1.9,0.8-2.4c0.2-0.2,0.3-0.4,0.3-0.5
					c0-0.1-0.2-0.1-0.3-0.1c-0.8,0-2.6,1.1-4.8,3.3c-0.2-1.7-0.4-3.4-0.4-5.1c0-1.8,0.4-3.4,0.5-3.8c0-0.3,0.1-0.5,0.1-0.6
					c0-0.2-0.1-0.3-0.3-0.3c-1.8,0-5.6,2.8-5.6,7c0,1.7,0.4,2.9,1,4c-0.2,0-0.4,0-0.6,0c-0.7,0-1.3,0.2-1.7,0.3v-0.4
					c0-0.9-0.2-2.2-0.6-2.6c0,0-0.1-0.1-0.2-0.1c-0.2,0-0.4,0.1-0.6,0.2c-0.3,0.1-0.5,0.3-0.5,0.3c0,0,0,0.1,0.1,0.2
					c0.2,0.2,0.6,0.7,0.7,1.7c-0.7-0.7-1.6-1.1-2.7-1.1c-1.3,0-1.7,0.6-1.7,1.2c0,1.1,1.5,1.7,3.4,1.7c0.3,0,0.7-0.1,1.1-0.2
					c0,0.3,0,0.7,0,0.9c0,0.4,0.1,0.7,0.3,0.7c0.4,0,0.6-0.7,0.6-1.8c0.7-0.2,1.4-0.3,1.9-0.3C64.2,12.3,64.6,12.4,64.9,12.4
					L64.9,12.4z M60.7,12.2c-0.4,0-0.6,0-1,0c-0.8,0-1.5-0.3-1.5-0.8c0-0.3,0.1-0.5,0.6-0.5C59.5,11,60.1,11.5,60.7,12.2L60.7,12.2z
					"/>
			</g>
		</g>
	</g>
</g>
</svg>
